<svg xmlns="http://www.w3.org/2000/svg" xmlns:xlink="http://www.w3.org/1999/xlink" viewBox="0 0 424 255">
  <defs>
    <style>
      .cls-1 {
        fill: none;
      }

      .cls-2 {
        fill: #b0e7ec;
      }

      .cls-3 {
        fill: #eef7fa;
      }

      .cls-4 {
        fill: #fff;
      }

      .cls-5 {
        clip-path: url(#clip-path);
      }

      .cls-6 {
        fill: #e1ebd2;
        stroke: #e1ebd2;
      }

      .cls-6, .cls-8 {
        stroke-miterlimit: 10;
      }

      .cls-7 {
        opacity: 0.75;
      }

      .cls-8 {
        fill: #88b146;
        stroke: #88b146;
        stroke-width: 1.26px;
      }

      .cls-9 {
        fill: #47c6d7;
      }
    </style>
    <clipPath id="clip-path">
      <rect class="cls-1" width="424" height="255"/>
    </clipPath>
    <symbol id="bub" data-name="bub" viewBox="0 0 22 22.49">
      <g id="pause">
        <circle class="cls-2" cx="11.24" cy="11.73" r="10.76"/>
        <circle class="cls-3" cx="10.76" cy="10.76" r="10.76"/>
        <circle class="cls-4" cx="6.91" cy="6.43" r="2.68"/>
      </g>
    </symbol>
  </defs>
  <g id="Layer_9" data-name="Layer 9">
    <g class="cls-5">
      <path class="cls-6" d="M286.82,311.86c-1.72,2.83-3.38,5.66-5.14,8.45l-5.56,8.24c-3.69,5.49-7.33,11-10.9,16.48-.66,1,.21,2.23,1,1.35a210.6,210.6,0,0,0,21.46-27.81,1.45,1.45,0,0,0,1.67.36A158.06,158.06,0,0,0,309.8,309q5.07-2.91,10.07-6.27a102.26,102.26,0,0,0,9.7-7.24c12.34-10.38,24.66-23.17,34.2-38.89.73-1.16-.45-2.8-1.25-1.76q-3.93,5.12-7.91,9.91c-2.64,3.19-5.31,6.28-8.24,9.2a233.32,233.32,0,0,1-17.48,16.2q-4.44,3.69-9,7c-3.14,2.18-6.33,4.23-9.53,6.15a153.75,153.75,0,0,1-19.55,9.95c5.72-9.91,11.62-20.18,16.11-30.82a1.11,1.11,0,0,0,.85-.2c19.12-12.38,36.45-30,50.4-52.25,6.67-11.13,13.29-23.27,17.79-36.45q3.57-9.86,6.54-20.34c1.72-7,3.09-14.2,4.29-21.55.26-1.65-1.37-2.14-1.71-.6q-2.24,10.28-4.91,20.08c-2,6.53-4.3,12.87-6.64,19s-4.73,12.15-7.67,17.88-6,11.26-9.16,16.56q-2.37,4-4.85,7.77l-2.5,3.76-2.73,3.63q-5.52,7.17-11.36,13.61a167,167,0,0,1-12.06,12Q316.75,271,310,275.75l.41-.91c1.83-4.19,3.7-8.42,5.4-12.71s3.07-8.69,4.55-13.09,2.92-8.83,4.33-13.3,2.41-9,3.58-13.59a1.36,1.36,0,0,0,.81-.57q5.11-7.46,10-15.43l2.45-4,2.22-4.1q2.21-4.12,4.35-8.38,4.29-8.5,8.32-17.47c2.51-6,4.71-12.14,6.91-18.42,9-25.12,13.84-52.52,15.33-81,.1-1.68-1.63-1.94-1.77-.39-5.75,52.75-21.13,100.76-46.31,139.69a275.73,275.73,0,0,0,5.12-29.56c.59-4.71,1.27-9.43,1.65-14.17l.76-14.29a1.71,1.71,0,0,0,1.52-1.24C353,120.12,360.87,82,358.47,42.6c-.08-2.14-2.39-2.5-2.38-.38-.09,36.7-5.76,71.63-17.56,103,.37-6.66.05-13.33-.19-20s-.51-13.34-1.11-20a1.35,1.35,0,0,0,1.34-1.22c6.35-28,6.54-59.74-2.48-89.35-.46-1.6-2.1-1.14-1.78.48C337,29.43,339.48,43.24,339.57,57a204.2,204.2,0,0,1-.3,20.42c-.67,6.78-1.62,13.51-2.9,20.2-1.11-8.4-2-16.79-3.68-25.07s-3.57-16.49-5.55-24.63c2.95-2.19,1.58-10.1,1.39-13.57-.73-9.33-2.09-18.76-5.16-27.77-.61-1.93-2.76-1.31-2.19.62.87,3.06,1.79,6.1,2.38,9.2s1.05,6.22,1.4,9.36q.45,4.13.66,8.22c.11,1.82.17,3.64.2,5.45.53,2.22.53,3.47,0,3.81-4.31-14.16-8.7-28.12-14.74-41.41-1.12-2.62-3.75-.55-2.68,2,5.3,12.05,9.19,24.57,13.09,37.23-3.07-2.57-6.47-7.95-8.42-10.53-3.4-4.45-6.26-9.24-9.71-13.63-1.32-1.64-3.31.26-2.16,2.15A124.5,124.5,0,0,0,315.8,39.26c1.61,1.94,4.86,6.53,7.66,8.41,3.37,14.14,6.83,28.46,8.5,43-2.54-4.6-5-9.2-7.39-13.8l-7.74-13.68-7.58-13.55c-2.61-4.47-5.47-8.87-8.23-13.24-1.25-1.94-3.41.18-2.41,2.22,10.32,20.94,22.75,41.26,34.61,61.41,1,7,1.26,14,1.63,21l.43,10.57c.12,3.52.26,7,.09,10.56-1.59-3.25-3.37-6.51-5.11-9.76l-5.05-9.75L320.38,113,318,108.13l-2.53-4.84q-5.06-9.71-9.85-19.37l-2.4-4.83-2.62-4.81-5.22-9.61c-1.24-2.27-4-.83-2.87,1.69q2.34,5.33,4.93,10.6c1.78,3.52,3.21,7.06,4.94,10.58,3.34,7,7,14,10.75,21,3.44,7,7.09,14,10.87,20.87,1.85,3.47,3.88,6.92,5.66,10.36s3.6,6.88,5.38,10.29q-.36,9.07-.94,18.14c-.54,6-1.4,12-2.21,18L330,198.92c-.68,4.21-1.74,8.36-2.63,12.52-1.48-4.88-2.57-9.72-4.19-14.61s-3-9.74-4.36-14.6l-4-14.56q-2.25-7.3-4.31-14.58t-4-14.57l-4.41-14.47-4.24-14.36c-1-3.17-2.14-6.33-3.2-9.47,0-2.16-.37-3.58-1.09-4.31a2.42,2.42,0,0,0,.51-2.46l-.36-1.14a2,2,0,0,0-1.95-1.42l-1.13,0c-.93,0-1.42,1.07-1.58,2.07-1.12,6.66,4.84,16.89,6.5,23.22L301,134.13c1,3,1.8,6,2.59,9l2.52,9c1.58,5.55,3.3,11.1,5,16.65q2.22,8.31,4.7,16.64c1.59,5.55,3.48,11.14,5.05,16.71s3.12,11.14,4.78,16.75l-3.19,12.84q-2,6.33-4,12.57t-4.25,12.38c-.74,2-1.43,4.09-2.23,6.11l-2.56,6-1.2,2.66c-.78-10.56-2.47-21.23-3.62-31.71-1-10.46-2.81-21-4.19-31.34-1.32-11.71-3.4-23.51-4.92-35.1-.67-5.8-1.93-11.59-3.06-17.31s-2.38-11.38-3.72-17c-.53-2.17-3.32-1.55-3.1.73q.78,8.34,2,16.79c.84,5.63,1.88,11.3,2.55,17,1.49,11.38,3.94,23,5.45,34.54.88,5.8,1.85,11.64,2.86,17.49s1.58,11.65,2.46,17.5,1.68,11.74,2.52,17.54q.9,8.76,1.79,17.35c-2.28,4.88-4.56,9.67-7,14.35-2.62,4.64-5.29,9.19-8,13.69-1.46-35.52-3.28-70.19-6.93-104.61-.27-3.24-4.16-2-3.92,1.16q.51,6.7,1.15,13.46c.39,4.5,1,9,1.2,13.52.54,9,1.31,18.07,2.12,27.21q.6,13.58,1.64,27.42c.45,4.65.41,9.18.64,13.8Z"/>
      <g class="cls-7">
        <path class="cls-8" d="M362.39,250.59c-1.05,1.72-2.06,3.45-3.14,5.15l-3.38,5c-2.25,3.35-4.47,6.68-6.64,10.05-.41.62.12,1.35.61.82a127.83,127.83,0,0,0,13.09-17,.87.87,0,0,0,1,.23,98,98,0,0,0,12.45-6c2.06-1.18,4.1-2.46,6.13-3.82a62.8,62.8,0,0,0,5.92-4.42,97.44,97.44,0,0,0,20.85-23.71c.44-.7-.28-1.7-.77-1.07q-2.38,3.12-4.81,6c-1.61,2-3.24,3.83-5,5.61A145,145,0,0,1,388,237.38q-2.71,2.25-5.46,4.27t-5.81,3.75a93.48,93.48,0,0,1-11.92,6.06,172.54,172.54,0,0,0,9.82-18.78.74.74,0,0,0,.52-.12,102.8,102.8,0,0,0,30.72-31.86,117.67,117.67,0,0,0,10.84-22.21q2.19-6,4-12.41c1.05-4.27,1.89-8.65,2.61-13.13.17-1-.83-1.31-1-.37q-1.35,6.27-3,12.24c-1.21,4-2.62,7.85-4.05,11.61s-2.88,7.41-4.67,10.9S407,194.19,405,197.42q-1.45,2.43-3,4.74l-1.52,2.29-1.66,2.22q-3.36,4.37-6.93,8.29a99.77,99.77,0,0,1-7.35,7.34q-4,3.39-8.09,6.27l.24-.55c1.12-2.56,2.26-5.13,3.3-7.75s1.87-5.29,2.77-8,1.78-5.38,2.64-8.11,1.47-5.5,2.19-8.28a.83.83,0,0,0,.49-.35c2.07-3,4.12-6.16,6.12-9.4l1.5-2.45,1.35-2.5q1.35-2.52,2.65-5.11c1.75-3.45,3.44-7,5.07-10.65s2.87-7.4,4.22-11.23c5.47-15.31,8.44-32,9.34-49.38.06-1-1-1.19-1.08-.24-3.5,32.16-12.88,61.42-28.23,85.15a164.24,164.24,0,0,0,3.12-18c.37-2.87.78-5.74,1-8.64l.46-8.71a1,1,0,0,0,.93-.75,153.83,153.83,0,0,0,11.48-67.17c-.05-1.31-1.46-1.53-1.45-.24-.06,22.38-3.51,43.67-10.71,62.81.23-4.06,0-8.13-.11-12.2s-.32-8.13-.68-12.18a.83.83,0,0,0,.82-.75c3.87-17.08,4-36.42-1.52-54.46-.28-1-1.27-.7-1.08.29,1.63,8.7,3.15,17.12,3.21,25.51a122.92,122.92,0,0,1-.19,12.45q-.6,6.19-1.76,12.31c-.68-5.12-1.25-10.23-2.25-15.28s-2.17-10.06-3.38-15c1.8-1.34,1-6.16.85-8.27a69,69,0,0,0-3.15-16.94c-.37-1.17-1.68-.8-1.33.38.53,1.87,1.09,3.72,1.45,5.61s.64,3.79.85,5.71c.19,1.67.31,3.34.4,5,.07,1.11.11,2.22.12,3.32.33,1.35.33,2.11,0,2.32a205.27,205.27,0,0,0-9-25.24c-.68-1.6-2.28-.33-1.63,1.23a208,208,0,0,1,8,22.69c-1.87-1.57-3.95-4.85-5.13-6.42-2.08-2.71-3.82-5.63-5.92-8.31-.8-1-2,.16-1.32,1.31a76.46,76.46,0,0,0,8.87,12.31c1,1.18,3,4,4.67,5.13,2.06,8.62,4.17,17.35,5.19,26.22q-2.32-4.2-4.51-8.41L380.69,99l-4.63-8.26c-1.59-2.73-3.33-5.41-5-8.07-.75-1.18-2.07.11-1.46,1.35,6.29,12.77,13.87,25.15,21.09,37.44.63,4.25.78,8.54,1,12.83l.26,6.44c.07,2.15.16,4.3.06,6.44-1-2-2.06-4-3.12-6l-3.08-5.94-2.94-5.93-1.43-3-1.54-3c-2.06-3.94-4.05-7.87-6-11.8l-1.46-3-1.59-2.93-3.19-5.86c-.75-1.38-2.43-.5-1.75,1,1,2.16,2,4.32,3,6.46s2,4.31,3,6.45c2,4.29,4.27,8.56,6.55,12.82,2.1,4.26,4.33,8.5,6.63,12.73,1.13,2.11,2.36,4.21,3.45,6.31l3.28,6.27q-.22,5.53-.57,11.06c-.33,3.67-.86,7.33-1.35,11l-1.16,7.73c-.41,2.57-1.06,5.1-1.6,7.63-.9-3-1.57-5.92-2.56-8.9s-1.81-5.94-2.65-8.91l-2.46-8.87c-.92-3-1.79-5.93-2.63-8.89s-1.64-5.93-2.41-8.88l-2.69-8.82-2.58-8.76c-.6-1.93-1.31-3.85-1.95-5.77a3.81,3.81,0,0,0-.67-2.62,1.49,1.49,0,0,0,.31-1.51l-.22-.69a1.19,1.19,0,0,0-1.19-.87l-.69,0c-.56,0-.86.65-1,1.26-.68,4.06,3,10.3,4,14.16l3.31,10.91c.6,1.83,1.09,3.66,1.58,5.5l1.53,5.51c1,3.38,2,6.76,3,10.15s1.86,6.75,2.87,10.14,2.12,6.79,3.08,10.18,1.9,6.8,2.91,10.22l-1.94,7.83c-.79,2.57-1.62,5.12-2.46,7.66s-1.71,5-2.59,7.54c-.45,1.25-.87,2.5-1.36,3.73l-1.56,3.64-.73,1.62c-.48-6.43-1.5-12.94-2.2-19.32s-1.72-12.79-2.56-19.11c-.81-7.14-2.07-14.33-3-21.4-.41-3.53-1.18-7.06-1.87-10.55s-1.45-6.94-2.27-10.34c-.32-1.32-2-.94-1.88.45.31,3.38.73,6.79,1.24,10.23s1.15,6.89,1.55,10.36c.92,6.94,2.41,14,3.33,21.06q.81,5.29,1.74,10.66c.6,3.56,1,7.1,1.5,10.67s1,7.15,1.54,10.69.73,7.08,1.09,10.57c-1.4,3-2.78,5.9-4.27,8.75s-3.23,5.6-4.86,8.35c-.89-21.66-2-42.79-4.23-63.77-.16-2-2.53-1.24-2.38.7.2,2.73.44,5.46.7,8.21s.62,5.51.73,8.24c.33,5.48.8,11,1.29,16.59q.38,8.28,1,16.71c.27,2.83.25,5.6.39,8.41Z"/>
      </g>
      <g class="cls-7">
        <path class="cls-8" d="M108.94,289.84c1.12.63,2.22,1.27,3.35,1.88l3.44,1.73c2.29,1.15,4.57,2.31,6.82,3.5.42.22.35.79-.09.65a81.59,81.59,0,0,1-12.54-5.32.57.57,0,0,1-.5.44,61.35,61.35,0,0,1-8.78.54c-1.51,0-3-.08-4.59-.2a40.39,40.39,0,0,1-4.66-.6,62.06,62.06,0,0,1-19-6.65c-.47-.25-.39-1,.08-.83,1.54.66,3,1.27,4.56,1.85s3,1.11,4.54,1.54a91,91,0,0,0,9,2.15c1.47.27,2.93.49,4.36.67s3,.22,4.39.26a59.63,59.63,0,0,0,8.5-.35,110.31,110.31,0,0,1-11.3-7.35.48.48,0,0,1-.33.09,65.54,65.54,0,0,1-27-8.07,75.26,75.26,0,0,1-12.94-8.94q-3.09-2.65-6.08-5.63c-1.91-2-3.74-4.21-5.55-6.47-.4-.51.06-1,.47-.53,1.8,2,3.63,4,5.48,5.86s3.9,3.53,5.86,5.17,3.91,3.2,6,4.58,4.16,2.67,6.25,3.86c1,.59,2.08,1.16,3.12,1.7l1.55.79,1.62.71q3.23,1.38,6.43,2.44a63,63,0,0,0,6.36,1.78,64.17,64.17,0,0,0,6.44,1l-.31-.23c-1.41-1.07-2.85-2.14-4.24-3.27s-2.69-2.35-4-3.56-2.66-2.43-4-3.67-2.53-2.59-3.79-3.91a.51.51,0,0,1-.38,0q-3.15-1.55-6.33-3.3l-1.6-.89-1.53-1c-1-.65-2-1.32-3.06-2q-3.07-2.06-6.13-4.32c-2-1.55-3.9-3.21-5.84-4.91A110.22,110.22,0,0,1,32.43,226.5c-.36-.55.18-1,.52-.47,12,16.74,26.31,30,42.22,38.41a106.28,106.28,0,0,1-7.35-9c-1.1-1.48-2.23-2.95-3.26-4.48l-3-4.68a.69.69,0,0,1-.75-.13,97.83,97.83,0,0,1-27.32-33.66c-.38-.74.33-1.3.73-.58a114.7,114.7,0,0,0,25.53,31.48c-1.39-2.18-2.55-4.5-3.74-6.8s-2.36-4.61-3.42-7a.53.53,0,0,1-.69-.15,68.48,68.48,0,0,1-16.15-30.67c-.15-.63.49-.79.69-.18a91.91,91.91,0,0,0,6.18,15.14c1.25,2.35,2.52,4.66,4,6.85s3.12,4.26,4.82,6.27c-1.22-3.05-2.5-6.06-3.52-9.17s-1.93-6.25-2.81-9.38c-1.41-.18-2.45-3.11-3-4.32a43.92,43.92,0,0,1-3.53-10.37c-.16-.77.68-1,.86-.2.28,1.2.55,2.4.94,3.56s.83,2.3,1.31,3.43c.42,1,.87,2,1.34,2.9.31.64.63,1.26,1,1.88.24.85.48,1.27.71,1.3a130.33,130.33,0,0,1-2.9-16.8c-.11-1.1,1.17-.9,1.29.17a132.09,132.09,0,0,0,2.66,15.07,26.72,26.72,0,0,0,.84-5.16c.3-2.15.36-4.32.69-6.45.13-.81,1.17-.54,1.14.31a48.41,48.41,0,0,1-1.08,9.59,18.21,18.21,0,0,1-1,4.3,141.3,141.3,0,0,0,5.31,16.16c0-2-.07-4.06-.13-6.07v-6.1c0-2,0-4,0-6s.16-4,.27-6c0-.9,1.18-.59,1.23.29.49,9,.16,18.27,0,27.33,1,2.56,2.24,5,3.45,7.43l1.87,3.65c.63,1.21,1.25,2.43,2,3.59-.09-1.4-.1-2.84-.13-4.27L60,233.22l-.22-4.2-.13-2.09-.07-2.12c-.09-2.83-.21-5.63-.35-8.42l-.11-2.09,0-2.12L59,207.94c0-1,1.19-1,1.29,0,.15,1.5.26,3,.35,4.52s.26,3,.34,4.52c.21,3,.31,6.08.37,9.15s.25,6.06.3,9.12c0,1.52,0,3.08,0,4.58s.09,3,.14,4.5c1.23,2,2.49,4,3.76,6s2.77,3.8,4.18,5.67l3,3.92c1,1.3,2.18,2.5,3.27,3.73-.43-1.93-1-3.77-1.36-5.73s-.85-3.86-1.3-5.77l-1.41-5.68q-.63-2.9-1.32-5.75T69.31,235l-1.26-5.73-1.3-5.66c-.27-1.25-.48-2.54-.72-3.81a2.44,2.44,0,0,1-.45-1.66.93.93,0,0,1-.64-.73l-.1-.46a.77.77,0,0,1,.39-.85l.4-.2c.31-.16.68.09.92.4,1.65,2,1.58,6.63,2.22,9.08l1.57,7.09c.24,1.2.54,2.37.84,3.54l.87,3.53c.52,2.18,1,4.38,1.47,6.58s1.08,4.32,1.58,6.52.94,4.42,1.47,6.6,1.06,4.36,1.57,6.57l3.52,3.74c1.24,1.18,2.5,2.34,3.75,3.48s2.53,2.27,3.79,3.38c.64.55,1.26,1.11,1.92,1.64l2,1.53.91.67c-1.74-3.72-3.2-7.64-4.81-11.4s-3-7.62-4.54-11.39c-1.78-4.21-3.32-8.59-5-12.8-.88-2.09-1.55-4.28-2.26-6.43s-1.36-4.3-2-6.44c-.24-.84.82-1.16,1.18-.35q1.32,3,2.5,6.07c.79,2.06,1.52,4.18,2.37,6.22,1.66,4.13,3,8.52,4.73,12.71.8,2.13,1.59,4.29,2.36,6.46s1.68,4.24,2.5,6.38l2.48,6.41q1.37,3.14,2.69,6.2c1.7,1.22,3.38,2.4,5.1,3.52s3.54,2.1,5.3,3.11c-6.27-12.28-12.24-24.34-17.55-36.67-.53-1.15,1-1.48,1.54-.35q1.11,2.36,2.17,4.76c.72,1.6,1.37,3.25,2.17,4.8,1.52,3.14,3,6.36,4.45,9.6s3.14,6.33,4.67,9.58c.73,1.65,1.6,3.18,2.4,4.78Z"/>
      </g>
      <use width="22" height="22.49" transform="translate(362.01 130.32) scale(2.24 2.29)" xlink:href="#bub"/>
      <g>
        <path class="cls-9" d="M371,165.19a1,1,0,0,1-.35-.75,1.15,1.15,0,0,1,.12-.5l8.52-17.45a1.09,1.09,0,0,1,.38-.46.87.87,0,0,1,.54-.17,1.12,1.12,0,0,1,.74.3,1,1,0,0,1,.35.75,1.16,1.16,0,0,1-.13.5l-8.49,17.45a1.3,1.3,0,0,1-.39.47.92.92,0,0,1-.53.16A1.16,1.16,0,0,1,371,165.19Z"/>
        <path class="cls-9" d="M390.11,151.59a1.06,1.06,0,0,1,.43.84,1.32,1.32,0,0,1-.33,1,1.14,1.14,0,0,1-.8.32,2.22,2.22,0,0,1-.71-.14l-.28-.09a1.85,1.85,0,0,0-1.52.27,2.52,2.52,0,0,0-.83,1,3.73,3.73,0,0,0-.33,1.63v5a1.28,1.28,0,0,1-.35.91,1.29,1.29,0,0,1-1.81,0,1.28,1.28,0,0,1-.35-.91v-8.68a1.29,1.29,0,0,1,.35-.91,1.29,1.29,0,0,1,1.81,0,1.29,1.29,0,0,1,.35.91V153a3.15,3.15,0,0,1,1.39-1.31,4.13,4.13,0,0,1,1.93-.46A1.57,1.57,0,0,1,390.11,151.59Z"/>
        <path class="cls-9" d="M392,165.19a.94.94,0,0,1-.36-.75,1,1,0,0,1,.13-.5l8.51-17.45a1.18,1.18,0,0,1,.39-.46.86.86,0,0,1,.53-.17,1.12,1.12,0,0,1,.75.3,1,1,0,0,1,.34.75,1.15,1.15,0,0,1-.12.5l-8.49,17.45a1.3,1.3,0,0,1-.39.47.93.93,0,0,1-.54.16A1.16,1.16,0,0,1,392,165.19Z"/>
      </g>
      <use width="22" height="22.49" transform="translate(272.36 180.77) scale(2.23 2.28)" xlink:href="#bub"/>
      <g>
        <path class="cls-9" d="M297.56,207.89a1.52,1.52,0,0,1-1,.36h-7.9a3.6,3.6,0,0,0,1.31,2.22,3.69,3.69,0,0,0,2.33.81,5.11,5.11,0,0,0,1.53-.18,3.88,3.88,0,0,0,.88-.39l.44-.27a1.77,1.77,0,0,1,.82-.22,1.18,1.18,0,0,1,.86.36,1.15,1.15,0,0,1,.36.84,1.52,1.52,0,0,1-.67,1.18,5.82,5.82,0,0,1-1.8.94,7.17,7.17,0,0,1-2.28.38,7.07,7.07,0,0,1-3.51-.84,5.79,5.79,0,0,1-2.31-2.32,6.77,6.77,0,0,1-.81-3.32,7.33,7.33,0,0,1,.86-3.63,6.06,6.06,0,0,1,2.27-2.38,5.92,5.92,0,0,1,3-.83,5.66,5.66,0,0,1,3,.86,6.58,6.58,0,0,1,2.24,2.33A6.26,6.26,0,0,1,298,207,1.2,1.2,0,0,1,297.56,207.89Zm-8.89-2H295v-.16a2.49,2.49,0,0,0-1-1.73,3.13,3.13,0,0,0-2-.72A3,3,0,0,0,288.67,205.85Z"/>
        <path class="cls-9" d="M308.28,201a1.2,1.2,0,0,1,.49,1,1.51,1.51,0,0,1-.38,1.11,1.27,1.27,0,0,1-.91.38,2.5,2.5,0,0,1-.82-.17l-.32-.1a1.9,1.9,0,0,0-.54-.07,2.2,2.2,0,0,0-1.2.38,2.8,2.8,0,0,0-.94,1.17,4.26,4.26,0,0,0-.37,1.86v5.68a1.46,1.46,0,0,1-.41,1,1.38,1.38,0,0,1-1,.42,1.36,1.36,0,0,1-1-.42,1.46,1.46,0,0,1-.41-1V202.3a1.45,1.45,0,0,1,.41-1,1.36,1.36,0,0,1,1-.42,1.38,1.38,0,0,1,1,.42,1.45,1.45,0,0,1,.41,1v.31a3.64,3.64,0,0,1,1.58-1.5,4.87,4.87,0,0,1,2.2-.51A1.79,1.79,0,0,1,308.28,201Z"/>
      </g>
      <use width="22" height="22.49" transform="translate(50.36 187.32) scale(3.35 3.42)" xlink:href="#bub"/>
      <g>
        <path class="cls-9" d="M78.38,221.23a1.91,1.91,0,0,1,1.24,1.7,1.42,1.42,0,0,1-.31.92,1,1,0,0,1-.81.4,1.53,1.53,0,0,1-.62-.11,2.13,2.13,0,0,1-.47-.29,3.45,3.45,0,0,0-.44-.3,3.36,3.36,0,0,0-.71-.22,4.14,4.14,0,0,0-.76-.09,3.63,3.63,0,0,0-2.81,1.11,4.17,4.17,0,0,0-1,2.92,4.11,4.11,0,0,0,1,2.87,3.41,3.41,0,0,0,2.64,1.14,4.13,4.13,0,0,0,1.75-.29,4.41,4.41,0,0,0,.39-.25,3,3,0,0,1,.47-.28,1.36,1.36,0,0,1,.53-.09,1.23,1.23,0,0,1,.94.38,1.42,1.42,0,0,1,.35,1,1.39,1.39,0,0,1-.67,1.08,5.2,5.2,0,0,1-1.77.81,9,9,0,0,1-2.35.3,6.05,6.05,0,0,1-3.25-.87,5.81,5.81,0,0,1-2.17-2.38,7.48,7.48,0,0,1-.76-3.4,7.21,7.21,0,0,1,.8-3.46,5.92,5.92,0,0,1,2.24-2.36,6.24,6.24,0,0,1,3.26-.85A7.28,7.28,0,0,1,78.38,221.23Z"/>
        <path class="cls-9" d="M93.26,221a1.42,1.42,0,0,1,.4,1.05v10.15a1.45,1.45,0,0,1-.4,1,1.38,1.38,0,0,1-1,.42,1.36,1.36,0,0,1-1-.41,1.48,1.48,0,0,1-.42-1A5.18,5.18,0,0,1,87,233.92a5.57,5.57,0,0,1-3-.85,6,6,0,0,1-2.12-2.37,7.37,7.37,0,0,1-.78-3.43,7.54,7.54,0,0,1,.77-3.44,5.87,5.87,0,0,1,2.1-2.38,5.28,5.28,0,0,1,2.93-.85,5.54,5.54,0,0,1,2.16.42,5.48,5.48,0,0,1,1.7,1.07v0a1.41,1.41,0,0,1,.41-1,1.49,1.49,0,0,1,2.06,0Zm-3.33,9.13a4.27,4.27,0,0,0,1-2.87,4.31,4.31,0,0,0-1-2.88,3.36,3.36,0,0,0-5.06,0,4.31,4.31,0,0,0-1,2.88,4.26,4.26,0,0,0,1,2.87,3.17,3.17,0,0,0,2.53,1.14A3.2,3.2,0,0,0,89.93,230.14Z"/>
        <path class="cls-9" d="M104.65,221a1.2,1.2,0,0,1,.49,1,1.51,1.51,0,0,1-.38,1.11,1.27,1.27,0,0,1-.91.38,2.45,2.45,0,0,1-.82-.17l-.32-.1a1.9,1.9,0,0,0-.54-.07,2.16,2.16,0,0,0-1.2.38,2.8,2.8,0,0,0-.94,1.17,4.26,4.26,0,0,0-.38,1.86v5.68a1.45,1.45,0,0,1-.4,1,1.4,1.4,0,0,1-1,.42,1.36,1.36,0,0,1-1-.42,1.42,1.42,0,0,1-.41-1V222.3a1.41,1.41,0,0,1,.41-1,1.36,1.36,0,0,1,1-.42,1.4,1.4,0,0,1,1,.42,1.44,1.44,0,0,1,.4,1v.31a3.72,3.72,0,0,1,1.59-1.5,4.87,4.87,0,0,1,2.2-.51A1.79,1.79,0,0,1,104.65,221Z"/>
      </g>
      <use width="22" height="22.49" transform="translate(158.36 184.32) scale(1.68 1.72)" xlink:href="#bub"/>
      <use width="22" height="22.49" transform="translate(387.36 65.32) scale(1.18 1.21)" xlink:href="#bub"/>
      <use width="22" height="22.49" transform="translate(344.36 221.32) scale(1.95 1.91)" xlink:href="#bub"/>
    </g>
  </g>
</svg>
