<svg id="hsib" xmlns="http://www.w3.org/2000/svg" xmlns:xlink="http://www.w3.org/1999/xlink" viewBox="0 0 424 255">
  <defs>
    <symbol id="feather_2" data-name="feather 2" viewBox="0 0 281.43 235.81">
      <path d="M274.61,0A234.68,234.68,0,0,0,219,10.21c.54,6,1.13,10.75,1.74,12.35,0,0-2.77-4.79-5.6-11.14-24.54,7.94-47.33,19.24-67.76,31.76,5.88,4.48,11.76,8.72,14.25,9.79,0,0-12.07-2.9-21.44-5.27a452.54,452.54,0,0,0-76.31,62.59c7.38,2.17,12.6,3.64,12.6,3.64-2.39.39-11.36,2.23-18.86,2.88-4.35,4.63-7.7,8.42-10,11C16.37,164.29,15.23,202.21,22.8,208.7,39.41,222.94,74.14,211,100,197.32c1.06-3.44-5.68-8-5.41-10.49l18.77,2.87c10.11-6.24,17.21-11.84,18.57-14.32q9.28-16.9,19.86-32.52c-2.93-4.65-7.68-13.91-7.68-13.91s1,.87,5.89,6.35a33.79,33.79,0,0,0,4.28,3.9,491.6,491.6,0,0,1,54-64.88c-2.76-2.39-9.19-6.68-9.19-6.68,4,.88,8.82,1.79,13.26,2.57A778.55,778.55,0,0,1,279,11.46,6.43,6.43,0,0,0,274.61,0Z" style="fill: #f0f0f0"/>
      <path d="M274.61,0A234.68,234.68,0,0,0,219,10.21c.54,6,1.13,10.75,1.74,12.35,0,0-2.77-4.79-5.6-11.14-2.87.93-5.71,1.91-8.54,2.93,0,0-21.22,28.56-15.68,36.93,5.7,8.6,41.29,0,41.29,0,15.07-13.85,30.76-27,46.83-39.8A6.43,6.43,0,0,0,274.61,0Z" style="fill: #394f6b"/>
      <path d="M212.36,70.21l3.7-3.66s-34.35-.8-38.89-8.55c-3.59-6.13,14.06-37.62,14.06-37.62q-4.9,2.09-9.68,4.32L168.23,58.62a3.68,3.68,0,0,0,.16,3.08,3.78,3.78,0,0,0,.88,1.1,3.6,3.6,0,0,0,1.57.79l33.8,7.91c-2.71-2-5.54-3.86-5.54-3.86C203.08,68.52,207.92,69.43,212.36,70.21Z" style="fill: #b6c6d1"/>
      <path d="M161.68,69.88C158.46,65.71,174.75,28,174.75,28q-4.69,2.32-9.26,4.78l-6,19.1A16.43,16.43,0,0,0,161.58,53l-2.23-.54-5.9,18.93a3.71,3.71,0,0,0,.29,2.9,3.75,3.75,0,0,0,.83,1,3.67,3.67,0,0,0,1.46.77l40.36,10.8c1.9-2.07,3.82-4.11,5.75-6.15C202.14,80.7,166.83,76.54,161.68,69.88Z" style="fill: #b6c6d1"/>
      <g>
        <path d="M145.18,80.27c-3.34-4.16,6.1-29.8,6.1-29.8l-7.21-1.78-7.41,33.24a3.74,3.74,0,0,0,1.18,3.75,3.92,3.92,0,0,0,1.3.72l46.64,12.31c1.78-2,3.56-4.08,5.37-6.09C191.15,92.62,150.15,86.45,145.18,80.27Z" style="fill: #b6c6d1"/>
        <path d="M154.25,39.05c-2.33,1.36-4.64,2.73-6.92,4.13,1.66,1.26,3.31,2.5,4.89,3.66Z" style="fill: #b6c6d1"/>
      </g>
      <g>
        <path d="M149.57,146.26c-.73,1.1-1.45,2.21-2.17,3.32C148.12,148.47,148.84,147.36,149.57,146.26Z" style="fill: #cfdce3"/>
        <path d="M92.86,83.13s3.44,24,8.24,30.1c8.79,11.29,49.82,28.14,49.82,28.14h0c-2.9-4.9-6.77-12.43-6.77-12.43s1,.87,5.89,6.35a33.79,33.79,0,0,0,4.28,3.9q3.51-5.07,7.13-10s-39.5-13.79-47.84-24.3c-5.17-6.53-7.91-32.38-7.91-32.38-6,4.75-11.54,9.45-16.73,14h0C90.24,85.39,91.54,84.27,92.86,83.13Z" style="fill: #cfdce3"/>
        <path d="M151.35,142.09l.07.12Z" style="fill: #cfdce3"/>
      </g>
      <path d="M214.88,36C159.08,64.59,34,137.86,0,235.81l14.84-9.16s38.33-92.9,201-188.82A1,1,0,0,0,214.88,36Z" style="fill: #cacaca"/>
    </symbol>
  </defs>
  <title>hsib</title>
  <g>
    <g>
      <g>
        <g>
          <path d="M83.73,170.22l7.55-2.56c3.9-1.35,9.35-3.22,19-6.42l16.33-5.4,10.36-3.41c6-2,11.48-3.75,15.46-5l4.75-1.46a11.16,11.16,0,0,1,1.82-.47,62,62,0,0,1-6.11,2.35c-3.85,1.38-9.19,3.28-15.13,5.33l-16.15,5.54-10.29,3.53-7.54,2.65L85,171.48c-12,4.19-21.9,7.22-22.32,6.8S71.65,174.26,83.73,170.22Z" style="fill: #ffd46f"/>
          <path d="M103.83,134.46l4.79-.34c2.48-.19,5.95-.45,12-.85l10.31-.65,6.54-.42c3.78-.25,7.22-.44,9.72-.55a27.7,27.7,0,0,1,4.09-.05c0,.16-6,.77-13.6,1.35l-10.26.76-6.55.48-4.81.39-12,1c-7.63.58-13.83.78-13.92.44S96.19,135,103.83,134.46Z" style="fill: #ffd46f"/>
          <path d="M43.55,138.51c1.68-.11,2.23-.16,3.48-.26,1.8-.16,4.31-.37,8.73-.65l7.5-.42L68,136.9c5.52-.35,10.06-.33,10.15,0s-4.3,1-9.79,1.41l-7.48.5-4.76.33c-1.7.12-2.25.17-3.5.29-1.79.17-4.3.41-8.68.73-5.55.41-10.11.33-10.23-.16S38,138.85,43.55,138.51Z" style="fill: #ffd46f"/>
          <path d="M71,128.54c-.88,0-1.17,0-1.83,0-.95,0-2.26.08-4.59.08-2,0-3,0-3.93-.06l-2.49,0c-2.89,0-5.26-.37-5.27-.81S55.16,127,58,127c2,0,3.07,0,3.93.09l2.5,0c.9,0,1.19,0,1.84,0,1,0,2.28-.06,4.58,0,2.92,0,5.28.36,5.3.73S73.88,128.54,71,128.54Z" style="fill: #ffd46f"/>
          <path d="M145.07,156.75l-1.73.75c-.89.4-2.12,1-4.33,1.89L135.23,161l-2.39,1c-2.76,1.16-5.24,1.9-5.53,1.67s1.74-1.35,4.54-2.48l3.82-1.52,2.43-1,1.75-.74c.9-.4,2.15-.94,4.37-1.85,2.83-1.14,5.26-1.92,5.47-1.75S147.85,155.57,145.07,156.75Z" style="fill: #ffd46f"/>
          <path d="M119.32,167.93a4.27,4.27,0,0,0-.5.22,11.69,11.69,0,0,1-1.25.55c-.57.21-.89.31-1.16.39l-.73.24a2.48,2.48,0,0,1-2.06,0c-.3-.29.13-.76,1-1.06.58-.2.9-.3,1.17-.38a7.47,7.47,0,0,0,.74-.24,4,4,0,0,0,.51-.21,8.66,8.66,0,0,1,1.26-.54c.85-.3,1.76-.33,2-.06S120.16,167.62,119.32,167.93Z" style="fill: #ffd46f"/>
          <path d="M86.32,145l4.11-.61c2.13-.32,5.1-.78,10.33-1.5l8.87-1.2,5.62-.76c6.52-.9,11.89-1.44,12-1.22s-5.08,1.22-11.56,2.19l-8.83,1.29-5.61.82-4.13.64c-2.12.35-5.08.83-10.24,1.6-6.56,1-12,1.46-12.11,1.08S79.75,145.92,86.32,145Z" style="fill: #ffd46f"/>
          <path d="M141.55,137.31l.81-.12c.43-.07,1-.16,2-.29l1.78-.2,1.13-.13a5.15,5.15,0,0,1,2.44,0c.05.18-1,.47-2.26.64l-1.76.22-1.12.14-.82.12c-.42.08-1,.18-2,.32-1.31.17-2.41.14-2.47-.07S140.23,137.47,141.55,137.31Z" style="fill: #ffd46f"/>
          <path d="M60.31,148.71a1.62,1.62,0,0,0,.44-.07,8.17,8.17,0,0,1,2.12-.17c.19,0,.32,0,.63,0,.73,0,1.41.25,1.53.66s-.37.8-1.09.85c-.49,0-.77,0-1,0s-.33,0-.63,0a1.63,1.63,0,0,0-.45.07,5.63,5.63,0,0,1-1.12.17c-.73.05-1.41-.26-1.54-.68S59.58,148.75,60.31,148.71Z" style="fill: #ffd46f"/>
          <path d="M120.79,148.77c.49-.1.65-.14,1-.24.52-.13,1.25-.33,2.55-.6l2.22-.45,1.4-.28c1.62-.35,3-.45,3.15-.22s-1.1.73-2.7,1.09c-1.11.26-1.71.38-2.2.47l-1.4.31c-.5.11-.66.15-1,.25-.52.14-1.24.34-2.52.62-1.63.37-3,.44-3.19.17S119.15,149.12,120.79,148.77Z" style="fill: #ffd46f"/>
          <path d="M79.82,158.3a8,8,0,0,0,.81-.2c.42-.11,1-.28,2.05-.49.9-.17,1.4-.25,1.81-.31s.58-.09,1.15-.2c1.31-.26,2.53-.18,2.72.16s-.71.87-2,1.14c-.89.19-1.39.27-1.79.34s-.58.09-1.14.21a8.27,8.27,0,0,0-.82.2,17.92,17.92,0,0,1-2,.51c-1.32.27-2.55.18-2.77-.2S78.49,158.56,79.82,158.3Z" style="fill: #ffd46f"/>
          <path d="M98.77,154.16a7.48,7.48,0,0,0,.78-.19c.4-.11,1-.27,2-.47.86-.17,1.33-.25,1.73-.31s.55-.09,1.09-.2c1.25-.26,2.4-.22,2.55.08s-.73.77-2,1c-.85.18-1.32.26-1.7.33l-1.09.21a5.42,5.42,0,0,0-.78.2c-.39.11-1,.27-1.94.48-1.26.27-2.41.22-2.59-.11S97.5,154.41,98.77,154.16Z" style="fill: #ffd46f"/>
          <path d="M141.82,144l.44-.1a10.58,10.58,0,0,1,1.07-.25c.47-.1.72-.13.94-.16l.59-.11c.68-.13,1.28-.07,1.34.12s-.46.48-1.14.62c-.46.1-.72.14-.92.17l-.59.11a2.65,2.65,0,0,0-.43.11c-.22.06-.53.15-1.07.26s-1.29.08-1.35-.14S141.13,144.15,141.82,144Z" style="fill: #ffd46f"/>
        </g>
        <g>
          <path d="M151.45,207.47l3.57-4.7c1.83-2.46,4.4-5.88,9-11.81l7.9-10.06,5-6.37c2.89-3.7,5.58-7,7.57-9.43l2.4-2.83c.58-.67.93-1,1-1s-.16.41-.62,1.11l-2,2.94c-1.74,2.46-4.2,5.86-7,9.59L170.67,185l-4.84,6.44c-1.69,2.32-2.25,3.07-3.49,4.77-1.79,2.47-4.29,5.9-8.64,11.87-5.55,7.55-10.6,13.46-11.34,13.25S145.65,215,151.45,207.47Z" style="fill: #ffd46f"/>
          <path d="M132.35,171.53l3.54-2c1.81-1,4.35-2.44,8.87-4.89l7.68-4.12,4.87-2.62c5.63-3.05,10.35-5.42,10.54-5.3s-4.16,2.75-9.69,5.86c-3.81,2.13-5.87,3.28-7.54,4.2l-4.81,2.68-3.5,2-8.71,5c-5.59,3.14-10.39,5.46-10.78,5.2S126.67,174.6,132.35,171.53Z" style="fill: #ffd46f"/>
          <path d="M87.65,195.87c1.25-.67,1.65-.91,2.55-1.43,1.3-.75,3.12-1.81,6.42-3.58l5.64-3c1-.53,1.78-1,3.56-1.88,4.11-2.21,7.78-3.78,8.19-3.51s-2.51,2.33-6.54,4.58l-5.54,3L98.41,192c-1.26.69-1.66.92-2.55,1.45-1.27.77-3.07,1.85-6.29,3.63-4.08,2.27-7.82,3.79-8.39,3.43S83.49,198.09,87.65,195.87Z" style="fill: #ffd46f"/>
          <path d="M99.88,178.24c-.71.31-.94.42-1.45.67-.73.35-1.76.85-3.63,1.66-1.59.68-2.49,1-3.23,1.33l-2,.84c-2.34,1-4.6,1.52-5,1.17s1.13-1.44,3.51-2.42c1.63-.67,2.53-1,3.26-1.29l2.07-.83c.74-.3,1-.41,1.48-.66.75-.35,1.79-.83,3.67-1.62,2.4-1,4.62-1.54,5-1.24S102.24,177.22,99.88,178.24Z" style="fill: #ffd46f"/>
          <path d="M187.72,175.26c-.31.59-.41.78-.65,1.22-.33.63-.77,1.51-1.63,3l-1.52,2.57-1,1.63c-1.08,1.9-2.34,3.36-2.8,3.25s.1-1.72,1.25-3.61l1.58-2.55,1-1.63c.33-.59.44-.79.69-1.22.33-.63.81-1.5,1.72-3,1.15-1.91,2.33-3.38,2.66-3.3S188.81,173.34,187.72,175.26Z" style="fill: #ffd46f"/>
          <path d="M178,193.3a2.07,2.07,0,0,0-.19.34,3.73,3.73,0,0,1-.46.89,8.86,8.86,0,0,1-.56.71c-.1.13-.17.23-.35.45a1.63,1.63,0,0,1-1.6.72c-.52-.14-.63-.68-.24-1.21a5.12,5.12,0,0,1,.57-.71c.11-.13.19-.23.35-.45a1.48,1.48,0,0,0,.2-.35,4.45,4.45,0,0,1,.5-.88,1.66,1.66,0,0,1,1.56-.73C178.22,192.21,178.32,192.75,178,193.3Z" style="fill: #ffd46f"/>
          <path d="M128.58,186.22l2.73-1.92c1.4-1,3.35-2.42,6.86-4.82l6-4.07c1.07-.72,1.89-1.29,3.78-2.58,4.38-3,8.17-5.3,8.46-5.14s-2.93,2.78-7.21,5.83l-5.86,4.12-3.73,2.62-2.7,2c-1.37,1-3.29,2.45-6.71,4.87-4.32,3.09-8.2,5.34-8.69,5.08S124.16,189.25,128.58,186.22Z" style="fill: #ffd46f"/>
          <path d="M165.61,160.72c.27-.18.36-.24.54-.38s.66-.49,1.37-1l1.24-.77.78-.5c.89-.58,1.78-.94,2-.8s-.34.73-1.21,1.33l-1.2.78-.77.5c-.28.19-.36.25-.54.39s-.64.5-1.35,1c-.88.59-1.79.94-2,.78S164.7,161.31,165.61,160.72Z" style="fill: #ffd46f"/>
          <path d="M111.2,198.29a1,1,0,0,0,.3-.21,3.11,3.11,0,0,1,.74-.52,5.56,5.56,0,0,1,.79-.36c.14-.06.26-.11.49-.23a2,2,0,0,1,1.84,0c.49.31.47.8-.06,1.09a7.78,7.78,0,0,1-.77.37,3.9,3.9,0,0,0-.48.23,1.17,1.17,0,0,0-.3.21,2.88,2.88,0,0,1-.73.54,2.07,2.07,0,0,1-1.88,0C110.62,199.07,110.65,198.58,111.2,198.29Z" style="fill: #ffd46f"/>
          <path d="M160.21,177.24c.3-.26.38-.35.58-.55s.68-.7,1.46-1.38l1.37-1.13.85-.73c1-.84,2-1.43,2.37-1.29s-.14.94-1.08,1.8c-.65.59-1,.9-1.32,1.15l-.84.73c-.3.27-.39.36-.58.56a19.42,19.42,0,0,1-1.42,1.39c-1,.86-2,1.43-2.45,1.27S159.22,178.09,160.21,177.24Z" style="fill: #ffd46f"/>
          <path d="M136.46,199.22a5.46,5.46,0,0,0,.47-.44,9.58,9.58,0,0,1,1.17-1.11c.55-.46.88-.69,1.16-.89s.38-.28.73-.56a3,3,0,0,1,2.39-.85c.52.21.3.93-.48,1.61-.54.46-.87.7-1.13.89s-.38.29-.72.58a3.15,3.15,0,0,0-.45.45,10.2,10.2,0,0,1-1.14,1.11,3,3,0,0,1-2.46.83C135.43,200.61,135.64,199.89,136.46,199.22Z" style="fill: #ffd46f"/>
          <path d="M147.72,189.25a3.17,3.17,0,0,0,.45-.42,9.54,9.54,0,0,1,1.12-1.06c.52-.44.83-.67,1.09-.86l.69-.55c.77-.64,1.74-1,2.17-.84s.2.85-.55,1.5c-.51.45-.81.68-1.06.87l-.67.55a4.59,4.59,0,0,0-.44.43,8.84,8.84,0,0,1-1.08,1.07,2.8,2.8,0,0,1-2.24.84C146.71,190.58,147,189.9,147.72,189.25Z" style="fill: #ffd46f"/>
          <path d="M172.56,166.05a1.44,1.44,0,0,0,.25-.23,5.22,5.22,0,0,1,.61-.58c.29-.23.47-.36.61-.45l.38-.3a1.4,1.4,0,0,1,1.23-.39c.26.13.14.52-.28.87s-.45.37-.58.47-.19.14-.38.29a1.79,1.79,0,0,0-.24.24,7.1,7.1,0,0,1-.6.58,1.42,1.42,0,0,1-1.26.39C172,166.79,172.13,166.4,172.56,166.05Z" style="fill: #ffd46f"/>
        </g>
        <g>
          <path d="M243.12,214.07c-.84-2.43-1.13-3.24-1.76-5-.94-2.63-2.25-6.29-4.39-12.71-1.78-5.45-2.75-8.43-3.55-10.89-.64-1.95-1.14-3.46-2.26-6.91-1.33-4-2.44-7.63-3.21-10.26-.36-1.32-.65-2.38-.86-3.12s-.25-1.15-.18-1.15a22.43,22.43,0,0,1,1.86,4.19c1,2.6,2.39,6.2,3.83,10.19l3.86,10.83,2.46,6.9,1.89,5.07,4.75,12.61c3,8,4.75,14.6,4,14.71S245.84,222.15,243.12,214.07Z" style="fill: #ffd46f"/>
          <path d="M192,191.69c.45-1.35.59-1.8.92-2.81.46-1.45,1.1-3.49,2.33-7l2.12-6,1.34-3.82c.76-2.21,1.51-4.22,2.11-5.66A7.46,7.46,0,0,1,202,164c.29,0-.62,3.64-2,8.09l-1.94,6c-.36,1.14-.63,2-1.24,3.84-.41,1.38-.55,1.83-.85,2.84-.44,1.46-1,3.51-2.12,7.06-1.39,4.48-3,8-3.56,8S190.49,196.16,192,191.69Z" style="fill: #ffd46f"/>
          <path d="M180,227c.34-1,.44-1.31.65-2.05.3-1.06.73-2.54,1.64-5.13.81-2.19,1.26-3.38,1.63-4.37.28-.78.5-1.39,1-2.77,1.14-3.22,2.55-5.78,3.16-5.72s.28,2.73-.75,6c-.74,2.21-1.15,3.41-1.48,4.37l-.94,2.79c-.32,1-.42,1.33-.61,2.07-.26,1.06-.66,2.55-1.49,5.13-1,3.25-2.57,5.81-3.39,5.73S178.86,230.23,180,227Z" style="fill: #ffd46f"/>
          <path d="M172.41,208.44c-.27.5-.35.66-.52,1a26.23,26.23,0,0,1-1.28,2.62c-.62,1.11-1,1.71-1.31,2.2l-.82,1.4c-.91,1.63-2.23,2.86-2.92,2.7s-.5-1.59.46-3.21c.66-1.11,1-1.7,1.36-2.18s.43-.71.86-1.39a7.58,7.58,0,0,0,.54-1.05,27.08,27.08,0,0,1,1.37-2.59c1-1.63,2.2-2.84,2.79-2.71S173.32,206.79,172.41,208.44Z" style="fill: #ffd46f"/>
          <path d="M240.59,175.32l.67,1.21c.37.62.88,1.49,1.69,3l1.32,2.62c.24.47.42.84.84,1.66,1,1.92,1.44,3.56,1,3.66s-1.63-1.45-2.57-3.37l-1.24-2.62c-.24-.49-.41-.85-.8-1.67l-.65-1.22c-.35-.63-.83-1.51-1.59-3-1-1.95-1.44-3.52-1.11-3.6S239.57,173.38,240.59,175.32Z" style="fill: #ffd46f"/>
          <path d="M250.53,193.31a1.41,1.41,0,0,0,.19.35,4.13,4.13,0,0,1,.49.88,5.21,5.21,0,0,1,.27.77c0,.14.08.25.17.5a.8.8,0,0,1-.56,1.18,1.42,1.42,0,0,1-1.41-.9,5.21,5.21,0,0,1-.24-.77,2.25,2.25,0,0,0-.16-.49,1.1,1.1,0,0,0-.18-.36,3.7,3.7,0,0,1-.46-.88.79.79,0,0,1,.53-1.15A1.39,1.39,0,0,1,250.53,193.31Z" style="fill: #ffd46f"/>
          <path d="M203.58,204.81c.15-1.21.2-1.61.3-2.51.13-1.3.32-3.12.76-6.29.41-2.69.64-4.16.82-5.38l.5-3.41c.56-3.95,1.34-7.16,1.74-7.15s.39,3.24,0,7.2c-.33,2.71-.51,4.19-.65,5.37-.13,1-.22,1.75-.42,3.43-.12,1.22-.15,1.63-.24,2.53-.09,1.3-.23,3.12-.58,6.28-.44,4-1.34,7.19-2,7.17S203,208.8,203.58,204.81Z" style="fill: #ffd46f"/>
          <path d="M208.21,171.26a4,4,0,0,0,.06-.51,9.63,9.63,0,0,1,.16-1.25c.12-.53.18-.82.23-1.06l.14-.68c.15-.78.51-1.39.81-1.37s.46.68.34,1.46c-.1.54-.15.83-.2,1.07s-.06.34-.12.67a2.54,2.54,0,0,0,0,.5,11.07,11.07,0,0,1-.12,1.25c-.13.8-.52,1.41-.88,1.38S208.06,172,208.21,171.26Z" style="fill: #ffd46f"/>
          <path d="M201.51,220.64a.59.59,0,0,0,0-.28,1.42,1.42,0,0,1,.08-.68,2.48,2.48,0,0,1,.28-.57,3.21,3.21,0,0,0,.17-.36c.14-.42.83-.72,1.52-.67s1.16.45,1,.87a2.87,2.87,0,0,1-.25.58,1.23,1.23,0,0,0-.16.36.38.38,0,0,0,0,.27,1.41,1.41,0,0,1-.07.69c-.14.42-.84.72-1.56.67S201.36,221.07,201.51,220.64Z" style="fill: #ffd46f"/>
          <path d="M220.26,186.48a3.82,3.82,0,0,0-.07-.66,11.39,11.39,0,0,1-.18-1.62c0-.7,0-1.07,0-1.39s0-.44,0-.88c-.05-1,.23-1.85.64-1.85s.83.83.92,1.85c0,.7.06,1.08.07,1.39s0,.45,0,.88a4.43,4.43,0,0,0,.09.65,11.64,11.64,0,0,1,.22,1.62c.08,1-.25,1.86-.72,1.86S220.31,187.51,220.26,186.48Z" style="fill: #ffd46f"/>
          <path d="M222.83,212.54a1.6,1.6,0,0,0-.07-.52,6,6,0,0,1-.14-1.31,7.05,7.05,0,0,1,.06-1.11,6.24,6.24,0,0,0,0-.71c0-.82.49-1.5,1.1-1.5a1.42,1.42,0,0,1,1.2,1.49,6.7,6.7,0,0,1,0,1.11c0,.21,0,.36,0,.71a1.64,1.64,0,0,0,.08.53,5.25,5.25,0,0,1,.18,1.3,1.33,1.33,0,0,1-1.17,1.5A1.36,1.36,0,0,1,222.83,212.54Z" style="fill: #ffd46f"/>
          <path d="M222.07,200.56a2.28,2.28,0,0,0-.06-.5,6,6,0,0,1-.15-1.25,8.88,8.88,0,0,1,0-1.07,6.76,6.76,0,0,0,0-.68c0-.78.4-1.42.93-1.42s1,.64,1,1.43a7.16,7.16,0,0,1,0,1.06c0,.2,0,.35,0,.68a1.72,1.72,0,0,0,.07.5,5.61,5.61,0,0,1,.18,1.25c0,.79-.41,1.43-1,1.43S222.08,201.35,222.07,200.56Z" style="fill: #ffd46f"/>
          <path d="M219.18,173.13a1,1,0,0,0,0-.28,3.69,3.69,0,0,1-.07-.68,3.49,3.49,0,0,1,0-.58c0-.11,0-.19,0-.37,0-.43.27-.75.61-.73a.82.82,0,0,1,.65.83c0,.29,0,.45,0,.58s0,.18,0,.36a1.14,1.14,0,0,0,0,.28,2.57,2.57,0,0,1,.1.68.66.66,0,0,1-.65.73A.78.78,0,0,1,219.18,173.13Z" style="fill: #ffd46f"/>
        </g>
        <g>
          <path d="M323.76,187.33l-6.43-3.47c-3.37-1.79-8.06-4.29-16.14-8.73l-13.67-7.56-8.67-4.8c-5-2.77-9.55-5.32-12.78-7.19l-3.81-2.22a6.22,6.22,0,0,1-1.3-.88,54.67,54.67,0,0,1,5.66,2.73c3.41,1.75,8.09,4.18,13.21,6.91l13.86,7.41,8.83,4.72,6.56,3.45,16.35,8.54c10.38,5.46,18.29,10.14,17.75,10.5S334,192.91,323.76,187.33Z" style="fill: #ffd46f"/>
          <path d="M260.3,187l-2-2.59c-1.08-1.34-2.57-3.22-5.1-6.52-2.12-2.81-3.29-4.34-4.24-5.61-.77-1-1.36-1.78-2.7-3.55-1.58-2.06-2.94-4-3.9-5.32s-1.48-2.24-1.35-2.28,3.12,3.18,6.4,7.26l4.4,5.56c.83,1,1.43,1.79,2.8,3.54l2.12,2.59,5.27,6.45c3.31,4.12,5.55,7.55,5,7.7S263.47,191.2,260.3,187Z" style="fill: #ffd46f"/>
          <path d="M285.5,219.8c-.68-.92-.94-1.21-1.49-1.88-.81-1-1.94-2.32-3.75-4.73l-3-4.1c-.55-.73-1-1.3-1.92-2.59-2.27-3-3.66-5.57-3.1-5.73s2.94,2.13,5.31,5.1l3.13,4.06,2,2.58c.72.93,1,1.22,1.55,1.89.84,1,2,2.3,3.87,4.67,2.38,3,3.67,5.59,2.92,5.81S287.79,222.83,285.5,219.8Z" style="fill: #ffd46f"/>
          <path d="M261,207.45a10.55,10.55,0,0,0,.61,1c.34.52.83,1.26,1.54,2.56.61,1.12.89,1.73,1.13,2.24l.72,1.42c.88,1.63,1,3.08.32,3.22s-1.95-1.08-2.79-2.72c-.56-1.13-.84-1.75-1.05-2.25s-.36-.72-.69-1.42a9.08,9.08,0,0,0-.6-1,28.91,28.91,0,0,1-1.45-2.57c-.85-1.66-1.05-3.09-.46-3.21S260.1,205.8,261,207.45Z" style="fill: #ffd46f"/>
          <path d="M283.33,156.87l1.74.74c.91.38,2.19.9,4.37,1.87l3.65,1.65,2.32,1.05c2.71,1.2,4.67,2.37,4.36,2.6s-2.71-.58-5.38-1.81l-3.6-1.69-2.31-1.08-1.73-.76c-.9-.38-2.16-.93-4.29-1.9-2.7-1.24-4.7-2.37-4.48-2.54S280.59,155.66,283.33,156.87Z" style="fill: #ffd46f"/>
          <path d="M309.19,168a3.34,3.34,0,0,0,.5.22,10.91,10.91,0,0,1,1.26.53,11.1,11.1,0,0,1,1,.54l.63.34c.74.37,1,.88.67,1.13a2.35,2.35,0,0,1-2-.23c-.5-.26-.76-.41-1-.54a6.48,6.48,0,0,0-.61-.34,4.31,4.31,0,0,0-.51-.23,10.51,10.51,0,0,1-1.24-.54c-.74-.39-1.06-.89-.71-1.13A2.51,2.51,0,0,1,309.19,168Z" style="fill: #ffd46f"/>
          <path d="M282.65,193.67l-2.24-2.14c-1.18-1.09-2.84-2.63-5.61-5.35l-4.67-4.64-3-2.93c-3.47-3.4-6-6.25-5.66-6.37s3.53,2.5,7.11,5.85l4.79,4.58,3.06,2.91,2.31,2.13c1.22,1.09,2.91,2.61,5.76,5.28,3.61,3.39,6,6.29,5.47,6.49S286.14,197.1,282.65,193.67Z" style="fill: #ffd46f"/>
          <path d="M253.16,164.91a4.35,4.35,0,0,0-.44-.43,14.28,14.28,0,0,1-1.11-1.06l-.86-.94-.56-.6c-.66-.68-1-1.3-.7-1.37s1.06.41,1.74,1.08l.9.93c.16.17.28.3.57.59a5.37,5.37,0,0,0,.45.42,14.46,14.46,0,0,1,1.14,1.05c.68.69,1,1.31.65,1.41S253.82,165.6,253.16,164.91Z" style="fill: #ffd46f"/>
          <path d="M296.66,207.2a1.39,1.39,0,0,0-.25-.24,2.21,2.21,0,0,1-.61-.58,2.47,2.47,0,0,1-.33-.55,4.09,4.09,0,0,0-.22-.35c-.3-.39,0-.87.59-1a1.71,1.71,0,0,1,1.71.36,2.64,2.64,0,0,1,.35.54,1.85,1.85,0,0,0,.23.35.94.94,0,0,0,.25.24,2.46,2.46,0,0,1,.63.57c.3.4,0,.87-.63,1.07A1.66,1.66,0,0,1,296.66,207.2Z" style="fill: #ffd46f"/>
          <path d="M278.07,173.11c-.32-.24-.44-.32-.7-.5s-.91-.6-1.76-1.25l-1.4-1.11-.89-.71c-1.05-.81-1.66-1.59-1.36-1.74s1.46.36,2.54,1.15c.75.55,1.13.86,1.44,1.1l.91.7c.34.25.46.33.72.5s.93.59,1.79,1.23c1.09.8,1.67,1.61,1.3,1.79S279.14,173.93,278.07,173.11Z" style="fill: #ffd46f"/>
          <path d="M306,193.28a3.84,3.84,0,0,0-.56-.39,13.53,13.53,0,0,1-1.42-1c-.56-.45-.83-.71-1.06-.92s-.32-.3-.67-.59c-.83-.66-1.11-1.38-.63-1.62a2.88,2.88,0,0,1,2.4.76c.57.45.86.7,1.09.91s.34.3.7.58a3.38,3.38,0,0,0,.58.4,11.17,11.17,0,0,1,1.44,1c.84.66,1.1,1.4.58,1.65A2.78,2.78,0,0,1,306,193.28Z" style="fill: #ffd46f"/>
          <path d="M293.5,183.86a4.56,4.56,0,0,0-.54-.38,13.53,13.53,0,0,1-1.36-1c-.55-.43-.81-.68-1-.88l-.66-.56c-.8-.63-1.12-1.3-.71-1.5s1.41.14,2.23.77a13.08,13.08,0,0,1,1.06.87c.19.16.34.28.68.54a3.08,3.08,0,0,0,.56.38,14.35,14.35,0,0,1,1.38,1c.82.62,1.11,1.32.66,1.53A2.74,2.74,0,0,1,293.5,183.86Z" style="fill: #ffd46f"/>
          <path d="M263.94,162.7a2.06,2.06,0,0,0-.29-.21,6.37,6.37,0,0,1-.74-.53c-.29-.24-.43-.37-.55-.48l-.35-.31c-.43-.35-.55-.72-.27-.83a1.66,1.66,0,0,1,1.3.42c.3.23.45.37.57.47l.36.31a1.56,1.56,0,0,0,.3.2,7.74,7.74,0,0,1,.75.52c.44.35.54.73.25.85A1.58,1.58,0,0,1,263.94,162.7Z" style="fill: #ffd46f"/>
        </g>
        <g>
          <path d="M362.65,137.6l-8.65-.55c-4.5-.28-10.78-.66-21.72-1.42l-18.56-1.34L302,133.45c-6.83-.48-13-1-17.46-1.34l-5.26-.47a12.38,12.38,0,0,1-1.91-.25,11.24,11.24,0,0,1,2,0l5.34.23c4.5.22,10.71.55,17.54,1l18.56,1.15,11.82.72,8.73.49L363,136.14c13.82.79,24.84,1.8,24.73,2.28S376.43,138.55,362.65,137.6Z" style="fill: #ffd46f"/>
          <path d="M311,159.52l-4.21-1.39c-2.2-.71-5.27-1.71-10.58-3.5l-9-3.07-5.7-1.94c-6.61-2.24-11.86-4.17-11.71-4.31s5.71,1.5,12.4,3.67l9.06,3c1.7.56,2.93,1,5.77,1.89l4.27,1.37L312,158.59c6.76,2.18,11.94,4.18,11.64,4.47S317.66,161.79,311,159.52Z" style="fill: #ffd46f"/>
          <path d="M363.77,177.27c-1.46-.5-2-.66-3.07-1-1.61-.5-3.87-1.21-7.71-2.53l-6.49-2.26L342.38,170c-4.8-1.64-8.43-3.22-8.11-3.54s4.53.72,9.38,2.3l6.54,2.19,4.17,1.4c1.5.49,2,.65,3.12,1,1.63.49,3.9,1.17,7.76,2.44,4.89,1.61,8.48,3.25,8.05,3.68S368.61,178.93,363.77,177.27Z" style="fill: #ffd46f"/>
          <path d="M331.74,175.8c.71.31,1,.4,1.51.61.8.31,1.92.73,3.79,1.54,1.59.69,2.43,1.09,3.12,1.42l2,.89c2.33,1,3.85,2.13,3.4,2.48s-2.68-.21-5-1.25c-1.58-.72-2.41-1.12-3.08-1.45l-2-.91c-.71-.32-.95-.42-1.49-.63-.8-.31-1.91-.75-3.74-1.58-2.32-1-3.88-2.13-3.49-2.42S329.39,174.78,331.74,175.8Z" style="fill: #ffd46f"/>
          <path d="M299.82,127.1H302c1.11,0,2.66,0,5.38,0l4.59.06,2.91,0c3.38,0,6.09.29,6.06.58s-2.81.49-6.19.42l-4.58-.11-2.92-.06-2.16,0c-1.11,0-2.67,0-5.36,0-3.41-.06-6.13-.28-6.09-.49S296.41,127.08,299.82,127.1Z" style="fill: #ffd46f"/>
          <path d="M331.74,127.05a6,6,0,0,0,.62,0,15.47,15.47,0,0,1,1.56,0c.66,0,1,.06,1.31.09l.83.05c1,0,1.7.35,1.63.69s-.91.56-1.88.51c-.67,0-1-.07-1.31-.1l-.83-.07c-.31,0-.4,0-.63,0a13.37,13.37,0,0,1-1.55,0c-1,0-1.71-.34-1.64-.66S330.76,127,331.74,127.05Z" style="fill: #ffd46f"/>
          <path d="M335.72,157.12l-3.92-.94c-2-.48-4.9-1.14-9.84-2.38l-8.36-2.13-5.32-1.34c-6.16-1.55-11-3-10.92-3.2s5.29.78,11.5,2.25l8.41,2,5.36,1.29,4,.92c2.06.46,4.93,1.1,9.88,2.27,6.27,1.49,11.12,3,10.89,3.36S341.94,158.68,335.72,157.12Z" style="fill: #ffd46f"/>
          <path d="M283.4,144.1l-.78-.19c-.41-.09-1-.21-1.95-.47-.81-.24-1.26-.36-1.63-.46l-1-.29c-1.21-.33-2.1-.72-2-.88a5,5,0,0,1,2.44.26l1.64.44,1,.28.79.18c.41.09,1,.21,2,.46,1.24.32,2.11.73,2,.92S284.63,144.43,283.4,144.1Z" style="fill: #ffd46f"/>
          <path d="M360.43,163.2a2.63,2.63,0,0,0-.43-.1,6.44,6.44,0,0,1-1.07-.26,8.74,8.74,0,0,1-.82-.33c-.15-.06-.26-.12-.53-.21-.63-.22-.9-.7-.61-1.07a1.65,1.65,0,0,1,1.7-.31,7,7,0,0,1,.84.32,4.41,4.41,0,0,0,.53.2,1.63,1.63,0,0,0,.43.1,5.23,5.23,0,0,1,1.08.25c.64.21.91.71.6,1.1A1.64,1.64,0,0,1,360.43,163.2Z" style="fill: #ffd46f"/>
          <path d="M311.42,142l-1.06-.16c-.56-.07-1.33-.17-2.66-.4l-2.24-.41-1.42-.26c-1.66-.28-2.9-.7-2.78-.93s1.57-.21,3.24.06c1.14.18,1.75.29,2.25.38l1.43.25,1.07.15c.56.06,1.34.16,2.67.37,1.67.27,2.91.72,2.77,1S313.09,142.33,311.42,142Z" style="fill: #ffd46f"/>
          <path d="M354,148.62a6.84,6.84,0,0,0-.85-.13c-.45-.05-1.08-.12-2.14-.32-.9-.17-1.38-.28-1.78-.38s-.56-.13-1.13-.23c-1.32-.25-2.24-.74-2.06-1.09s1.41-.45,2.73-.22c.91.16,1.39.27,1.78.35s.58.13,1.14.23.55.09.86.12a19.45,19.45,0,0,1,2.14.3c1.34.23,2.26.74,2.07,1.13S355.33,148.87,354,148.62Z" style="fill: #ffd46f"/>
          <path d="M334.56,145.36a6.24,6.24,0,0,0-.82-.12c-.43-.06-1-.12-2.06-.3-.86-.17-1.32-.27-1.7-.36l-1.09-.22c-1.26-.23-2.16-.66-2-1s1.32-.37,2.6-.15c.87.15,1.34.25,1.72.33l1.08.21.82.11c.44,0,1.05.1,2.06.28,1.29.22,2.18.68,2,1S335.83,145.59,334.56,145.36Z" style="fill: #ffd46f"/>
          <path d="M289.68,138.55l-.45-.07c-.23,0-.56-.06-1.12-.17s-.71-.15-.92-.2l-.58-.12c-.69-.13-1.13-.39-1-.57s.82-.23,1.5-.11l.93.19.59.12c.21,0,.28,0,.45.06a11.13,11.13,0,0,1,1.12.16c.69.12,1.14.39,1,.59S290.38,138.68,289.68,138.55Z" style="fill: #ffd46f"/>
        </g>
        <path d="M357.6,125.51c.88,0,1.17,0,1.83,0,.94,0,2.27-.08,4.59-.08,2,0,3,0,3.93.06l2.49,0c2.89,0,5.26.38,5.28.81s-2.31.77-5.21.73c-2,0-3.05-.06-3.92-.1l-2.5,0c-.9,0-1.19,0-1.85,0-.94,0-2.27,0-4.57,0-2.92,0-5.28-.37-5.3-.74S354.68,125.5,357.6,125.51Z" style="fill: #ffd46f"/>
        <g>
          <path d="M128.73,126.94H126.6c-1.12,0-2.68,0-5.39,0l-4.59-.06-2.91,0c-3.38,0-6.09-.29-6.06-.58s2.81-.48,6.19-.42l4.58.11,2.92.06,2.16,0c1.11,0,2.67,0,5.36,0,3.41.05,6.13.27,6.09.49S132.15,127,128.73,126.94Z" style="fill: #ffd46f"/>
          <path d="M96.82,127a4.24,4.24,0,0,0-.62,0,15.47,15.47,0,0,1-1.56,0c-.66,0-1-.06-1.31-.09l-.83,0c-1,0-1.7-.35-1.64-.68s.92-.57,1.89-.52c.67,0,1,.07,1.31.1s.42,0,.83.07a4.38,4.38,0,0,0,.63,0c.32,0,.78,0,1.55,0,1,0,1.71.34,1.64.66S97.8,127,96.82,127Z" style="fill: #ffd46f"/>
        </g>
      </g>
      <g>
        <g>
          <path d="M83.73,79.11l7.55,3c3.9,1.55,9.35,3.7,19,7.37l16.33,6.2,10.36,3.93c6,2.28,11.48,4.3,15.46,5.74l4.75,1.68a9.51,9.51,0,0,0,1.82.54,57.31,57.31,0,0,0-6.11-2.69c-3.85-1.6-9.19-3.77-15.13-6.13l-16.15-6.36-10.29-4.06-7.54-3L85,77.66c-12-4.8-21.9-8.28-22.32-7.8S71.65,74.47,83.73,79.11Z" style="fill: #ffd46f"/>
          <path d="M103.83,120.19c2.31.19,3.07.26,4.79.39,2.48.22,5.95.52,12,1l10.31.75,6.54.48c3.78.28,7.22.5,9.72.63a24.1,24.1,0,0,0,4.09.06c0-.19-6-.89-13.6-1.55l-10.26-.87-6.55-.56-4.81-.44-12-1.12c-7.63-.67-13.83-.89-13.92-.5S96.19,119.62,103.83,120.19Z" style="fill: #ffd46f"/>
          <path d="M43.55,115.54c1.68.12,2.23.18,3.48.3,1.8.18,4.31.43,8.73.74l7.5.49,4.75.32c5.52.4,10.06.38,10.15,0s-4.3-1.15-9.79-1.62l-7.48-.58-4.76-.37c-1.7-.14-2.25-.2-3.5-.34-1.79-.2-4.3-.47-8.68-.84-5.55-.47-10.11-.38-10.23.18S38,115.15,43.55,115.54Z" style="fill: #ffd46f"/>
          <path d="M71,127c-.88,0-1.17,0-1.83,0-.95,0-2.26-.1-4.59-.09-2,0-3,0-3.93.06l-2.49,0c-2.89,0-5.26.43-5.27.93s2.31.88,5.19.83c2,0,3.07-.06,3.93-.1l2.5-.06c.9,0,1.19,0,1.84,0,1,0,2.28.07,4.58,0,2.92,0,5.28-.43,5.3-.85S73.88,127,71,127Z" style="fill: #ffd46f"/>
          <path d="M145.07,94.59l-1.73-.86c-.89-.46-2.12-1.1-4.33-2.17l-3.78-1.79-2.39-1.14c-2.76-1.33-5.25-2.19-5.53-1.92s1.74,1.55,4.54,2.85l3.82,1.74,2.43,1.11,1.75.85c.9.46,2.15,1.08,4.37,2.12,2.83,1.31,5.26,2.21,5.47,2S147.85,95.94,145.07,94.59Z" style="fill: #ffd46f"/>
          <path d="M119.32,81.74a2.57,2.57,0,0,1-.5-.25,11.2,11.2,0,0,0-1.25-.63c-.57-.24-.89-.35-1.16-.44l-.73-.29c-.83-.35-1.75-.37-2.06,0s.13.87,1,1.22c.58.23.9.34,1.17.43s.38.13.74.28a5.16,5.16,0,0,1,.51.24,8.49,8.49,0,0,0,1.26.62c.85.34,1.76.38,2,.08S120.16,82.1,119.32,81.74Z" style="fill: #ffd46f"/>
          <path d="M86.32,108.07l4.11.69c2.13.37,5.1.9,10.33,1.73l8.87,1.37,5.62.88c6.52,1,11.89,1.65,12,1.4s-5.08-1.4-11.56-2.52l-8.83-1.48-5.61-.94-4.13-.74c-2.12-.39-5.08-.95-10.24-1.84-6.56-1.13-12-1.67-12.11-1.23S79.75,107,86.32,108.07Z" style="fill: #ffd46f"/>
          <path d="M141.55,116.92c.39,0,.52.08.81.13s1,.19,2,.34l1.78.23,1.13.14c1.29.19,2.39.17,2.44,0s-1-.53-2.26-.73l-1.76-.25-1.12-.16c-.4-.06-.53-.09-.82-.15s-1-.2-2-.36c-1.31-.2-2.41-.16-2.47.08S140.23,116.74,141.55,116.92Z" style="fill: #ffd46f"/>
          <path d="M60.31,103.83a1.62,1.62,0,0,1,.44.07,6.13,6.13,0,0,0,1.13.19,8.41,8.41,0,0,0,1,0c.18,0,.32,0,.63,0a1.42,1.42,0,0,0,1.53-.75c.12-.48-.37-.92-1.09-1-.49,0-.77,0-1,0a4.92,4.92,0,0,1-.63,0,1.58,1.58,0,0,1-.45-.08,5.75,5.75,0,0,0-1.12-.2,1.44,1.44,0,0,0-1.54.78C59.08,103.34,59.58,103.77,60.31,103.83Z" style="fill: #ffd46f"/>
          <path d="M120.79,103.75c.49.13.65.17,1,.28.52.15,1.25.38,2.55.69l2.22.51,1.4.33c1.62.4,3,.51,3.15.25s-1.1-.83-2.7-1.26c-1.11-.28-1.71-.42-2.2-.53l-1.4-.35c-.5-.13-.66-.17-1-.29-.52-.16-1.24-.39-2.52-.72-1.63-.42-3-.5-3.19-.19S119.15,103.36,120.79,103.75Z" style="fill: #ffd46f"/>
          <path d="M79.82,92.81a7.39,7.39,0,0,1,.81.22,19.81,19.81,0,0,0,2.05.57c.9.2,1.4.28,1.81.35s.58.11,1.15.24c1.31.29,2.53.21,2.72-.19s-.71-1-2-1.31c-.89-.22-1.39-.31-1.79-.38s-.58-.12-1.14-.25a5.7,5.7,0,0,1-.82-.23,18,18,0,0,0-2-.58c-1.32-.32-2.55-.21-2.77.23S78.49,92.51,79.82,92.81Z" style="fill: #ffd46f"/>
          <path d="M98.77,97.57a5.27,5.27,0,0,1,.78.21,19.93,19.93,0,0,0,2,.54c.86.2,1.33.29,1.73.36s.55.1,1.09.23c1.25.29,2.4.25,2.55-.09s-.73-.89-2-1.19c-.85-.22-1.32-.31-1.7-.39s-.56-.11-1.09-.24a5,5,0,0,1-.78-.23c-.39-.13-1-.31-1.94-.55-1.26-.31-2.41-.25-2.59.13S97.5,97.28,98.77,97.57Z" style="fill: #ffd46f"/>
          <path d="M141.82,109.21l.44.12a10.23,10.23,0,0,0,1.07.29l.94.18.59.12c.68.15,1.28.09,1.34-.14s-.46-.55-1.14-.71c-.46-.11-.72-.16-.92-.19l-.59-.13-.43-.12a8.21,8.21,0,0,0-1.07-.3c-.68-.16-1.29-.09-1.35.15S141.13,109.06,141.82,109.21Z" style="fill: #ffd46f"/>
        </g>
        <g>
          <path d="M151.45,36.33c1.71,2.6,2.29,3.47,3.57,5.4,1.83,2.82,4.4,6.75,9,13.57l7.9,11.54,5,7.33c2.89,4.25,5.58,8.07,7.57,10.83l2.4,3.25a5.31,5.31,0,0,0,1,1.15c.07,0-.16-.48-.62-1.28l-2-3.37c-1.74-2.83-4.2-6.74-7-11l-7.6-11.61c-1.43-2.2-2.46-3.77-4.84-7.41-1.69-2.65-2.25-3.52-3.49-5.48L153.7,35.6c-5.55-8.67-10.6-15.45-11.34-15.22S145.65,27.73,151.45,36.33Z" style="fill: #ffd46f"/>
          <path d="M132.35,77.62c1.7,1.08,2.27,1.43,3.53,2.24,1.82,1.17,4.36,2.81,8.88,5.62l7.68,4.74,4.87,3c5.63,3.5,10.35,6.22,10.54,6.08s-4.16-3.16-9.69-6.74l-7.54-4.82-4.81-3.07-3.5-2.29-8.71-5.71c-5.59-3.61-10.39-6.27-10.78-6S126.67,74.08,132.35,77.62Z" style="fill: #ffd46f"/>
          <path d="M87.65,49.65c1.25.78,1.65,1.05,2.55,1.64,1.3.87,3.12,2.08,6.42,4.11l5.64,3.41L105.82,61c4.11,2.54,7.78,4.34,8.19,4s-2.51-2.68-6.55-5.26l-5.53-3.48-3.53-2.2c-1.25-.8-1.65-1.07-2.54-1.68-1.27-.88-3.07-2.11-6.29-4.17-4.08-2.61-7.82-4.35-8.39-3.93S83.49,47.11,87.65,49.65Z" style="fill: #ffd46f"/>
          <path d="M99.88,69.9c-.71-.35-.94-.47-1.45-.76-.73-.41-1.76-1-3.63-1.92-1.59-.78-2.49-1.19-3.23-1.52l-2-1c-2.34-1.15-4.6-1.75-5-1.34S85.62,65,88,66.17c1.63.76,2.53,1.16,3.26,1.48l2.07,1a15.3,15.3,0,0,1,1.48.75c.74.4,1.79,1,3.67,1.86,2.4,1.14,4.62,1.77,5,1.43S102.24,71.07,99.88,69.9Z" style="fill: #ffd46f"/>
          <path d="M187.72,73.32c-.31-.67-.41-.89-.65-1.39-.33-.73-.77-1.74-1.63-3.49-.76-1.49-1.18-2.29-1.52-3l-1-1.88c-1.08-2.18-2.34-3.85-2.8-3.73s.1,2,1.25,4.15L183,67c.3.56.51,1,1,1.87.33.68.44.91.69,1.4.33.72.81,1.73,1.72,3.46,1.15,2.2,2.33,3.89,2.66,3.79S188.81,75.53,187.72,73.32Z" style="fill: #ffd46f"/>
          <path d="M178,52.61a2.32,2.32,0,0,1-.19-.4,4.64,4.64,0,0,0-.46-1c-.26-.42-.42-.63-.56-.82s-.17-.26-.35-.51a1.55,1.55,0,0,0-1.6-.83c-.52.16-.63.78-.24,1.39a6.86,6.86,0,0,0,.57.82c.11.15.19.26.35.52a1.48,1.48,0,0,1,.2.4,5.21,5.21,0,0,0,.5,1,1.6,1.6,0,0,0,1.56.84C178.22,53.85,178.32,53.23,178,52.61Z" style="fill: #ffd46f"/>
          <path d="M128.58,60.74l2.73,2.2c1.4,1.16,3.35,2.78,6.86,5.54l6,4.67,3.78,3c4.38,3.45,8.17,6.09,8.46,5.91s-2.93-3.19-7.21-6.69l-5.86-4.73c-1.1-.9-1.9-1.53-3.73-3l-2.7-2.26c-1.37-1.17-3.29-2.81-6.71-5.6-4.32-3.54-8.2-6.13-8.69-5.83S124.16,57.26,128.58,60.74Z" style="fill: #ffd46f"/>
          <path d="M165.61,90c.27.21.35.27.54.44s.66.56,1.37,1.09l1.24.9.78.56c.89.67,1.78,1.08,2,.93s-.34-.85-1.21-1.53l-1.2-.9c-.23-.17-.4-.29-.77-.58a6.41,6.41,0,0,1-.55-.45c-.26-.23-.63-.56-1.34-1.1-.88-.68-1.79-1.08-2-.9S164.7,89.36,165.61,90Z" style="fill: #ffd46f"/>
          <path d="M111.2,46.87a1.31,1.31,0,0,1,.3.24,3,3,0,0,0,.74.6,5.07,5.07,0,0,0,.79.41c.14.08.26.13.49.27a1.81,1.81,0,0,0,1.84,0,.69.69,0,0,0-.06-1.24,5.78,5.78,0,0,0-.77-.43,3.73,3.73,0,0,1-.48-.27,1,1,0,0,1-.3-.24,2.85,2.85,0,0,0-.73-.61,1.81,1.81,0,0,0-1.88,0A.7.7,0,0,0,111.2,46.87Z" style="fill: #ffd46f"/>
          <path d="M160.21,71.05c.3.3.38.41.58.63s.68.81,1.46,1.59l1.37,1.3.85.83c1,1,2,1.64,2.37,1.49s-.14-1.09-1.08-2.07c-.65-.68-1-1-1.32-1.32l-.84-.84c-.3-.31-.39-.41-.58-.64a21.31,21.31,0,0,0-1.42-1.6c-1-1-2-1.64-2.45-1.46S159.22,70.08,160.21,71.05Z" style="fill: #ffd46f"/>
          <path d="M136.46,45.81a5,5,0,0,1,.47.5,10.79,10.79,0,0,0,1.17,1.28c.55.52.88.79,1.16,1s.38.31.73.64c.81.77,1.88,1.2,2.39,1s.3-1.06-.48-1.84c-.54-.53-.87-.81-1.13-1s-.38-.33-.72-.66a3.64,3.64,0,0,1-.45-.51,9.87,9.87,0,0,0-1.14-1.28,2.73,2.73,0,0,0-2.46-1C135.43,44.2,135.64,45,136.46,45.81Z" style="fill: #ffd46f"/>
          <path d="M147.72,57.25a4.5,4.5,0,0,1,.45.49A11,11,0,0,0,149.29,59c.52.5.83.76,1.09,1l.69.63c.76.74,1.74,1.17,2.17,1s.2-1-.55-1.72a14.4,14.4,0,0,0-1.06-1c-.2-.19-.35-.32-.67-.64a4.26,4.26,0,0,1-.44-.49,10.35,10.35,0,0,0-1.08-1.23c-.76-.75-1.77-1.18-2.24-1S147,56.5,147.72,57.25Z" style="fill: #ffd46f"/>
          <path d="M172.56,83.9a1.94,1.94,0,0,1,.25.27,5.29,5.29,0,0,0,.61.67c.29.27.47.41.61.52l.38.34c.42.4,1,.6,1.23.45s.14-.6-.28-1-.45-.42-.58-.53l-.38-.34a1.79,1.79,0,0,1-.24-.27,6,6,0,0,0-.6-.67c-.42-.41-1-.6-1.26-.45S172.13,83.5,172.56,83.9Z" style="fill: #ffd46f"/>
        </g>
        <g>
          <path d="M243.12,28.75c-.84,2.79-1.13,3.72-1.76,5.8-.94,3-2.25,7.22-4.39,14.6l-3.55,12.5c-.64,2.25-1.14,4-2.26,7.94-1.33,4.6-2.44,8.77-3.21,11.79-.36,1.51-.65,2.74-.86,3.59s-.25,1.31-.18,1.32a27.82,27.82,0,0,0,1.86-4.82c1-3,2.39-7.12,3.83-11.7,2-6.29,3-9.7,3.86-12.45.73-2.34,1.25-4,2.46-7.92.92-2.82,1.22-3.76,1.89-5.83,1-3,2.36-7.2,4.75-14.48,3-9.24,4.75-16.77,4-16.9S245.84,19.47,243.12,28.75Z" style="fill: #ffd46f"/>
          <path d="M192,54.45c.45,1.55.59,2.07.92,3.23.46,1.67,1.1,4,2.33,8.09,1.06,3.47,1.64,5.36,2.12,6.92l1.34,4.39c.76,2.55,1.51,4.85,2.11,6.51A9.08,9.08,0,0,0,202,86.26c.29,0-.62-4.18-2-9.29L198.07,70c-.36-1.31-.63-2.25-1.24-4.41L196,62.37c-.44-1.68-1-4-2.12-8.11-1.39-5.15-3-9.25-3.56-9.19S190.49,49.31,192,54.45Z" style="fill: #ffd46f"/>
          <path d="M180,13.91c.34,1.12.44,1.5.65,2.35.3,1.22.73,2.92,1.64,5.89.81,2.51,1.26,3.88,1.63,5,.28.9.5,1.59,1,3.18,1.14,3.7,2.55,6.64,3.16,6.58s.28-3.14-.75-6.85c-.74-2.54-1.15-3.91-1.48-5-.28-.94-.48-1.62-.94-3.2-.32-1.14-.42-1.52-.61-2.37-.26-1.23-.66-2.94-1.49-5.9-1-3.74-2.57-6.67-3.39-6.58S178.86,10.18,180,13.91Z" style="fill: #ffd46f"/>
          <path d="M172.41,35.21c-.27-.57-.35-.76-.52-1.19a30,30,0,0,0-1.29-3c-.61-1.27-1-2-1.3-2.53l-.82-1.6c-.91-1.88-2.23-3.29-2.92-3.11s-.5,1.83.46,3.69c.66,1.27,1,2,1.36,2.5s.43.82.86,1.6a10,10,0,0,1,.54,1.2,31.44,31.44,0,0,0,1.37,3c1,1.88,2.2,3.26,2.79,3.11S173.32,37.11,172.41,35.21Z" style="fill: #ffd46f"/>
          <path d="M240.59,73.26l.67-1.39c.37-.72.88-1.71,1.69-3.48.66-1.5,1-2.33,1.32-3l.84-1.91c1-2.2,1.44-4.08,1-4.2s-1.63,1.66-2.57,3.87l-1.24,3c-.24.57-.41,1-.8,1.92-.31.68-.42.9-.65,1.4-.35.72-.83,1.73-1.59,3.49-1,2.24-1.44,4-1.11,4.14S239.57,75.48,240.59,73.26Z" style="fill: #ffd46f"/>
          <path d="M250.53,52.59a1.87,1.87,0,0,1,.19-.4,5,5,0,0,0,.49-1,6.1,6.1,0,0,0,.27-.89c0-.16.08-.29.17-.56.23-.65,0-1.27-.56-1.37a1.44,1.44,0,0,0-1.41,1,6.2,6.2,0,0,0-.24.89,3.2,3.2,0,0,1-.16.56,1.24,1.24,0,0,1-.18.4,4.9,4.9,0,0,0-.46,1c-.22.65,0,1.21.53,1.32A1.38,1.38,0,0,0,250.53,52.59Z" style="fill: #ffd46f"/>
          <path d="M203.58,39.39c.15,1.38.2,1.84.3,2.87.13,1.5.32,3.58.76,7.23.41,3.1.64,4.78.82,6.18.14,1.11.25,2,.5,3.92.56,4.54,1.34,8.22,1.74,8.21s.39-3.72,0-8.27c-.33-3.12-.51-4.81-.65-6.17-.13-1.17-.22-2-.42-3.94-.12-1.4-.15-1.87-.24-2.9-.09-1.5-.23-3.59-.58-7.21-.44-4.6-1.34-8.27-2-8.24S203,34.8,203.58,39.39Z" style="fill: #ffd46f"/>
          <path d="M208.21,77.93a4.62,4.62,0,0,1,.06.57,12.56,12.56,0,0,0,.16,1.44c.12.61.18.94.23,1.22l.14.78c.15.9.51,1.6.81,1.58s.46-.78.34-1.69c-.1-.61-.15-1-.2-1.22s-.06-.39-.12-.77a3.32,3.32,0,0,1,0-.58c0-.3,0-.72-.12-1.43-.13-.91-.52-1.62-.88-1.59S208.06,77,208.21,77.93Z" style="fill: #ffd46f"/>
          <path d="M201.51,21.2a.76.76,0,0,1,0,.32,1.85,1.85,0,0,0,.08.78,3.2,3.2,0,0,0,.28.66,3.22,3.22,0,0,1,.17.41,1.42,1.42,0,0,0,1.52.76c.7-.06,1.16-.51,1-1a3.06,3.06,0,0,0-.25-.66,1.32,1.32,0,0,1-.16-.42.5.5,0,0,1,0-.31,1.84,1.84,0,0,0-.07-.79,1.47,1.47,0,0,0-1.56-.77C201.82,20.27,201.36,20.71,201.51,21.2Z" style="fill: #ffd46f"/>
          <path d="M220.26,60.44a4.92,4.92,0,0,1-.07.75,15.22,15.22,0,0,0-.18,1.87c0,.8,0,1.23,0,1.59s0,.51,0,1c-.05,1.17.23,2.12.64,2.12s.83-1,.92-2.13c0-.8.06-1.24.07-1.59s0-.51,0-1a5.75,5.75,0,0,1,.09-.74,15.22,15.22,0,0,0,.22-1.86c.08-1.19-.25-2.14-.72-2.14S220.31,59.26,220.26,60.44Z" style="fill: #ffd46f"/>
          <path d="M222.83,30.5a2.06,2.06,0,0,1-.07.6,7.88,7.88,0,0,0-.14,1.5,9.22,9.22,0,0,0,.06,1.28c0,.23,0,.42,0,.82,0,.94.49,1.72,1.1,1.72s1.16-.76,1.2-1.71a8.89,8.89,0,0,0,0-1.28c0-.24,0-.41,0-.81a2.15,2.15,0,0,1,.08-.61,6.92,6.92,0,0,0,.18-1.49c0-.95-.5-1.72-1.17-1.73S222.83,29.55,222.83,30.5Z" style="fill: #ffd46f"/>
          <path d="M222.07,44.26a2.84,2.84,0,0,1-.06.57,8.16,8.16,0,0,0-.15,1.45,11.56,11.56,0,0,0,0,1.22c0,.22,0,.4,0,.78,0,.91.4,1.64.93,1.64s1-.74,1-1.64a9.64,9.64,0,0,0,0-1.23c0-.23,0-.39,0-.78a2.21,2.21,0,0,1,.07-.57,7.32,7.32,0,0,0,.18-1.44c0-.91-.41-1.64-1-1.64S222.08,43.35,222.07,44.26Z" style="fill: #ffd46f"/>
          <path d="M219.18,75.78a1.3,1.3,0,0,1,0,.31,5,5,0,0,0-.07.79,4.7,4.7,0,0,0,0,.67c0,.11,0,.2,0,.42,0,.49.27.86.61.83s.64-.45.65-.94,0-.52,0-.67,0-.21,0-.42a1.51,1.51,0,0,1,0-.32,3.35,3.35,0,0,0,.1-.78c0-.5-.29-.87-.65-.84A.87.87,0,0,0,219.18,75.78Z" style="fill: #ffd46f"/>
        </g>
        <g>
          <path d="M323.76,59.46l-6.43,4c-3.37,2-8.06,4.93-16.14,10l-13.67,8.68-8.67,5.51c-5,3.19-9.55,6.12-12.78,8.26l-3.81,2.56c-.88.61-1.35,1-1.3,1a53.6,53.6,0,0,0,5.66-3.15c3.41-2,8.09-4.8,13.21-7.93l13.86-8.51,8.83-5.42,6.56-4,16.35-9.81c10.38-6.28,18.29-11.65,17.75-12.06S334,53.05,323.76,59.46Z" style="fill: #ffd46f"/>
          <path d="M260.3,59.79l-2,3c-1.08,1.54-2.57,3.7-5.1,7.49l-4.24,6.44c-.77,1.16-1.36,2-2.7,4.09-1.58,2.36-2.94,4.52-3.9,6.1s-1.48,2.58-1.35,2.62,3.12-3.65,6.4-8.34l4.4-6.38,2.8-4.07,2.12-3,5.27-7.4c3.31-4.74,5.55-8.68,5-8.85S263.47,55,260.3,59.79Z" style="fill: #ffd46f"/>
          <path d="M285.5,22.16c-.69,1.06-.94,1.4-1.49,2.17-.81,1.11-1.94,2.66-3.75,5.43l-3,4.7-1.92,3c-2.27,3.45-3.66,6.4-3.1,6.58s2.94-2.44,5.31-5.86l3.13-4.66c.59-.87,1-1.51,2-3,.73-1.05,1-1.4,1.56-2.16.84-1.1,2-2.64,3.87-5.37,2.38-3.45,3.67-6.42,2.92-6.67S287.79,18.68,285.5,22.16Z" style="fill: #ffd46f"/>
          <path d="M261,36.35a11.18,11.18,0,0,1,.61-1.17c.34-.6.83-1.44,1.54-3,.61-1.28.89-2,1.13-2.57s.36-.81.72-1.62c.88-1.88,1-3.54.32-3.7s-1.95,1.23-2.79,3.12c-.56,1.3-.84,2-1.05,2.58s-.36.83-.69,1.64a10.86,10.86,0,0,1-.6,1.19c-.33.6-.79,1.45-1.45,3-.85,1.91-1.05,3.55-.46,3.69S260.1,38.25,261,36.35Z" style="fill: #ffd46f"/>
          <path d="M283.33,94.45l1.74-.85c.91-.44,2.19-1,4.37-2.14l3.65-1.9,2.32-1.21c2.71-1.38,4.66-2.72,4.36-3s-2.71.66-5.38,2.08l-3.6,1.94-2.31,1.23-1.73.88c-.9.44-2.16,1.06-4.29,2.18-2.7,1.43-4.7,2.73-4.48,2.92S280.59,95.84,283.33,94.45Z" style="fill: #ffd46f"/>
          <path d="M309.19,81.7a3.86,3.86,0,0,1,.5-.25,8.72,8.72,0,0,0,1.26-.61,11,11,0,0,0,1-.62l.63-.39c.74-.43,1-1,.67-1.3a2.07,2.07,0,0,0-2,.26,10.69,10.69,0,0,0-1,.63c-.17.12-.3.2-.61.39a2.64,2.64,0,0,1-.51.25,12.06,12.06,0,0,0-1.24.63c-.74.45-1.06,1-.71,1.29A2.19,2.19,0,0,0,309.19,81.7Z" style="fill: #ffd46f"/>
          <path d="M282.65,52.18l-2.24,2.45c-1.18,1.26-2.84,3-5.61,6.15l-4.67,5.33c-.85,1-1.49,1.68-3,3.37-3.47,3.9-6,7.18-5.66,7.32s3.53-2.87,7.11-6.73l4.79-5.25,3.06-3.35L278.77,59c1.22-1.25,2.91-3,5.76-6.07,3.61-3.9,6-7.22,5.47-7.45S286.14,48.24,282.65,52.18Z" style="fill: #ffd46f"/>
          <path d="M253.16,85.21a3.73,3.73,0,0,1-.44.49c-.24.25-.59.6-1.11,1.23s-.67.83-.86,1.08l-.56.68c-.66.78-1,1.49-.7,1.58s1.06-.47,1.74-1.25c.46-.53.7-.82.9-1.06s.28-.34.57-.67a5.81,5.81,0,0,1,.45-.49,15.51,15.51,0,0,0,1.14-1.21c.68-.78,1-1.5.65-1.61S253.82,84.42,253.16,85.21Z" style="fill: #ffd46f"/>
          <path d="M296.66,36.64a1.33,1.33,0,0,1-.25.27,2.43,2.43,0,0,0-.61.67,4.25,4.25,0,0,0-.34.63,2.67,2.67,0,0,1-.21.41c-.3.45,0,1,.59,1.2a1.56,1.56,0,0,0,1.71-.41,3.09,3.09,0,0,0,.35-.63,2.69,2.69,0,0,1,.23-.4.93.93,0,0,1,.25-.27,2.67,2.67,0,0,0,.63-.66c.3-.45,0-1-.63-1.22A1.51,1.51,0,0,0,296.66,36.64Z" style="fill: #ffd46f"/>
          <path d="M278.07,75.8c-.32.28-.44.37-.7.57s-.91.69-1.76,1.44l-1.4,1.28-.89.8c-1.05.93-1.67,1.83-1.36,2s1.46-.41,2.54-1.33c.75-.63,1.13-1,1.44-1.26l.91-.81c.34-.28.46-.37.72-.57s.93-.68,1.79-1.41c1.09-.92,1.67-1.85,1.3-2S279.14,74.85,278.07,75.8Z" style="fill: #ffd46f"/>
          <path d="M306,52.62a5,5,0,0,1-.56.46A13.12,13.12,0,0,0,304,54.23c-.56.52-.83.82-1.06,1.07s-.32.34-.67.67c-.83.75-1.11,1.59-.63,1.86s1.55-.12,2.4-.87c.57-.52.86-.81,1.09-1.05s.34-.35.7-.67a4,4,0,0,1,.58-.45,11.38,11.38,0,0,0,1.44-1.14c.84-.76,1.1-1.61.58-1.9S306.83,51.85,306,52.62Z" style="fill: #ffd46f"/>
          <path d="M293.5,63.45a5.6,5.6,0,0,1-.54.43A14.76,14.76,0,0,0,291.6,65c-.55.5-.81.78-1,1l-.66.64c-.8.72-1.12,1.5-.71,1.72s1.41-.16,2.22-.88c.57-.49.85-.77,1.07-1s.34-.33.68-.63a4.61,4.61,0,0,1,.56-.44,13.25,13.25,0,0,0,1.38-1.08c.82-.73,1.11-1.52.66-1.76S294.3,62.71,293.5,63.45Z" style="fill: #ffd46f"/>
          <path d="M263.94,87.75a2.6,2.6,0,0,1-.29.24,7.37,7.37,0,0,0-.74.61c-.29.27-.43.43-.55.56l-.35.35c-.43.4-.55.83-.27.95s.87-.08,1.3-.47l.57-.55c.1-.11.18-.18.36-.35a2,2,0,0,1,.3-.24,6.61,6.61,0,0,0,.75-.59c.44-.41.54-.84.25-1A1.47,1.47,0,0,0,263.94,87.75Z" style="fill: #ffd46f"/>
        </g>
        <g>
          <path d="M362.65,116.58l-8.65.64c-4.5.31-10.78.75-21.72,1.63l-18.56,1.54-11.76,1c-6.83.56-13,1.11-17.46,1.55l-5.26.53a11.51,11.51,0,0,0-1.91.29,10.12,10.12,0,0,0,2,0l5.34-.27c4.5-.25,10.71-.63,17.54-1.11L320.75,121l11.82-.83,8.73-.56L363,118.26c13.82-.9,24.84-2.06,24.73-2.62S376.43,115.49,362.65,116.58Z" style="fill: #ffd46f"/>
          <path d="M311,91.4,306.77,93c-2.2.82-5.27,2-10.58,4l-9,3.52-5.7,2.23c-6.61,2.57-11.86,4.79-11.71,5s5.71-1.73,12.4-4.21l9.06-3.41L297,97.94l4.27-1.57L312,92.48c6.76-2.51,11.94-4.81,11.64-5.14S317.66,88.8,311,91.4Z" style="fill: #ffd46f"/>
          <path d="M363.77,71c-1.46.57-2,.75-3.07,1.15-1.61.58-3.87,1.39-7.71,2.9l-6.49,2.6-4.12,1.65c-4.8,1.88-8.43,3.7-8.11,4.06s4.53-.81,9.38-2.63l6.54-2.52,4.17-1.61c1.49-.56,2-.74,3.12-1.13,1.63-.56,3.9-1.34,7.76-2.8,4.89-1.84,8.48-3.73,8.05-4.22S368.61,69.11,363.77,71Z" style="fill: #ffd46f"/>
          <path d="M331.74,72.71c.71-.36,1-.46,1.51-.71.8-.35,1.92-.83,3.79-1.77,1.59-.79,2.43-1.24,3.12-1.62l2-1c2.33-1.17,3.85-2.44,3.4-2.84s-2.68.23-5,1.43c-1.58.82-2.41,1.28-3.08,1.66l-2,1c-.71.37-.95.48-1.49.73-.8.35-1.91.86-3.74,1.81-2.32,1.2-3.88,2.44-3.49,2.78S329.39,73.88,331.74,72.71Z" style="fill: #ffd46f"/>
          <path d="M299.82,128.65H302c1.11,0,2.66,0,5.38,0l4.59-.08,2.91,0c3.38,0,6.09-.33,6-.66s-2.8-.56-6.18-.48l-4.58.12-2.92.07-2.16,0c-1.11,0-2.67,0-5.36,0-3.41.07-6.13.32-6.09.57S296.41,128.67,299.82,128.65Z" style="fill: #ffd46f"/>
          <path d="M331.74,128.71a4.24,4.24,0,0,1,.62,0,12.31,12.31,0,0,0,1.56,0c.66,0,1-.07,1.31-.11l.83-.06c1-.05,1.7-.4,1.63-.78s-.91-.66-1.88-.59c-.67,0-1,.08-1.31.12l-.83.07H333a13.37,13.37,0,0,0-1.55,0c-1,.06-1.71.4-1.64.76S330.76,128.75,331.74,128.71Z" style="fill: #ffd46f"/>
          <path d="M335.72,94.16l-3.92,1.08c-2,.56-4.9,1.32-9.84,2.74l-8.36,2.45L308.28,102c-6.16,1.77-11,3.42-10.92,3.67s5.29-.9,11.5-2.59l8.41-2.33,5.36-1.49,4-1.06c2.06-.52,4.93-1.26,9.88-2.61,6.27-1.71,11.12-3.43,10.89-3.85S341.94,92.37,335.72,94.16Z" style="fill: #ffd46f"/>
          <path d="M283.4,109.12c-.37.11-.49.14-.78.21s-1,.25-1.95.55l-1.63.53-1,.33c-1.21.37-2.1.83-2,1s1.22.06,2.44-.3l1.64-.5,1-.32c.38-.11.5-.15.79-.21s1-.24,2-.53c1.24-.37,2.11-.84,2-1.06S284.62,108.74,283.4,109.12Z" style="fill: #ffd46f"/>
          <path d="M360.43,87.17a1.56,1.56,0,0,1-.43.12,5.73,5.73,0,0,0-1.07.3,8,8,0,0,0-.82.38,3.53,3.53,0,0,1-.53.24c-.63.25-.9.81-.61,1.23a1.49,1.49,0,0,0,1.7.36,5.38,5.38,0,0,0,.84-.37,5.36,5.36,0,0,1,.53-.23,1.7,1.7,0,0,1,.43-.11,5.36,5.36,0,0,0,1.08-.29c.64-.25.91-.81.6-1.26A1.49,1.49,0,0,0,360.43,87.17Z" style="fill: #ffd46f"/>
          <path d="M311.42,111.48c-.5.1-.67.13-1.06.19-.56.08-1.33.19-2.66.46l-2.24.47-1.42.3c-1.66.32-2.9.81-2.78,1.06s1.57.25,3.24-.06c1.14-.21,1.75-.34,2.25-.44l1.43-.29c.51-.09.68-.12,1.07-.17.56-.07,1.34-.18,2.67-.42,1.67-.32,2.91-.82,2.77-1.13S313.09,111.15,311.42,111.48Z" style="fill: #ffd46f"/>
          <path d="M354,103.93a7.34,7.34,0,0,1-.85.15c-.45.06-1.08.13-2.14.36-.9.2-1.38.33-1.78.44s-.56.15-1.13.27c-1.32.28-2.24.85-2.07,1.25s1.42.52,2.74.25c.91-.18,1.39-.31,1.78-.41s.58-.14,1.14-.25a5.82,5.82,0,0,1,.86-.14,20.26,20.26,0,0,0,2.14-.34c1.34-.28,2.26-.86,2.07-1.3S355.33,103.64,354,103.93Z" style="fill: #ffd46f"/>
          <path d="M334.56,107.68c-.39.08-.52.1-.82.14s-1,.13-2.06.34c-.86.18-1.32.31-1.7.4l-1.09.26c-1.26.26-2.16.76-2,1.1s1.32.42,2.6.17c.87-.17,1.34-.28,1.72-.37s.54-.13,1.08-.24a7.07,7.07,0,0,1,.82-.13c.44,0,1.05-.12,2.06-.32,1.29-.26,2.18-.78,2-1.15S335.83,107.41,334.56,107.68Z" style="fill: #ffd46f"/>
          <path d="M289.68,115.5l-.45.08a7.67,7.67,0,0,0-1.12.19c-.47.1-.71.17-.92.23l-.58.14c-.69.15-1.13.44-1,.65s.83.27,1.51.13c.48-.1.73-.16.93-.22l.59-.13a3.08,3.08,0,0,1,.45-.08,8,8,0,0,0,1.12-.18c.69-.14,1.14-.45,1-.67S290.38,115.35,289.68,115.5Z" style="fill: #ffd46f"/>
        </g>
      </g>
    </g>
    <circle cx="209.72" cy="121" r="75" style="fill: #fff;fill-opacity: 0.5"/>
    <g id="flora">
      <g>
        <g>
          <path d="M196.9,202.76c.33-.72,48.4-32.23,71.6-47.34s29.59-19,44.69-23.18,38.1-20.76,51-29.1" style="fill: none;stroke: #c59a6a;stroke-linecap: round;stroke-miterlimit: 10;stroke-width: 0.75px"/>
          <path d="M252.47,165.88s20-4.78,33.6-3.51a195.42,195.42,0,0,0,19.85,1.13" style="fill: none;stroke: #c59a6a;stroke-linecap: round;stroke-miterlimit: 10;stroke-width: 0.75px"/>
          <path d="M307.11,155.39c-1.54-.45-10.15,6.1-23.79,6.8" style="fill: none;stroke: #c59a6a;stroke-linecap: round;stroke-miterlimit: 10;stroke-width: 0.75px"/>
          <path d="M299.69,113.76s-8.85,3.69-9.49,12.1-1.4,16.53-8.06,20.78" style="fill: none;stroke: #c59a6a;stroke-linecap: round;stroke-miterlimit: 10;stroke-width: 0.75px"/>
          <path d="M286.48,116.15s-.68,4.56,3.64,10.73" style="fill: none;stroke: #c59a6a;stroke-linecap: round;stroke-miterlimit: 10;stroke-width: 0.75px"/>
          <path d="M340.41,105.82s1.72,2.88-4.47,8.19-14.26,10-15.16,15.44" style="fill: none;stroke: #c59a6a;stroke-linecap: round;stroke-miterlimit: 10;stroke-width: 0.75px"/>
          <path d="M346.54,128.75s-14.35,3.4-21.74-1.19" style="fill: none;stroke: #c59a6a;stroke-linecap: round;stroke-miterlimit: 10;stroke-width: 0.75px"/>
        </g>
        <g>
          <path d="M390.69,87s4-6.79,8.83-5.31C399.52,81.69,397.94,86.7,390.69,87Z" style="fill: #c59a6a"/>
          <path d="M354.72,109.41s-.66-8.51,4.9-9.71C359.62,99.7,361.37,105.28,354.72,109.41Z" style="fill: #c59a6a"/>
          <path d="M366.58,101.34s-.58-7.46,4.29-8.5C370.87,92.84,372.4,97.72,366.58,101.34Z" style="fill: #c59a6a"/>
          <path d="M360.79,105.73s-.66-8.51,4.9-9.71C365.69,96,367.44,101.6,360.79,105.73Z" style="fill: #c59a6a"/>
          <path d="M390.05,88s5.74-3.21,8.43-.42C398.48,87.54,395.16,90.4,390.05,88Z" style="fill: #c59a6a"/>
          <path d="M356.58,108.44s6.3-4.49,9.89-1.53C366.47,106.91,363,110.7,356.58,108.44Z" style="fill: #c59a6a"/>
          <path d="M361.38,104.77s6.3-4.5,9.89-1.53C371.27,103.24,367.77,107,361.38,104.77Z" style="fill: #c59a6a"/>
          <path d="M366.43,101.43s6.29-4.5,9.88-1.53C376.31,99.9,372.82,103.68,366.43,101.43Z" style="fill: #c59a6a"/>
          <path d="M371.62,98.08s6.3-4.5,9.88-1.53C381.5,96.55,378,100.33,371.62,98.08Z" style="fill: #c59a6a"/>
          <path d="M372,96.83c-.25,0,0-3.69,5.89-6.42C377.85,90.41,377,96.1,372,96.83Z" style="fill: #c59a6a"/>
          <path d="M377.22,94.85s2.44-3.54,8.41-1.7C385.63,93.15,381.61,97.16,377.22,94.85Z" style="fill: #c59a6a"/>
          <path d="M378.48,92.47s-.48-3.82,4.61-5.86C383.09,86.61,383.76,91.12,378.48,92.47Z" style="fill: #c59a6a"/>
          <path d="M382,91.73s3.91-3.13,7.29-.83C389.33,90.9,386.67,94,382,91.73Z" style="fill: #c59a6a"/>
          <path d="M383.28,90s-.94-3.25,3.54-5.8A4.73,4.73,0,0,1,383.28,90Z" style="fill: #c59a6a"/>
          <path d="M387.41,88.29s-.63-3.85,4.92-6.1C392.33,82.19,392.63,87.48,387.41,88.29Z" style="fill: #c59a6a"/>
          <path d="M387,89.15s2.29-1.56,5.32.56C392.29,89.71,389.21,91.36,387,89.15Z" style="fill: #c59a6a"/>
        </g>
        <g>
          <path d="M341.06,166.31s7.79-3,10.56.88C351.62,167.19,346.91,170.19,341.06,166.31Z" style="fill: #c59a6a"/>
          <path d="M297.52,163.34s5.38-7,10.54-4.78C308.06,158.56,305.56,163.89,297.52,163.34Z" style="fill: #c59a6a"/>
          <path d="M312.35,163.79s4.71-6.14,9.23-4.19C321.58,159.6,319.39,164.28,312.35,163.79Z" style="fill: #c59a6a"/>
          <path d="M304.8,163.92s5.38-7,10.54-4.78C315.34,159.14,312.84,164.47,304.8,163.92Z" style="fill: #c59a6a"/>
          <path d="M339.9,166.7s6.69.75,6.85,4.45A7.33,7.33,0,0,1,339.9,166.7Z" style="fill: #c59a6a"/>
          <path d="M299.64,163.64s8,.07,8.76,4.42A8.94,8.94,0,0,1,299.64,163.64Z" style="fill: #c59a6a"/>
          <path d="M305.92,163.5s8,.08,8.76,4.43A9,9,0,0,1,305.92,163.5Z" style="fill: #c59a6a"/>
          <path d="M312.17,163.77s8,.07,8.76,4.42A8.93,8.93,0,0,1,312.17,163.77Z" style="fill: #c59a6a"/>
          <path d="M318.53,164.11s8,.07,8.76,4.42A9,9,0,0,1,318.53,164.11Z" style="fill: #c59a6a"/>
          <path d="M319.67,163.33c-.22-.11,2.55-2.87,9-1.66C328.69,161.67,324.13,165.64,319.67,163.33Z" style="fill: #c59a6a"/>
          <path d="M325.13,164.78s4.36-1.38,7.73,3.44C332.86,168.22,327,169.07,325.13,164.78Z" style="fill: #c59a6a"/>
          <path d="M327.77,163.64s2.27-3.25,7.64-1.95A6.27,6.27,0,0,1,327.77,163.64Z" style="fill: #c59a6a"/>
          <path d="M331.05,165.08s5.2-.21,6.25,3.5A5.68,5.68,0,0,1,331.05,165.08Z" style="fill: #c59a6a"/>
          <path d="M333.23,164.42s1.51-3.07,6.77-2.51A5.5,5.5,0,0,1,333.23,164.42Z" style="fill: #c59a6a"/>
          <path d="M337.61,165.45s2.18-3.35,8.06-2C345.67,163.49,342.24,167.79,337.61,165.45Z" style="fill: #c59a6a"/>
          <path d="M336.67,165.87a4.27,4.27,0,0,1,3.76,3.46S336.89,168.87,336.67,165.87Z" style="fill: #c59a6a"/>
        </g>
        <g>
          <path d="M320.09,80.39s.08-7.68,5.16-8.39C325.25,72,326.38,77.11,320.09,80.39Z" style="fill: #c59a6a"/>
          <path d="M299.47,115.23s-4.9-7.29-.56-10.66C298.91,104.57,303.29,108.8,299.47,115.23Z" style="fill: #c59a6a"/>
          <path d="M305.92,103.14s-4.29-6.39-.49-9.34C305.43,93.8,309.27,97.51,305.92,103.14Z" style="fill: #c59a6a"/>
          <path d="M303,109.44s-4.9-7.29-.56-10.66C302.44,98.78,306.82,103,303,109.44Z" style="fill: #c59a6a"/>
          <path d="M320,81.51s3.47-5.24,7.27-3.87C327.28,77.64,325.78,81.56,320,81.51Z" style="fill: #c59a6a"/>
          <path d="M300.63,113.6s3.32-6.61,8-5.46C308.64,108.14,307.46,113,300.63,113.6Z" style="fill: #c59a6a"/>
          <path d="M303,108.34s3.32-6.61,8-5.46C311.05,102.88,309.86,107.7,303,108.34Z" style="fill: #c59a6a"/>
          <path d="M305.83,103.28s3.32-6.61,8-5.46C313.84,97.82,312.66,102.63,305.83,103.28Z" style="fill: #c59a6a"/>
          <path d="M308.75,98.15s3.32-6.61,8-5.46C316.76,92.69,315.57,97.5,308.75,98.15Z" style="fill: #c59a6a"/>
          <path d="M308.42,96.9c-.2.13-1.86-3.28,2-8.15C310.4,88.75,312.57,94.14,308.42,96.9Z" style="fill: #c59a6a"/>
          <path d="M312.1,93s.37-4.17,6.6-5C318.7,88,317.17,93.19,312.1,93Z" style="fill: #c59a6a"/>
          <path d="M312,90.31s-2.36-3.19,1.12-7.11A5,5,0,0,1,312,90.31Z" style="fill: #c59a6a"/>
          <path d="M314.8,88.18s1.89-4.4,6.06-3.76C320.86,84.42,320.07,88.31,314.8,88.18Z" style="fill: #c59a6a"/>
          <path d="M315,86.11s-2.48-2.5.21-6.62C315.22,79.49,318.47,82.83,315,86.11Z" style="fill: #c59a6a"/>
          <path d="M317.82,82.9s-2.5-3.16,1.29-7.47C319.11,75.43,322.06,80,317.82,82.9Z" style="fill: #c59a6a"/>
          <path d="M317.87,83.85s1.25-2.35,5-1.72A4.54,4.54,0,0,1,317.87,83.85Z" style="fill: #c59a6a"/>
        </g>
        <g>
          <path d="M345.21,127.86c-.35-.08,2.22-5,10.41-4.87,0,0-4.28,6-10,5Z" style="fill: #c59a6a"/>
          <path d="M344.84,128.73c-.61,0,3.12,6.75,9.67,5.26C354.51,134,352.79,128.35,344.84,128.73Z" style="fill: #c59a6a"/>
          <path d="M350.9,128.64c-.56,0,2.6-4.54,9.52-6.12C360.42,122.52,357.63,129,350.9,128.64Z" style="fill: #c59a6a"/>
          <path d="M352.59,129.51c-.22-.15,6-3,11.69,2C364.28,131.51,359.29,134.14,352.59,129.51Z" style="fill: #c59a6a"/>
          <path d="M357.25,127.76s2.35-5.44,10.32-5.48C367.57,122.28,363.29,127.66,357.25,127.76Z" style="fill: #c59a6a"/>
          <path d="M361.43,127.66c-.18-.16,6.15-2,10.46,2.29C371.89,130,366.73,132.21,361.43,127.66Z" style="fill: #c59a6a"/>
          <path d="M365.2,126c-.32-.07,2.52-3.71,7.75-3.83C373,122.16,369.89,127,365.2,126Z" style="fill: #c59a6a"/>
          <path d="M368.71,126.82s2.09,3.36,8.47,2C377.18,128.84,374.72,125,368.71,126.82Z" style="fill: #c59a6a"/>
          <path d="M371.12,125.36c-.34,0,2.41-4.78,9.19-3.56A10.27,10.27,0,0,1,371.12,125.36Z" style="fill: #c59a6a"/>
          <path d="M374.45,126c-.19-.13,5-3.24,12.3.36C386.75,126.34,380.24,130.17,374.45,126Z" style="fill: #c59a6a"/>
        </g>
        <g>
          <path d="M305.46,156.08c-.36,0,.38-5.39,8.2-7.57,0,0-2,6.87-7.78,7.53Z" style="fill: #c59a6a"/>
          <path d="M305.41,157c-.57.2,5.29,5.53,11,2.26C316.41,159.27,312.83,154.4,305.41,157Z" style="fill: #c59a6a"/>
          <path d="M311.13,155.21c-.54.13.91-5.05,6.93-8.51C318.06,146.7,317.65,153.66,311.13,155.21Z" style="fill: #c59a6a"/>
          <path d="M313,155.55c-.27-.08,4.64-4.52,11.8-1.4C324.84,154.15,321,158.06,313,155.55Z" style="fill: #c59a6a"/>
          <path d="M316.86,152.57s.35-5.83,7.91-8.11C324.77,144.46,322.56,150.77,316.86,152.57Z" style="fill: #c59a6a"/>
          <path d="M320.8,151.3c-.23-.1,5.15-3.62,10.73-.78C331.53,150.52,327.4,154.12,320.8,151.3Z" style="fill: #c59a6a"/>
          <path d="M323.8,148.64c-.33,0,1.12-4.24,6-5.83C329.84,142.81,328.6,148.26,323.8,148.64Z" style="fill: #c59a6a"/>
          <path d="M327.42,148.44s3.15,2.6,8.74-.48C336.16,148,332.52,145,327.42,148.44Z" style="fill: #c59a6a"/>
          <path d="M329.21,146.38c-.34.05.64-5.23,7.5-6A9.49,9.49,0,0,1,329.21,146.38Z" style="fill: #c59a6a"/>
          <path d="M332.58,146c-.22-.07,3.65-4.49,11.82-3.13C344.4,142.89,339.53,148.36,332.58,146Z" style="fill: #c59a6a"/>
        </g>
        <g>
          <path d="M341.48,108.41c-.05.32,6,0,8.94-6.86,0,0-7.72,1.31-8.87,6.48C341.52,108.15,341.5,108.28,341.48,108.41Z" style="fill: #c59a6a"/>
          <path d="M340.45,108.38c-.26.5-5.71-5.17-1.7-10.09C338.75,98.29,343.86,101.87,340.45,108.38Z" style="fill: #c59a6a"/>
          <path d="M342.84,103.35c-.18.48,5.64-.45,9.88-5.64C352.72,97.71,345,97.57,342.84,103.35Z" style="fill: #c59a6a"/>
          <path d="M342.6,101.6c.07.24,5.33-3.87,2.41-10.55C345,91.05,340.43,94.23,342.6,101.6Z" style="fill: #c59a6a"/>
          <path d="M346.17,98.37a10.86,10.86,0,0,0,9.51-6.56S348.57,93.35,346.17,98.37Z" style="fill: #c59a6a"/>
          <path d="M347.86,94.9c.09.22,4.36-4.39,1.64-9.63C349.5,85.27,345.22,88.74,347.86,94.9Z" style="fill: #c59a6a"/>
          <path d="M351,92.38c-.05.3,4.75-.7,6.86-5C357.86,87.35,351.77,88.08,351,92.38Z" style="fill: #c59a6a"/>
          <path d="M351.48,89.13s-2.63-3,1.17-7.86C352.65,81.27,355.61,84.78,351.48,89.13Z" style="fill: #c59a6a"/>
          <path d="M353.89,87.67c-.09.3,5.8-.21,7.14-6.34C361,81.33,355.43,82.37,353.89,87.67Z" style="fill: #c59a6a"/>
          <path d="M354.52,84.64c.07.21,5.22-3,4.32-10.44C358.84,74.2,352.45,78.2,354.52,84.64Z" style="fill: #c59a6a"/>
        </g>
        <g>
          <path d="M288.14,116.26c.12.31,5.34-2.4,4.53-9.78,0,0-6.22,4.33-4.65,9.42C288.05,116,288.1,116.14,288.14,116.26Z" style="fill: #c59a6a"/>
          <path d="M287.21,116.66c0,.55-7.68-2.27-6.57-8.3A8.33,8.33,0,0,1,287.21,116.66Z" style="fill: #c59a6a"/>
          <path d="M286.82,111.19c.08.5,4.8-2.71,6-9.09C292.8,102.1,285.88,105.15,286.82,111.19Z" style="fill: #c59a6a"/>
          <path d="M285.74,109.73c.18.19,2.8-5.63-3.15-10.39C282.59,99.34,280.1,104.06,285.74,109.73Z" style="fill: #c59a6a"/>
          <path d="M287.29,105.39a9.65,9.65,0,0,0,5.2-9.75S286.91,99.93,287.29,105.39Z" style="fill: #c59a6a"/>
          <path d="M287.06,101.61c.19.15,1.69-5.71-3.36-9.26C283.7,92.35,281.62,97.19,287.06,101.61Z" style="fill: #c59a6a"/>
          <path d="M288.6,98.07c.1.28,3.88-2.58,3.59-7.3C292.19,90.77,287.13,93.92,288.6,98.07Z" style="fill: #c59a6a"/>
          <path d="M287.4,95s-3.87-1.61-2.9-7.48C284.5,87.49,288.89,89.4,287.4,95Z" style="fill: #c59a6a"/>
          <path d="M288.81,92.68c.07.3,5.07-2.56,3.19-8.58C292,84.1,287.53,87.33,288.81,92.68Z" style="fill: #c59a6a"/>
          <path d="M287.86,89.73c.16.16,3.16-4.79-1.39-11.08C286.47,78.65,282.79,84.84,287.86,89.73Z" style="fill: #c59a6a"/>
        </g>
      </g>
      <g>
        <g>
          <path d="M31.61,86.72s-4.06-7-9.07-5.46C22.54,81.26,24.17,86.41,31.61,86.72Z" style="fill: #c59a6a"/>
          <path d="M68.56,109.73s.68-8.74-5-10C63.53,99.76,61.73,105.49,68.56,109.73Z" style="fill: #c59a6a"/>
          <path d="M56.38,101.45S57,93.79,52,92.71C52,92.71,50.4,97.73,56.38,101.45Z" style="fill: #c59a6a"/>
          <path d="M62.33,106s.68-8.74-5-10C57.3,96,55.5,101.71,62.33,106Z" style="fill: #c59a6a"/>
          <path d="M32.27,87.7s-5.89-3.3-8.65-.43C23.62,87.27,27,90.21,32.27,87.7Z" style="fill: #c59a6a"/>
          <path d="M66.65,108.74s-6.47-4.62-10.15-1.57C56.5,107.17,60.09,111.06,66.65,108.74Z" style="fill: #c59a6a"/>
          <path d="M61.72,105s-6.47-4.62-10.15-1.58C51.57,103.39,55.16,107.28,61.72,105Z" style="fill: #c59a6a"/>
          <path d="M56.54,101.54S50.07,96.92,46.38,100C46.38,100,50,103.85,56.54,101.54Z" style="fill: #c59a6a"/>
          <path d="M51.2,98.09s-6.46-4.62-10.15-1.57C41.05,96.52,44.64,100.41,51.2,98.09Z" style="fill: #c59a6a"/>
          <path d="M50.85,96.81c.26,0,0-3.78-6-6.59C44.81,90.22,45.63,96.06,50.85,96.81Z" style="fill: #c59a6a"/>
          <path d="M45.45,94.78S43,91.14,36.82,93C36.82,93,40.94,97.15,45.45,94.78Z" style="fill: #c59a6a"/>
          <path d="M44.15,92.33s.5-3.92-4.73-6C39.42,86.31,38.73,90.94,44.15,92.33Z" style="fill: #c59a6a"/>
          <path d="M40.5,91.57s-4-3.21-7.49-.85C33,90.72,35.75,93.94,40.5,91.57Z" style="fill: #c59a6a"/>
          <path d="M39.23,89.77s1-3.34-3.64-6A4.85,4.85,0,0,0,39.23,89.77Z" style="fill: #c59a6a"/>
          <path d="M35,88s.64-4-5.05-6.27C29.94,81.77,29.62,87.21,35,88Z" style="fill: #c59a6a"/>
          <path d="M35.44,88.92s-2.36-1.6-5.47.58C30,89.5,33.13,91.19,35.44,88.92Z" style="fill: #c59a6a"/>
        </g>
        <g>
          <path d="M82.6,168.19s-8-3.13-10.85.89C71.75,169.08,76.58,172.17,82.6,168.19Z" style="fill: #c59a6a"/>
          <path d="M127.32,165.13s-5.53-7.2-10.83-4.91C116.49,160.22,119.06,165.7,127.32,165.13Z" style="fill: #c59a6a"/>
          <path d="M112.09,165.59s-4.84-6.3-9.48-4.3C102.61,161.29,104.86,166.09,112.09,165.59Z" style="fill: #c59a6a"/>
          <path d="M119.84,165.73s-5.53-7.2-10.82-4.91C109,160.82,111.59,166.3,119.84,165.73Z" style="fill: #c59a6a"/>
          <path d="M83.79,168.58s-6.88.78-7,4.58A7.56,7.56,0,0,0,83.79,168.58Z" style="fill: #c59a6a"/>
          <path d="M125.14,165.44s-8.23.08-9,4.54A9.18,9.18,0,0,0,125.14,165.44Z" style="fill: #c59a6a"/>
          <path d="M118.69,165.3s-8.24.08-9,4.54A9.2,9.2,0,0,0,118.69,165.3Z" style="fill: #c59a6a"/>
          <path d="M112.27,165.57s-8.23.08-9,4.55A9.18,9.18,0,0,0,112.27,165.57Z" style="fill: #c59a6a"/>
          <path d="M105.74,165.92s-8.24.07-9,4.54A9.2,9.2,0,0,0,105.74,165.92Z" style="fill: #c59a6a"/>
          <path d="M104.57,165.12c.23-.12-2.62-2.94-9.27-1.7C95.3,163.42,100,167.5,104.57,165.12Z" style="fill: #c59a6a"/>
          <path d="M99,166.61s-4.48-1.42-7.94,3.54C91,170.15,97.09,171,99,166.61Z" style="fill: #c59a6a"/>
          <path d="M96.25,165.44s-2.33-3.34-7.85-2A6.44,6.44,0,0,0,96.25,165.44Z" style="fill: #c59a6a"/>
          <path d="M92.88,166.92s-5.35-.22-6.42,3.59A5.83,5.83,0,0,0,92.88,166.92Z" style="fill: #c59a6a"/>
          <path d="M90.64,166.24s-1.56-3.15-7-2.57A5.64,5.64,0,0,0,90.64,166.24Z" style="fill: #c59a6a"/>
          <path d="M86.14,167.3s-2.24-3.45-8.28-2C77.86,165.29,81.39,169.7,86.14,167.3Z" style="fill: #c59a6a"/>
          <path d="M87.11,167.73a4.39,4.39,0,0,0-3.87,3.56S86.88,170.81,87.11,167.73Z" style="fill: #c59a6a"/>
        </g>
        <g>
          <path d="M104.13,79.92s-.07-7.88-5.29-8.61C98.84,71.31,97.68,76.56,104.13,79.92Z" style="fill: #c59a6a"/>
          <path d="M125.32,115.71s5-7.48.57-10.94C125.89,104.77,121.4,109.11,125.32,115.71Z" style="fill: #c59a6a"/>
          <path d="M118.69,103.29s4.41-6.56.5-9.59C119.19,93.7,115.25,97.51,118.69,103.29Z" style="fill: #c59a6a"/>
          <path d="M121.69,109.77s5-7.49.58-11C122.27,98.82,117.77,103.16,121.69,109.77Z" style="fill: #c59a6a"/>
          <path d="M104.22,81.07s-3.57-5.38-7.47-4C96.75,77.1,98.29,81.12,104.22,81.07Z" style="fill: #c59a6a"/>
          <path d="M124.12,114s-3.4-6.79-8.22-5.61C115.9,108.43,117.11,113.37,124.12,114Z" style="fill: #c59a6a"/>
          <path d="M121.65,108.64s-3.4-6.79-8.22-5.61C113.43,103,114.64,108,121.65,108.64Z" style="fill: #c59a6a"/>
          <path d="M118.78,103.44s-3.41-6.79-8.23-5.61C110.55,97.83,111.77,102.77,118.78,103.44Z" style="fill: #c59a6a"/>
          <path d="M115.79,98.17s-3.41-6.79-8.23-5.61C107.56,92.56,108.78,97.5,115.79,98.17Z" style="fill: #c59a6a"/>
          <path d="M116.12,96.88c.21.14,1.92-3.36-2-8.37C114.09,88.51,111.87,94.05,116.12,96.88Z" style="fill: #c59a6a"/>
          <path d="M112.35,92.84s-.38-4.28-6.79-5.14C105.56,87.7,107.14,93.07,112.35,92.84Z" style="fill: #c59a6a"/>
          <path d="M112.44,90.12s2.42-3.28-1.16-7.31A5.19,5.19,0,0,0,112.44,90.12Z" style="fill: #c59a6a"/>
          <path d="M109.57,87.92s-1.94-4.51-6.22-3.86C103.35,84.06,104.15,88.06,109.57,87.92Z" style="fill: #c59a6a"/>
          <path d="M109.36,85.8s2.55-2.56-.22-6.8C109.14,79,105.8,82.43,109.36,85.8Z" style="fill: #c59a6a"/>
          <path d="M106.46,82.51s2.58-3.26-1.31-7.68C105.15,74.83,102.11,79.54,106.46,82.51Z" style="fill: #c59a6a"/>
          <path d="M106.42,83.47s-1.28-2.4-5.15-1.76A4.67,4.67,0,0,0,106.42,83.47Z" style="fill: #c59a6a"/>
          <g>
            <path d="M137,116.77c-.12.32-5.49-2.47-4.66-10,0,0,6.39,4.46,4.78,9.68C137.05,116.52,137,116.65,137,116.77Z" style="fill: #c59a6a"/>
            <path d="M137.91,117.19c0,.56,7.89-2.34,6.75-8.53A8.54,8.54,0,0,0,137.91,117.19Z" style="fill: #c59a6a"/>
            <path d="M138.31,111.56c-.08.52-4.93-2.78-6.14-9.33C132.17,102.23,139.28,105.35,138.31,111.56Z" style="fill: #c59a6a"/>
            <path d="M139.42,110.07c-.18.19-2.88-5.79,3.24-10.68C142.66,99.39,145.21,104.24,139.42,110.07Z" style="fill: #c59a6a"/>
            <path d="M137.83,105.6a9.9,9.9,0,0,1-5.34-10S138.22,100,137.83,105.6Z" style="fill: #c59a6a"/>
            <path d="M138.07,101.72c-.2.15-1.74-5.86,3.45-9.51C141.52,92.21,143.65,97.19,138.07,101.72Z" style="fill: #c59a6a"/>
            <path d="M136.48,98.08c-.1.3-4-2.64-3.69-7.49C132.79,90.59,138,93.82,136.48,98.08Z" style="fill: #c59a6a"/>
            <path d="M137.72,94.9s4-1.66,3-7.68C140.7,87.22,136.18,89.18,137.72,94.9Z" style="fill: #c59a6a"/>
            <path d="M136.27,92.55c-.08.31-5.21-2.64-3.28-8.81C133,83.74,137.58,87.05,136.27,92.55Z" style="fill: #c59a6a"/>
            <path d="M137.25,89.51c-.17.17-3.26-4.92,1.42-11.37C138.67,78.14,142.46,84.49,137.25,89.51Z" style="fill: #c59a6a"/>
          </g>
        </g>
        <g>
          <path d="M78.33,128.69c.36-.08-2.27-5.14-10.69-5,0,0,4.39,6.13,10.27,5.1Z" style="fill: #c59a6a"/>
          <path d="M78.71,129.58c.63,0-3.2,6.94-9.93,5.41C68.78,135,70.54,129.19,78.71,129.58Z" style="fill: #c59a6a"/>
          <path d="M72.49,129.49c.58,0-2.67-4.67-9.78-6.29C62.71,123.2,65.58,129.87,72.49,129.49Z" style="fill: #c59a6a"/>
          <path d="M70.75,130.38c.23-.15-6.14-3.07-12,2.06C58.74,132.44,63.87,135.14,70.75,130.38Z" style="fill: #c59a6a"/>
          <path d="M66,128.58S63.55,123,55.37,123C55.37,123,59.76,128.48,66,128.58Z" style="fill: #c59a6a"/>
          <path d="M61.67,128.48c.19-.16-6.31-2-10.74,2.35C50.93,130.83,56.23,133.16,61.67,128.48Z" style="fill: #c59a6a"/>
          <path d="M57.8,126.76c.33-.07-2.59-3.81-8-3.93C49.84,122.83,53,127.78,57.8,126.76Z" style="fill: #c59a6a"/>
          <path d="M54.19,127.62s-2.14,3.45-8.7,2.07C45.49,129.69,48,125.77,54.19,127.62Z" style="fill: #c59a6a"/>
          <path d="M51.72,126.12c.35,0-2.48-4.91-9.44-3.66A10.54,10.54,0,0,0,51.72,126.12Z" style="fill: #c59a6a"/>
          <path d="M48.3,126.76c.19-.14-5.15-3.33-12.64.37C35.66,127.13,42.35,131.06,48.3,126.76Z" style="fill: #c59a6a"/>
        </g>
        <g>
          <path d="M119.17,157.67c.37,0-.39-5.53-8.43-7.78,0,0,2.06,7.06,8,7.75Z" style="fill: #c59a6a"/>
          <path d="M119.22,158.63c.58.2-5.43,5.68-11.3,2.32C107.92,161,111.59,156,119.22,158.63Z" style="fill: #c59a6a"/>
          <path d="M113.34,156.78c.56.13-.93-5.19-7.12-8.74C106.22,148,106.64,155.18,113.34,156.78Z" style="fill: #c59a6a"/>
          <path d="M111.38,157.13c.27-.08-4.77-4.65-12.12-1.44C99.26,155.69,103.21,159.71,111.38,157.13Z" style="fill: #c59a6a"/>
          <path d="M107.46,154.07s-.37-6-8.13-8.34C99.33,145.73,101.59,152.22,107.46,154.07Z" style="fill: #c59a6a"/>
          <path d="M103.41,152.76c.23-.1-5.3-3.72-11-.8C92.39,152,96.63,155.67,103.41,152.76Z" style="fill: #c59a6a"/>
          <path d="M100.32,150c.34,0-1.14-4.35-6.2-6C94.12,144.05,95.4,149.64,100.32,150Z" style="fill: #c59a6a"/>
          <path d="M96.6,149.83s-3.22,2.67-9-.49C87.63,149.34,91.37,146.33,96.6,149.83Z" style="fill: #c59a6a"/>
          <path d="M94.77,147.71c.35.06-.66-5.37-7.7-6.15A9.73,9.73,0,0,0,94.77,147.71Z" style="fill: #c59a6a"/>
          <path d="M91.3,147.34c.23-.07-3.75-4.62-12.13-3.22C79.17,144.12,84.17,149.75,91.3,147.34Z" style="fill: #c59a6a"/>
        </g>
        <g>
          <path d="M82.17,108.7c0,.34-6.12,0-9.18-7,0,0,7.92,1.34,9.11,6.66C82.12,108.44,82.15,108.57,82.17,108.7Z" style="fill: #c59a6a"/>
          <path d="M83.23,108.68c.26.51,5.86-5.32,1.73-10.37C85,98.31,79.72,102,83.23,108.68Z" style="fill: #c59a6a"/>
          <path d="M80.76,103.51c.19.49-5.78-.46-10.15-5.8C70.61,97.71,78.52,97.58,80.76,103.51Z" style="fill: #c59a6a"/>
          <path d="M81,101.72c-.07.24-5.47-4-2.47-10.85C78.54,90.87,83.25,94.14,81,101.72Z" style="fill: #c59a6a"/>
          <path d="M77.35,98.39a11.16,11.16,0,0,1-9.78-6.73S74.89,93.23,77.35,98.39Z" style="fill: #c59a6a"/>
          <path d="M75.61,94.83c-.09.22-4.48-4.51-1.68-9.89C73.93,84.94,78.32,88.5,75.61,94.83Z" style="fill: #c59a6a"/>
          <path d="M72.38,92.24c.06.31-4.88-.71-7-5.16C65.34,87.08,71.6,87.83,72.38,92.24Z" style="fill: #c59a6a"/>
          <path d="M71.89,88.9s2.7-3.11-1.2-8.07C70.69,80.83,67.65,84.43,71.89,88.9Z" style="fill: #c59a6a"/>
          <path d="M69.42,87.4c.09.31-6-.21-7.34-6.51C62.08,80.89,67.83,82,69.42,87.4Z" style="fill: #c59a6a"/>
          <path d="M68.77,84.29c-.07.22-5.37-3-4.44-10.72C64.33,73.57,70.89,77.68,68.77,84.29Z" style="fill: #c59a6a"/>
        </g>
        <g>
          <path d="M230.68,205.63c-.34-.75-49.72-33.11-73.55-48.64s-30.39-19.5-45.91-23.81-39.14-21.31-52.39-29.89" style="fill: none;stroke: #c59a6a;stroke-linecap: round;stroke-miterlimit: 10;stroke-width: 0.5px"/>
          <path d="M173.6,167.75s-20.58-4.92-34.52-3.62a201.1,201.1,0,0,1-20.39,1.17" style="fill: none;stroke: #c59a6a;stroke-linecap: round;stroke-miterlimit: 10;stroke-width: 0.5px"/>
          <path d="M117.47,157c1.58-.47,10.43,6.26,24.44,7" style="fill: none;stroke: #c59a6a;stroke-linecap: round;stroke-miterlimit: 10;stroke-width: 0.5px"/>
          <path d="M125.09,114.2s9.09,3.79,9.75,12.44,1.43,17,8.28,21.34" style="fill: none;stroke: #c59a6a;stroke-linecap: round;stroke-miterlimit: 10;stroke-width: 0.5px"/>
          <path d="M138.66,116.66s.7,4.68-3.74,11" style="fill: none;stroke: #c59a6a;stroke-linecap: round;stroke-miterlimit: 10;stroke-width: 0.5px"/>
          <path d="M83.26,106.05s-1.77,3,4.6,8.41,14.64,10.26,15.57,15.86" style="fill: none;stroke: #c59a6a;stroke-linecap: round;stroke-miterlimit: 10;stroke-width: 0.5px"/>
          <path d="M77,129.6s14.74,3.49,22.33-1.22" style="fill: none;stroke: #c59a6a;stroke-linecap: round;stroke-miterlimit: 10;stroke-width: 0.5px"/>
        </g>
      </g>
    </g>
    <g>
      <path d="M110,255c-6.24-12.22-18.91-37-22.49-43.36-4.81-8.57-9.92-13.76-22.44-6.08C55.88,211.21,62.83,240,67.19,255Z" style="fill: #e4e4e4"/>
      <path d="M97.37,234.88c.65-2.8-3.25-9.53-11.09-22.87-2.7-4.6-4.33-7.23-7.59-8.33-4.48-1.5-9.31.83-11.51,2.51-7,5.38-7.49,19.69-1.19,35.54.83.82,6.76,6.55,15.47,5.7C89,246.69,95.88,241.32,97.37,234.88Z" style="fill: #f0f0f0"/>
      <path d="M86.94,221.74s-4.52-6.8-11.89-4.48c-6.49,2-9,7.27-8.41,11l12,2.55Z" style="fill: #fdc760"/>
      <path d="M86.58,222.07a16.2,16.2,0,0,0-2.45-2.57A10.54,10.54,0,0,0,80,217a8.45,8.45,0,0,0-5.39.5L78.68,231Z" style="fill: #fde390"/>
      <g>
        <path d="M83.16,216.31a2.14,2.14,0,0,0,4.28-.21,1.68,1.68,0,0,0-1.91-1.8C84.34,214.36,83.1,215.13,83.16,216.31Z" style="fill: #134767"/>
        <path d="M85.7,216.26a.77.77,0,1,0,0-1.53.61.61,0,0,0-.68.65C85,215.8,85.28,216.26,85.7,216.26Z" style="fill: #fff"/>
      </g>
      <g>
        <path d="M66.16,224.05a2.11,2.11,0,0,0-2.47-3.43,1.67,1.67,0,0,0-.46,2.55C63.91,224.11,65.21,224.73,66.16,224.05Z" style="fill: #134767"/>
        <path d="M64.32,222.75a.75.75,0,1,0,0-1.5.59.59,0,0,0-.67.63C63.66,222.3,63.91,222.75,64.32,222.75Z" style="fill: #fff"/>
      </g>
    </g>
    <g>
      <path d="M322.24,255c1.29-10.58,3.47-35.95-4.91-39.11-10.59-4-13.77.51-16.25,7.46-1.66,4.65-6.89,21.21-10.16,31.65Z" style="fill: #e4e4e4"/>
      <path d="M296.78,241.76c-.88-2,1.17-7.45,5.31-18.31,1.42-3.74,2.3-5.9,4.63-7.14,3.21-1.7,7.21-.62,9.11.32,6.09,3,8.4,13.5,5.78,26a15.46,15.46,0,0,1-11,6.25C304.8,249.34,298.8,246.3,296.78,241.76Z" style="fill: #f0f0f0"/>
      <path d="M302.92,230.7s2.51-5.61,8.44-4.88c5.22.64,7.88,4.16,7.91,7l-8.8,3.47Z" style="fill: #fdc760"/>
      <path d="M303.24,230.9a12,12,0,0,1,1.51-2.22,8,8,0,0,1,2.82-2.39,6.71,6.71,0,0,1,4.17-.35l-1.26,10.46Z" style="fill: #fde390"/>
      <g>
        <path d="M305.05,226.2a1.62,1.62,0,0,1-1.43,1.8,1.66,1.66,0,0,1-1.86-1.39A1.27,1.27,0,0,1,303,225C303.88,224.92,304.94,225.32,305.05,226.2Z" style="fill: #134767"/>
        <path d="M303.11,226.5a.59.59,0,0,1-.69-.45.58.58,0,0,1,.47-.67.47.47,0,0,1,.61.38C303.56,226.07,303.43,226.45,303.11,226.5Z" style="fill: #fff"/>
      </g>
      <g>
        <path d="M319.06,229.65a1.56,1.56,0,0,1-.77-2.11,1.66,1.66,0,0,1,2.18-.75,1.24,1.24,0,0,1,.7,1.82A1.74,1.74,0,0,1,319.06,229.65Z" style="fill: #134767"/>
        <path d="M320.28,228.45a.59.59,0,0,1-.68-.45.57.57,0,0,1,.46-.66.46.46,0,0,1,.6.38A.6.6,0,0,1,320.28,228.45Z" style="fill: #fff"/>
      </g>
    </g>
    <g id="big">
      <path d="M388.76,255c-.09-1.21-.17-2.62-.2-4.19-.29-15.24,4.22-19.69,2.43-29.95-.66-3.74-1.19-12.15-7.72-14.3-7.23-2.37-11.9-2.18-15.17-.35-3.1,1.73-4.68,4.52-6.7,9.11-6.57,15-6.48,23.62-11.84,36.49-.43,1-.91,2.1-1.42,3.19Z" style="fill: #dfe0e1"/>
      <path d="M389.56,228.81a20.42,20.42,0,0,1-9,12c-7.73,4.86-19.67,5.2-23,0-1.12-1.77.29-6.52,3-16,3.34-11.71,5.07-14.48,8-16a12.75,12.75,0,0,1,7-1,16.37,16.37,0,0,1,10,4C392.14,217.9,389.75,228.05,389.56,228.81Z" style="fill: #f0f0f0"/>
      <path d="M380.72,228a29.45,29.45,0,0,1,7,2,29.87,29.87,0,0,1,10,7" style="fill: none;stroke: #b99250;stroke-miterlimit: 10;stroke-width: 0.5px"/>
      <g>
        <path d="M387.36,229.31c-.1-.13,2-1.25,4.84,1,0,0-3,1-4.72-.88Z" style="fill: #b99250"/>
        <path d="M387,229.53c-.21-.16-.64,3.32,2,4.55C389,234.08,389.86,231.54,387,229.53Z" style="fill: #b99250"/>
        <path d="M389.13,231.13c-.19-.16,2.05-1,4.84.32A4.21,4.21,0,0,1,389.13,231.13Z" style="fill: #b99250"/>
        <path d="M389.49,231.91c0-.12,2.83.51,3.53,3.89C393,235.8,390.63,235.42,389.49,231.91Z" style="fill: #b99250"/>
        <path d="M391.55,232.52s2.19-1.36,4.95.78A6.17,6.17,0,0,1,391.55,232.52Z" style="fill: #b99250"/>
        <path d="M393,233.62a4.7,4.7,0,0,1,3,3.66A4.53,4.53,0,0,1,393,233.62Z" style="fill: #b99250"/>
        <path d="M394.74,234a3.67,3.67,0,0,1,3.65.68S396.11,235.65,394.74,234Z" style="fill: #b99250"/>
        <path d="M395.74,235.27s-.13,1.8,2.42,3A3.27,3.27,0,0,0,395.74,235.27Z" style="fill: #b99250"/>
        <path d="M397,235.39c-.11-.11,2.05-1.11,4.08,1.17A4.21,4.21,0,0,1,397,235.39Z" style="fill: #b99250"/>
        <path d="M397.94,236.51c0-.1,2.56.17,4.16,3.46A5.12,5.12,0,0,1,397.94,236.51Z" style="fill: #b99250"/>
      </g>
      <g>
        <path d="M363.88,224a11.5,11.5,0,0,1,11.36-5.73c7,.75,10.61,4.88,10.64,8.2L374,230.49Z" style="fill: #fdc760"/>
        <path d="M364.31,224.18a14,14,0,0,1,2-2.6,10.45,10.45,0,0,1,3.8-2.81,10.3,10.3,0,0,1,5.61-.41l-1.7,12.28Z" style="fill: #fde390"/>
        <g>
          <path d="M366.75,218.67a2,2,0,0,1-1.93,2.1,2.18,2.18,0,0,1-2.5-1.62c-.15-1,.41-1.72,1.63-1.85S366.59,217.64,366.75,218.67Z" style="fill: #134767"/>
          <path d="M364.14,219a.8.8,0,0,1-.93-.53.69.69,0,0,1,.63-.79c.44-.07.74.09.82.45A.69.69,0,0,1,364.14,219Z" style="fill: #fff"/>
        </g>
        <g>
          <path d="M385.6,222.71a1.74,1.74,0,0,1-1-2.47,2.39,2.39,0,0,1,2.93-.88c1.1.44,1.47,1.2.95,2.13A2.44,2.44,0,0,1,385.6,222.71Z" style="fill: #134767"/>
          <path d="M387.24,221.3a.79.79,0,0,1-.92-.53A.68.68,0,0,1,387,220c.42-.07.72.09.8.45A.68.68,0,0,1,387.24,221.3Z" style="fill: #fff"/>
        </g>
      </g>
    </g>
    <use width="281.43" height="235.81" transform="matrix(-0.08, -0.11, 0.14, -0.08, 142.78, 268.27)" xlink:href="#feather_2"/>
    <use width="281.43" height="235.81" transform="matrix(0.07, -0.01, 0.01, 0.09, 20.63, 172.35)" xlink:href="#feather_2"/>
  </g>
</svg>
