<svg xmlns="http://www.w3.org/2000/svg" xmlns:xlink="http://www.w3.org/1999/xlink" viewBox="0 0 424 255">
  <defs>
    <symbol id="goldGoldBig" data-name="goldGoldBig" viewBox="0 0 317 322">
      <g>
        <path d="M308.08,114.5a155.52,155.52,0,0,1-272,140.6A156.61,156.61,0,0,1,22,235.32a155.53,155.53,0,0,0,286-120.82Z" style="fill: #c4924a"/>
        <path d="M4,160.5A155.5,155.5,0,0,1,278.91,60.9,155.51,155.51,0,0,0,22,235.32a154.41,154.41,0,0,1-9.11-22.82A155.19,155.19,0,0,1,4,160.5Z" style="fill: #f9f0c5"/>
        <path d="M308.08,114.5A154.87,154.87,0,0,0,295,86.68,156,156,0,0,0,278.91,60.9a154.86,154.86,0,1,0,29.17,53.6Z" style="fill: #f2cb7c"/>
      </g>
      <g>
        <circle cx="162" cy="163" r="115" style="fill: #f9f0c5"/>
        <circle cx="160" cy="159" r="115" style="fill: #e6b364"/>
        <circle cx="161.5" cy="161.5" r="114" style="fill: #fdd377"/>
      </g>
      <path d="M314.07,134.57a155,155,0,0,0-7.79-25.15C284.92,194.75,204.35,252.73,117,241.67A169.66,169.66,0,0,1,6.48,180.08q.88,7.42,2.46,14.65a155.54,155.54,0,0,0,305.13-60.16Z" style="fill: #8a6239;opacity: 0.1"/>
    </symbol>
    <symbol id="starCoin_3" data-name="starCoin 3" viewBox="0 0 138.56 140.75">
      <use width="317" height="322" transform="scale(0.44)" xlink:href="#goldGoldBig"/>
      <path d="M59.46,64.32a8.47,8.47,0,0,0,5.6-4.26l4.7-10.15c.92-2,2.53-2,3.58-.12l5.44,10a8.66,8.66,0,0,0,5.86,4l11.55,1.36c2.17.25,2.69,1.73,1.15,3.29l-7.94,8a8.26,8.26,0,0,0-2,6.72l2.32,11c.46,2.14-.79,3.12-2.76,2.17l-10.45-5a8.71,8.71,0,0,0-7.07.18l-10,5.5c-1.91,1-3.24.14-2.93-2l1.54-11.07a8.38,8.38,0,0,0-2.41-6.59l-8.56-7.7c-1.62-1.46-1.19-3,1-3.32Z" style="fill: #fde390;fill-rule: evenodd"/>
      <path d="M57.46,62.32a8.47,8.47,0,0,0,5.6-4.26l4.7-10.15c.92-2,2.53-2,3.58-.12l5.44,10a8.66,8.66,0,0,0,5.86,4l11.55,1.36c2.17.25,2.69,1.73,1.15,3.29l-7.94,8a8.26,8.26,0,0,0-2,6.72l2.32,11c.46,2.14-.79,3.12-2.76,2.17l-10.45-5a8.71,8.71,0,0,0-7.07.18l-10,5.5c-1.91,1-3.24.14-2.93-2l1.54-11.07a8.38,8.38,0,0,0-2.41-6.59l-8.56-7.7c-1.62-1.46-1.19-3,1-3.32Z" style="fill: #d9a761;fill-rule: evenodd"/>
      <path d="M58.46,63.32a8.47,8.47,0,0,0,5.6-4.26l4.7-10.15c.92-2,2.53-2,3.58-.12l5.44,10a8.66,8.66,0,0,0,5.86,4l11.55,1.36c2.17.25,2.69,1.73,1.15,3.29l-7.94,8a8.26,8.26,0,0,0-2,6.72l2.32,11c.46,2.14-.79,3.12-2.76,2.17l-10.45-5a8.71,8.71,0,0,0-7.07.18l-10,5.5c-1.91,1-3.24.14-2.93-2l1.54-11.07a8.38,8.38,0,0,0-2.41-6.59l-8.56-7.7c-1.62-1.46-1.19-3,1-3.32Z" style="fill: #e6b364;fill-rule: evenodd"/>
    </symbol>
  </defs>
  <title>hsiq</title>
  <g id="hsiq">
    <g id="Layer_7" data-name="Layer 7">
      <path d="M245.27,114.2h3c3.67-5.4,21.37-9.49,42.69-9.49,2.21,0,4.36.06,6.49.14,10.12-4.68,29.35-7.85,51.41-7.85,32.6,0,59,6.9,59,15.42a4.68,4.68,0,0,1-.75,2.46h0c.85.12,1.66.26,2.45.41l.25,0c.68.13,1.32.27,1.93.42l.32.07a25.48,25.48,0,0,1,3.48,1.13l.32.14c.4.18.76.36,1.09.55l.19.11a6.59,6.59,0,0,1,.93.68l.16.16a3.83,3.83,0,0,1,.46.57,2.12,2.12,0,0,1,.11.21,1.68,1.68,0,0,1,.2.75c0,3.27-10,5.93-22.27,5.93H245.27c-12.3,0-22.27-2.66-22.27-5.93S233,114.2,245.27,114.2Z" style="fill: #ebf7f6;fill-opacity: 0.75"/>
      <g>
        <g>
          <g>
            <g>
              <path d="M83.46,170.22,91,167.66c3.91-1.35,9.38-3.22,19-6.42l16.37-5.4,10.38-3.41c6-2,11.5-3.75,15.5-5L157,146a11.16,11.16,0,0,1,1.82-.47,62.67,62.67,0,0,1-6.13,2.35c-3.86,1.38-9.21,3.28-15.16,5.33l-16.19,5.54-10.3,3.53-7.56,2.65-18.76,6.59c-12,4.19-21.94,7.22-22.36,6.8S71.35,174.26,83.46,170.22Z" style="fill: #ffd46f"/>
              <path d="M103.6,134.46l4.8-.34c2.49-.19,6-.45,12-.85l10.33-.65,6.55-.42c3.79-.25,7.24-.44,9.75-.55a27.74,27.74,0,0,1,4.09-.05c.05.16-6.06.77-13.63,1.35l-10.28.76-6.56.48-4.82.39-12,1c-7.65.58-13.86.78-14,.44S95.94,135,103.6,134.46Z" style="fill: #ffd46f"/>
              <path d="M43.19,138.51c1.68-.11,2.24-.16,3.49-.26,1.8-.16,4.32-.37,8.75-.65l7.52-.42,4.76-.28c5.53-.35,10.08-.34,10.16,0s-4.31,1-9.81,1.41l-7.49.5-4.77.33c-1.7.12-2.26.17-3.5.29-1.8.17-4.32.41-8.71.73-5.56.41-10.13.33-10.25-.16S37.62,138.85,43.19,138.51Z" style="fill: #ffd46f"/>
              <path d="M70.66,128.54c-.88,0-1.17,0-1.83,0-1,0-2.27.08-4.6.08-2,0-3.05,0-3.94-.06l-2.5,0c-2.9,0-5.26-.37-5.28-.81s2.31-.77,5.21-.72c2,0,3.07,0,3.94.09l2.5,0c.9,0,1.19,0,1.84,0,1,0,2.28-.06,4.59,0,2.93,0,5.29.36,5.31.73S73.59,128.54,70.66,128.54Z" style="fill: #ffd46f"/>
              <path d="M144.93,156.75l-1.74.75c-.89.4-2.12,1-4.33,1.89L135.07,161l-2.4,1c-2.77,1.16-5.25,1.9-5.54,1.67s1.75-1.35,4.55-2.48l3.83-1.52,2.43-1,1.76-.74c.9-.4,2.15-.95,4.38-1.85,2.83-1.14,5.27-1.92,5.48-1.75S147.71,155.57,144.93,156.75Z" style="fill: #ffd46f"/>
              <path d="M119.12,167.93a4.27,4.27,0,0,0-.5.22,10.8,10.8,0,0,1-1.25.55c-.57.21-.89.31-1.16.39l-.74.24a2.48,2.48,0,0,1-2.06,0c-.3-.29.13-.76,1-1.06.58-.2.91-.3,1.17-.38a6.71,6.71,0,0,0,.74-.24,3.66,3.66,0,0,0,.52-.21,8.66,8.66,0,0,1,1.26-.54,2.51,2.51,0,0,1,2-.06C120.4,167.15,120,167.62,119.12,167.93Z" style="fill: #ffd46f"/>
              <path d="M86.06,145l4.12-.61c2.13-.32,5.1-.78,10.34-1.5,4.45-.6,6.89-.92,8.89-1.2l5.64-.76c6.53-.9,11.91-1.44,12-1.22S122,141,115.47,141.92l-8.84,1.29L101,144l-4.13.64c-2.13.35-5.09.83-10.27,1.6-6.56,1-12,1.46-12.13,1.08S79.47,145.92,86.06,145Z" style="fill: #ffd46f"/>
              <path d="M141.4,137.31l.82-.12c.42-.07,1-.16,2.05-.29l1.78-.2,1.13-.13a5.18,5.18,0,0,1,2.45,0c.05.18-1,.47-2.26.64l-1.77.22-1.12.14-.82.12c-.42.08-1,.18-2,.32-1.31.17-2.41.14-2.47-.07S140.08,137.47,141.4,137.31Z" style="fill: #ffd46f"/>
              <path d="M60,148.71a1.7,1.7,0,0,0,.45-.07,8.4,8.4,0,0,1,1.13-.16,8.58,8.58,0,0,1,1,0c.18,0,.32,0,.63,0,.73,0,1.41.25,1.52.66s-.37.8-1.08.85c-.5,0-.78,0-1,0s-.32,0-.63,0a1.7,1.7,0,0,0-.45.07,5.63,5.63,0,0,1-1.12.17c-.73.05-1.42-.26-1.54-.68S59.25,148.75,60,148.71Z" style="fill: #ffd46f"/>
              <path d="M120.59,148.77c.5-.11.66-.14,1-.24.52-.13,1.25-.33,2.55-.6l2.23-.45,1.4-.28c1.63-.35,3-.45,3.16-.22s-1.1.73-2.71,1.09c-1.11.26-1.71.38-2.2.47l-1.4.31a9.54,9.54,0,0,0-1,.25c-.52.14-1.25.33-2.54.62-1.62.37-3,.44-3.19.17S119,149.12,120.59,148.77Z" style="fill: #ffd46f"/>
              <path d="M79.54,158.3a8,8,0,0,0,.81-.2c.42-.11,1-.28,2.06-.49.89-.17,1.4-.25,1.81-.31s.58-.09,1.15-.2c1.31-.26,2.54-.18,2.73.16s-.72.87-2,1.14c-.9.19-1.4.27-1.8.34s-.59.09-1.15.21c-.4.08-.52.12-.81.2a18.27,18.27,0,0,1-2,.51c-1.32.27-2.56.18-2.77-.2S78.21,158.56,79.54,158.3Z" style="fill: #ffd46f"/>
              <path d="M98.53,154.16a7.48,7.48,0,0,0,.78-.19c.4-.11,1-.27,2-.47.86-.17,1.33-.25,1.73-.31s.55-.09,1.09-.2c1.26-.26,2.4-.22,2.56.08s-.74.77-2,1c-.86.18-1.33.26-1.71.33l-1.09.21a6,6,0,0,0-.79.2c-.39.11-.94.27-1.94.48-1.26.27-2.42.22-2.59-.11S97.26,154.41,98.53,154.16Z" style="fill: #ffd46f"/>
              <path d="M141.68,144l.43-.1a10.58,10.58,0,0,1,1.07-.25c.47-.1.73-.13.94-.16l.6-.11c.68-.13,1.28-.07,1.34.12s-.46.48-1.14.62c-.46.1-.72.14-.93.17l-.59.11a2.65,2.65,0,0,0-.43.11c-.21.06-.52.15-1.06.26-.69.14-1.3.08-1.36-.14S141,144.15,141.68,144Z" style="fill: #ffd46f"/>
            </g>
            <g>
              <path d="M151.32,207.47l3.58-4.71c1.84-2.45,4.4-5.87,9-11.8l7.92-10.06,5-6.37c2.9-3.7,5.6-7,7.59-9.43l2.4-2.83c.59-.67.94-1,1-1s-.16.41-.62,1.11-1.18,1.69-2,2.94c-1.75,2.46-4.22,5.86-7,9.59L170.58,185l-4.84,6.44-3.51,4.77c-1.79,2.47-4.3,5.9-8.65,11.87-5.57,7.55-10.63,13.46-11.37,13.25S145.51,215,151.32,207.47Z" style="fill: #ffd46f"/>
              <path d="M132.18,171.53l3.54-2c1.82-1,4.37-2.44,8.9-4.89l7.69-4.12,4.88-2.62c5.64-3.05,10.38-5.42,10.57-5.3s-4.17,2.75-9.71,5.86l-7.56,4.2-4.82,2.68-3.51,2-8.73,5c-5.59,3.14-10.41,5.46-10.8,5.2S126.49,174.6,132.18,171.53Z" style="fill: #ffd46f"/>
              <path d="M87.38,195.87c1.25-.67,1.66-.91,2.56-1.43,1.31-.75,3.13-1.81,6.43-3.58l5.65-3c1-.53,1.79-1,3.58-1.88,4.11-2.21,7.79-3.78,8.2-3.51s-2.52,2.33-6.56,4.58l-5.54,3L98.16,192c-1.25.69-1.65.92-2.54,1.45-1.28.77-3.08,1.85-6.31,3.63-4.09,2.27-7.84,3.79-8.41,3.43S83.22,198.09,87.38,195.87Z" style="fill: #ffd46f"/>
              <path d="M99.64,178.24c-.71.31-.94.42-1.45.67-.74.35-1.76.85-3.64,1.66-1.6.68-2.5,1-3.24,1.33l-2,.84c-2.35,1-4.61,1.52-5,1.17s1.13-1.44,3.51-2.42c1.64-.67,2.55-1,3.27-1.29l2.08-.83c.74-.3,1-.41,1.48-.66.75-.35,1.79-.83,3.68-1.62,2.4-1,4.63-1.54,5-1.24S102,177.22,99.64,178.24Z" style="fill: #ffd46f"/>
              <path d="M187.67,175.26l-.65,1.22c-.33.63-.77,1.51-1.64,3-.76,1.29-1.17,2-1.52,2.57l-1,1.63c-1.09,1.9-2.35,3.36-2.81,3.25s.1-1.72,1.25-3.61l1.59-2.55,1-1.63c.33-.59.44-.79.69-1.22.34-.63.81-1.5,1.72-3,1.15-1.91,2.34-3.38,2.67-3.3S188.76,173.34,187.67,175.26Z" style="fill: #ffd46f"/>
              <path d="M177.88,193.3a1.52,1.52,0,0,0-.19.34,3.51,3.51,0,0,1-.47.89c-.25.36-.42.55-.55.71l-.35.45a1.64,1.64,0,0,1-1.61.72c-.52-.14-.63-.68-.24-1.21a6,6,0,0,1,.57-.71c.12-.13.19-.23.36-.45a2,2,0,0,0,.2-.35,3.8,3.8,0,0,1,.49-.88,1.68,1.68,0,0,1,1.57-.73C178.15,192.21,178.25,192.75,177.88,193.3Z" style="fill: #ffd46f"/>
              <path d="M128.4,186.22l2.74-1.92c1.4-1,3.36-2.42,6.87-4.82l6-4.07,3.8-2.58c4.38-3,8.18-5.3,8.48-5.14s-3,2.78-7.24,5.83l-5.87,4.12-3.73,2.62-2.71,2c-1.38,1-3.3,2.45-6.72,4.87-4.33,3.08-8.22,5.34-8.71,5.08S124,189.25,128.4,186.22Z" style="fill: #ffd46f"/>
              <path d="M165.51,160.72c.27-.18.36-.24.54-.38s.66-.49,1.38-1l1.24-.77.78-.5c.89-.58,1.78-.94,2-.8s-.33.73-1.2,1.33l-1.22.78-.77.5-.54.39c-.26.21-.64.5-1.34,1-.89.59-1.8.94-2,.78S164.6,161.31,165.51,160.72Z" style="fill: #ffd46f"/>
              <path d="M111,198.29a.87.87,0,0,0,.29-.21,3.5,3.5,0,0,1,.75-.52,5.56,5.56,0,0,1,.79-.36c.14-.06.26-.11.49-.23a2,2,0,0,1,1.85,0c.49.31.46.8-.07,1.09a6.82,6.82,0,0,1-.77.37,3.9,3.9,0,0,0-.48.23,1.17,1.17,0,0,0-.3.21,2.88,2.88,0,0,1-.73.54,2.1,2.1,0,0,1-1.89,0C110.41,199.07,110.44,198.58,111,198.29Z" style="fill: #ffd46f"/>
              <path d="M160.1,177.24c.3-.26.39-.35.59-.55s.68-.7,1.46-1.38l1.36-1.13.86-.73c1-.84,2-1.43,2.37-1.29s-.14.94-1.08,1.8c-.65.59-1,.9-1.32,1.15l-.84.73c-.3.27-.39.36-.58.56s-.67.7-1.43,1.39c-1,.86-2.05,1.43-2.45,1.27S159.11,178.09,160.1,177.24Z" style="fill: #ffd46f"/>
              <path d="M136.3,199.22a4.19,4.19,0,0,0,.47-.45,10.67,10.67,0,0,1,1.17-1.1c.56-.46.89-.69,1.17-.89s.38-.28.73-.56a3,3,0,0,1,2.39-.85c.53.21.31.93-.48,1.61-.54.46-.87.7-1.13.89s-.38.29-.72.58a4,4,0,0,0-.46.45,9,9,0,0,1-1.13,1.11,3,3,0,0,1-2.48.83C135.27,200.61,135.47,199.89,136.3,199.22Z" style="fill: #ffd46f"/>
              <path d="M147.58,189.25a3.17,3.17,0,0,0,.45-.42,9.91,9.91,0,0,1,1.13-1.06c.52-.44.83-.67,1.09-.86l.69-.55a2.84,2.84,0,0,1,2.18-.84c.44.18.19.85-.55,1.5-.52.45-.82.68-1.06.87s-.36.28-.68.55a4.59,4.59,0,0,0-.44.43,8.42,8.42,0,0,1-1.09,1.07,2.79,2.79,0,0,1-2.24.84C146.57,190.58,146.81,189.9,147.58,189.25Z" style="fill: #ffd46f"/>
              <path d="M172.48,166.05a1.34,1.34,0,0,0,.24-.23,6.78,6.78,0,0,1,.62-.58c.29-.23.47-.36.61-.45s.19-.16.38-.3a1.4,1.4,0,0,1,1.23-.39c.26.13.14.52-.27.87s-.45.37-.59.47-.19.14-.38.29a1.79,1.79,0,0,0-.24.24,7.1,7.1,0,0,1-.6.58,1.43,1.43,0,0,1-1.27.39C171.92,166.79,172,166.4,172.48,166.05Z" style="fill: #ffd46f"/>
            </g>
            <g>
              <path d="M243.19,214.07c-.85-2.43-1.13-3.24-1.77-5-.94-2.63-2.26-6.29-4.39-12.71-1.79-5.45-2.76-8.43-3.57-10.89l-2.26-6.91c-1.33-4-2.44-7.63-3.21-10.26-.37-1.32-.66-2.38-.87-3.12s-.25-1.15-.18-1.15a22,22,0,0,1,1.87,4.19c1,2.6,2.39,6.2,3.84,10.19l3.86,10.83c.73,2,1.25,3.51,2.47,6.9l1.89,5.07,4.76,12.61c3,8,4.76,14.6,4,14.71S245.91,222.15,243.19,214.07Z" style="fill: #ffd46f"/>
              <path d="M192,191.69c.45-1.35.59-1.8.92-2.81.46-1.45,1.1-3.49,2.33-7,1.07-3,1.65-4.66,2.13-6l1.34-3.82c.76-2.21,1.52-4.22,2.12-5.66A7.46,7.46,0,0,1,202,164c.28,0-.62,3.64-2,8.09l-1.94,6c-.36,1.14-.63,2-1.24,3.84-.41,1.38-.55,1.83-.85,2.84-.44,1.46-1,3.5-2.13,7.06-1.4,4.48-3,8-3.56,8S190.44,196.16,192,191.69Z" style="fill: #ffd46f"/>
              <path d="M180,227c.35-1,.44-1.31.65-2.05.31-1.06.74-2.54,1.65-5.13.81-2.19,1.26-3.38,1.63-4.37.28-.78.5-1.39,1-2.77,1.14-3.22,2.56-5.78,3.17-5.72s.28,2.73-.75,6c-.75,2.21-1.15,3.41-1.48,4.37s-.49,1.42-1,2.79c-.32,1-.42,1.33-.61,2.07-.26,1.06-.66,2.55-1.49,5.13-1.05,3.25-2.57,5.81-3.4,5.73S178.79,230.23,180,227Z" style="fill: #ffd46f"/>
              <path d="M172.32,208.44a9.65,9.65,0,0,0-.51,1c-.24.54-.57,1.31-1.29,2.62-.62,1.11-1,1.71-1.31,2.2l-.82,1.4c-.91,1.63-2.24,2.86-2.93,2.7s-.5-1.59.46-3.21c.66-1.11,1.05-1.7,1.37-2.18l.85-1.39a7.8,7.8,0,0,0,.55-1.05,27.08,27.08,0,0,1,1.37-2.59c1-1.63,2.21-2.84,2.79-2.71S173.23,206.79,172.32,208.44Z" style="fill: #ffd46f"/>
              <path d="M240.65,175.32c.33.58.43.77.67,1.21.37.62.89,1.49,1.69,3l1.33,2.62c.24.47.42.84.84,1.66,1,1.92,1.44,3.56,1,3.66s-1.65-1.45-2.58-3.37c-.63-1.33-1-2-1.25-2.62s-.41-.85-.8-1.67l-.65-1.22c-.35-.63-.83-1.51-1.6-3-1-1.95-1.43-3.52-1.11-3.6S239.63,173.38,240.65,175.32Z" style="fill: #ffd46f"/>
              <path d="M250.61,193.31a1.15,1.15,0,0,0,.2.35,4.64,4.64,0,0,1,.49.88,6.18,6.18,0,0,1,.26.77c.05.14.09.25.17.5a.8.8,0,0,1-.56,1.18,1.42,1.42,0,0,1-1.41-.9,5.21,5.21,0,0,1-.24-.77,2.25,2.25,0,0,0-.16-.49,1.1,1.1,0,0,0-.18-.36,4,4,0,0,1-.47-.88.79.79,0,0,1,.54-1.15A1.39,1.39,0,0,1,250.61,193.31Z" style="fill: #ffd46f"/>
              <path d="M203.57,204.81c.14-1.21.19-1.61.3-2.51.13-1.3.31-3.12.76-6.29.41-2.69.63-4.16.81-5.38.15-1,.26-1.71.51-3.41.56-3.95,1.34-7.16,1.74-7.15s.39,3.24,0,7.2c-.33,2.71-.51,4.19-.65,5.37-.13,1-.22,1.75-.42,3.43-.12,1.22-.16,1.63-.24,2.53-.09,1.3-.23,3.12-.58,6.28-.44,4-1.34,7.19-2,7.17S203,208.8,203.57,204.81Z" style="fill: #ffd46f"/>
              <path d="M208.2,171.26a2.76,2.76,0,0,0,.06-.51,11.89,11.89,0,0,1,.16-1.25c.12-.53.18-.82.23-1.06l.14-.68c.15-.78.51-1.39.81-1.37s.46.68.35,1.46c-.11.54-.16.83-.2,1.07s-.07.34-.12.67a3.9,3.9,0,0,0-.06.5,7.69,7.69,0,0,1-.12,1.25c-.12.8-.52,1.41-.87,1.38S208.05,172,208.2,171.26Z" style="fill: #ffd46f"/>
              <path d="M201.49,220.64a.59.59,0,0,0,0-.28,1.42,1.42,0,0,1,.08-.68,2.48,2.48,0,0,1,.28-.57,3.21,3.21,0,0,0,.17-.36c.14-.43.83-.72,1.52-.67s1.16.45,1,.87a2.87,2.87,0,0,1-.25.58,1.57,1.57,0,0,0-.16.36.38.38,0,0,0,0,.27,1.26,1.26,0,0,1-.06.69c-.14.42-.85.72-1.57.67S201.33,221.07,201.49,220.64Z" style="fill: #ffd46f"/>
              <path d="M220.28,186.48a5.15,5.15,0,0,0-.07-.66,11.39,11.39,0,0,1-.18-1.62c0-.7,0-1.08,0-1.39s0-.44,0-.88c0-1,.23-1.85.64-1.85s.83.83.92,1.85c.05.7.06,1.08.07,1.39s0,.45,0,.88a4.43,4.43,0,0,0,.09.65,11.64,11.64,0,0,1,.22,1.62c.08,1-.24,1.86-.72,1.86S220.33,187.51,220.28,186.48Z" style="fill: #ffd46f"/>
              <path d="M222.85,212.54a2,2,0,0,0-.06-.52,5.33,5.33,0,0,1-.15-1.31,7.05,7.05,0,0,1,.06-1.11,6.24,6.24,0,0,0,0-.71c0-.82.49-1.5,1.11-1.5a1.4,1.4,0,0,1,1.19,1.49,7,7,0,0,1,0,1.11,5.15,5.15,0,0,0,0,.71,2,2,0,0,0,.07.53,5.12,5.12,0,0,1,.19,1.3,1.34,1.34,0,0,1-1.18,1.5A1.36,1.36,0,0,1,222.85,212.54Z" style="fill: #ffd46f"/>
              <path d="M222.09,200.56a1.8,1.8,0,0,0-.06-.5,6,6,0,0,1-.15-1.25,8.88,8.88,0,0,1,0-1.07c0-.19,0-.34,0-.68,0-.78.39-1.42.92-1.42s1,.64,1,1.43a7.16,7.16,0,0,1,0,1.06c0,.2,0,.35,0,.68a1.69,1.69,0,0,0,.08.5,6.29,6.29,0,0,1,.18,1.25c0,.79-.41,1.43-1,1.43S222.1,201.35,222.09,200.56Z" style="fill: #ffd46f"/>
              <path d="M219.19,173.12a1.06,1.06,0,0,0,0-.27,3,3,0,0,1-.07-.68,3.82,3.82,0,0,1,0-.58c0-.11,0-.19,0-.37a.66.66,0,0,1,.62-.73.83.83,0,0,1,.65.83c0,.29,0,.45,0,.58s0,.18,0,.36a1.14,1.14,0,0,0,0,.28,2.57,2.57,0,0,1,.1.68.66.66,0,0,1-.65.73A.79.79,0,0,1,219.19,173.12Z" style="fill: #ffd46f"/>
            </g>
            <g>
              <path d="M324,187.33l-6.45-3.47c-3.37-1.79-8.07-4.29-16.17-8.73l-13.7-7.56-8.69-4.8c-5.05-2.77-9.56-5.32-12.81-7.19l-3.81-2.22a6.55,6.55,0,0,1-1.31-.88,54.75,54.75,0,0,1,5.68,2.73c3.42,1.75,8.11,4.18,13.23,6.91l13.89,7.41,8.85,4.72,6.58,3.45,16.38,8.54c10.4,5.46,18.33,10.14,17.79,10.5S334.22,192.91,324,187.33Z" style="fill: #ffd46f"/>
              <path d="M260.4,187l-2-2.59c-1.08-1.34-2.58-3.22-5.11-6.52L249,172.32l-2.7-3.55c-1.58-2.06-2.95-4-3.9-5.32s-1.49-2.24-1.36-2.28,3.13,3.18,6.41,7.26l4.41,5.56c.84,1,1.43,1.79,2.81,3.54l2.12,2.59,5.29,6.45c3.32,4.12,5.55,7.55,5,7.7S263.58,191.2,260.4,187Z" style="fill: #ffd46f"/>
              <path d="M285.66,219.8c-.69-.92-.94-1.21-1.5-1.88-.81-1-1.94-2.32-3.76-4.73l-3-4.1-1.93-2.59c-2.27-3-3.66-5.57-3.11-5.73s3,2.13,5.33,5.1l3.13,4.06c.6.76,1,1.31,2,2.58.73.93,1,1.22,1.57,1.89.83,1,2,2.3,3.87,4.67,2.39,3,3.68,5.59,2.92,5.8S288,222.83,285.66,219.8Z" style="fill: #ffd46f"/>
              <path d="M261.11,207.45c.27.49.37.65.61,1a29.68,29.68,0,0,1,1.55,2.56c.61,1.12.89,1.73,1.13,2.24l.72,1.42c.88,1.63,1,3.08.32,3.22s-2-1.08-2.79-2.72c-.57-1.13-.84-1.75-1.06-2.25s-.35-.72-.69-1.42a11,11,0,0,0-.59-1,26,26,0,0,1-1.46-2.57c-.85-1.66-1.05-3.09-.46-3.21S260.21,205.8,261.11,207.45Z" style="fill: #ffd46f"/>
              <path d="M283.49,156.87l1.74.74c.91.38,2.19.9,4.38,1.87l3.65,1.65,2.33,1.05c2.71,1.2,4.67,2.37,4.37,2.6s-2.72-.58-5.4-1.81L291,161.28l-2.31-1.08-1.73-.76c-.91-.38-2.16-.93-4.31-1.9-2.7-1.24-4.7-2.37-4.48-2.54S280.74,155.66,283.49,156.87Z" style="fill: #ffd46f"/>
              <path d="M309.4,168a3,3,0,0,0,.5.22,10.91,10.91,0,0,1,1.26.53,11.1,11.1,0,0,1,1,.54l.63.34c.74.37,1.05.88.68,1.13a2.37,2.37,0,0,1-2-.23c-.5-.26-.76-.41-1-.54a6.93,6.93,0,0,0-.62-.34,5.12,5.12,0,0,0-.5-.23,10.45,10.45,0,0,1-1.25-.54c-.74-.39-1.06-.89-.71-1.13A2.54,2.54,0,0,1,309.4,168Z" style="fill: #ffd46f"/>
              <path d="M282.8,193.67l-2.24-2.14c-1.19-1.09-2.85-2.63-5.63-5.35l-4.68-4.64-3-2.93c-3.48-3.4-6-6.25-5.67-6.37s3.54,2.5,7.12,5.85l4.8,4.58,3.07,2.91,2.32,2.13c1.22,1.09,2.91,2.61,5.76,5.28,3.62,3.39,6.05,6.29,5.49,6.49S286.3,197.1,282.8,193.67Z" style="fill: #ffd46f"/>
              <path d="M253.25,164.91a5.72,5.72,0,0,0-.44-.43,12.64,12.64,0,0,1-1.11-1.06l-.87-.94-.56-.6c-.66-.68-1-1.3-.7-1.37s1.06.41,1.75,1.08l.89.93.57.59a5.34,5.34,0,0,0,.46.42c.25.21.6.51,1.14,1.05s1,1.31.65,1.41S253.91,165.6,253.25,164.91Z" style="fill: #ffd46f"/>
              <path d="M296.84,207.2a1.39,1.39,0,0,0-.25-.24,2.21,2.21,0,0,1-.61-.58,3.17,3.17,0,0,1-.34-.55,1.81,1.81,0,0,0-.22-.35c-.3-.39,0-.87.6-1a1.71,1.71,0,0,1,1.71.36,2.83,2.83,0,0,1,.36.54,1.36,1.36,0,0,0,.22.35,1.12,1.12,0,0,0,.25.24,2.3,2.3,0,0,1,.63.57c.3.4,0,.87-.63,1.07A1.66,1.66,0,0,1,296.84,207.2Z" style="fill: #ffd46f"/>
              <path d="M278.21,173.11l-.7-.5c-.38-.25-.92-.6-1.77-1.25l-1.39-1.11-.9-.71c-1.06-.81-1.67-1.59-1.36-1.74s1.46.36,2.54,1.15c.75.55,1.13.86,1.45,1.1l.91.7c.34.25.45.33.72.5s.93.59,1.79,1.23c1.1.8,1.67,1.61,1.31,1.78S279.28,173.93,278.21,173.11Z" style="fill: #ffd46f"/>
              <path d="M306.2,193.28a3.84,3.84,0,0,0-.56-.39,13.37,13.37,0,0,1-1.43-1c-.55-.45-.83-.71-1.06-.92a8.9,8.9,0,0,0-.67-.59c-.83-.66-1.11-1.38-.63-1.62a2.87,2.87,0,0,1,2.4.76c.58.45.87.7,1.1.91a8.54,8.54,0,0,0,.7.58,3.38,3.38,0,0,0,.58.4,11.17,11.17,0,0,1,1.44,1c.85.66,1.11,1.4.59,1.65A2.79,2.79,0,0,1,306.2,193.28Z" style="fill: #ffd46f"/>
              <path d="M293.67,183.86a4.56,4.56,0,0,0-.54-.38,13.53,13.53,0,0,1-1.36-1c-.55-.43-.82-.68-1-.88l-.67-.56c-.8-.63-1.12-1.3-.71-1.5s1.42.14,2.23.77a12,12,0,0,1,1.07.87l.68.54a3.47,3.47,0,0,0,.56.38,14.35,14.35,0,0,1,1.38,1c.83.62,1.12,1.32.67,1.53A2.76,2.76,0,0,1,293.67,183.86Z" style="fill: #ffd46f"/>
              <path d="M264.05,162.7a2.06,2.06,0,0,0-.29-.21A6.37,6.37,0,0,1,263,162l-.56-.48c-.09-.09-.17-.15-.35-.31-.42-.35-.55-.72-.27-.83a1.68,1.68,0,0,1,1.31.42c.3.23.45.37.57.47l.36.31a1.94,1.94,0,0,0,.3.2,7.74,7.74,0,0,1,.75.52c.45.35.55.73.25.85A1.59,1.59,0,0,1,264.05,162.7Z" style="fill: #ffd46f"/>
            </g>
            <g>
              <path d="M363,137.6l-8.67-.55c-4.51-.28-10.8-.66-21.77-1.42l-18.59-1.34-11.79-.84c-6.84-.48-13-1-17.49-1.34l-5.28-.47a13,13,0,0,1-1.92-.25,11.44,11.44,0,0,1,2,0l5.35.23c4.51.22,10.73.55,17.58,1l18.6,1.15,11.85.72,8.75.49,21.73,1.19c13.85.79,24.89,1.8,24.78,2.28S376.78,138.55,363,137.6Z" style="fill: #ffd46f"/>
              <path d="M311.19,159.52,307,158.13c-2.21-.71-5.28-1.71-10.6-3.5l-9-3.07-5.71-1.94c-6.63-2.24-11.89-4.17-11.74-4.31s5.73,1.5,12.43,3.67l9.08,3,5.78,1.89,4.28,1.37,10.68,3.39c6.76,2.18,12,4.18,11.66,4.47S317.89,161.79,311.19,159.52Z" style="fill: #ffd46f"/>
              <path d="M364.1,177.27c-1.47-.5-2-.66-3.08-1-1.62-.5-3.88-1.21-7.73-2.53l-6.5-2.26L342.66,170c-4.81-1.64-8.45-3.22-8.13-3.54s4.53.72,9.4,2.3l6.55,2.19,4.18,1.4c1.5.49,2,.65,3.13,1,1.63.49,3.91,1.17,7.78,2.44,4.9,1.61,8.49,3.25,8.07,3.68S369,178.93,364.1,177.27Z" style="fill: #ffd46f"/>
              <path d="M332,175.8c.71.31,1,.4,1.51.61.8.31,1.92.73,3.8,1.54,1.59.69,2.43,1.09,3.13,1.42l2,.89c2.33,1,3.85,2.13,3.41,2.48s-2.69-.21-5-1.25c-1.58-.72-2.41-1.12-3.08-1.45s-1-.46-2-.91c-.72-.32-1-.42-1.5-.63-.8-.31-1.91-.75-3.75-1.58-2.33-1-3.89-2.13-3.5-2.42S329.64,174.78,332,175.8Z" style="fill: #ffd46f"/>
              <path d="M300,127.1h2.15c1.11,0,2.67,0,5.39,0l4.6.07,2.92,0c3.38,0,6.1.29,6.07.58s-2.81.49-6.2.42l-4.59-.11-2.93-.06-2.16,0c-1.12,0-2.68,0-5.37,0-3.42-.06-6.15-.28-6.11-.49S296.59,127.08,300,127.1Z" style="fill: #ffd46f"/>
              <path d="M332,127.05a6.23,6.23,0,0,0,.63,0,15.44,15.44,0,0,1,1.56,0c.66,0,1,.06,1.31.09l.83.05c1,0,1.71.35,1.64.69s-.92.56-1.89.51c-.66,0-1-.07-1.31-.1l-.83-.07c-.31,0-.41,0-.63,0s-.78,0-1.56,0c-1,0-1.71-.34-1.64-.66S331,127,332,127.05Z" style="fill: #ffd46f"/>
              <path d="M336,157.12l-3.92-.94c-2.05-.48-4.91-1.15-9.87-2.38l-8.38-2.13-5.32-1.34c-6.17-1.55-11.08-3-10.95-3.2s5.3.78,11.52,2.25l8.44,2,5.36,1.29,4,.92c2.06.46,4.94,1.1,9.89,2.27,6.29,1.49,11.15,3,10.92,3.36S342.22,158.68,336,157.12Z" style="fill: #ffd46f"/>
              <path d="M283.56,144.1l-.79-.19c-.41-.09-1-.21-2-.47-.81-.24-1.26-.36-1.63-.46l-1-.29c-1.21-.33-2.1-.72-2-.88a5,5,0,0,1,2.44.26l1.65.44,1.05.28.79.18c.41.09,1,.21,2,.46,1.23.32,2.1.73,2,.92A4.51,4.51,0,0,1,283.56,144.1Z" style="fill: #ffd46f"/>
              <path d="M360.75,163.2a3.21,3.21,0,0,0-.43-.1,6.21,6.21,0,0,1-1.07-.26,8.15,8.15,0,0,1-.83-.33,4.13,4.13,0,0,0-.53-.21c-.64-.22-.91-.7-.61-1.07a1.65,1.65,0,0,1,1.7-.31,6.38,6.38,0,0,1,.84.32,4.71,4.71,0,0,0,.54.2,1.55,1.55,0,0,0,.43.1,5.23,5.23,0,0,1,1.08.25c.64.21.91.71.6,1.1A1.64,1.64,0,0,1,360.75,163.2Z" style="fill: #ffd46f"/>
              <path d="M311.63,142l-1.06-.16c-.56-.07-1.34-.17-2.67-.4l-2.24-.41-1.42-.26c-1.66-.28-2.91-.7-2.79-.93s1.57-.21,3.24.06c1.15.18,1.76.29,2.26.38l1.43.25,1.07.15c.57.06,1.35.16,2.68.37,1.68.27,2.92.71,2.77,1S313.3,142.33,311.63,142Z" style="fill: #ffd46f"/>
              <path d="M354.3,148.62a6.84,6.84,0,0,0-.85-.13c-.45-.05-1.08-.12-2.15-.32-.9-.17-1.38-.29-1.77-.38s-.57-.13-1.14-.24c-1.32-.24-2.25-.73-2.07-1.08s1.41-.45,2.74-.22c.92.16,1.4.27,1.79.35s.57.13,1.14.23c.41.07.55.09.86.12a19.87,19.87,0,0,1,2.15.3c1.34.23,2.26.74,2.06,1.13S355.64,148.87,354.3,148.62Z" style="fill: #ffd46f"/>
              <path d="M334.82,145.36a6.24,6.24,0,0,0-.82-.12c-.44-.06-1-.12-2.06-.3s-1.33-.27-1.71-.36l-1.09-.22c-1.27-.23-2.17-.66-2-1s1.33-.37,2.6-.15c.88.15,1.35.25,1.73.33s.55.11,1.09.2c.39.07.52.09.82.12s1.05.1,2.06.28c1.3.22,2.18.67,2,1S336.1,145.59,334.82,145.36Z" style="fill: #ffd46f"/>
              <path d="M289.85,138.55l-.45-.07c-.24,0-.57-.06-1.12-.17s-.72-.15-.93-.2l-.58-.12c-.69-.13-1.13-.39-1-.57a2.19,2.19,0,0,1,1.51-.11l.93.19.59.12c.21,0,.28,0,.45.06s.58.06,1.13.16,1.13.39,1,.59S290.54,138.68,289.85,138.55Z" style="fill: #ffd46f"/>
            </g>
            <path d="M357.91,125.51c.88,0,1.17,0,1.83,0,.95,0,2.27-.08,4.6-.08,2,0,3.05,0,3.94.06l2.5,0c2.9,0,5.26.38,5.28.81s-2.31.77-5.21.73c-2,0-3.06-.06-3.93-.1l-2.51,0c-.9,0-1.19,0-1.85,0-.95,0-2.27,0-4.58,0-2.93,0-5.29-.37-5.31-.74S355,125.5,357.91,125.51Z" style="fill: #ffd46f"/>
            <g>
              <path d="M128.56,126.94h-2.15c-1.11,0-2.67,0-5.39,0l-4.6-.06-2.92,0c-3.38,0-6.1-.29-6.07-.58s2.81-.48,6.2-.42l4.6.11,2.92.06,2.16,0c1.12,0,2.68,0,5.37,0,3.42.05,6.15.27,6.11.48S132,127,128.56,126.94Z" style="fill: #ffd46f"/>
              <path d="M96.57,127a4.11,4.11,0,0,0-.61,0,15.68,15.68,0,0,1-1.57,0c-.66,0-1-.06-1.31-.09l-.83,0c-1,0-1.71-.35-1.64-.68s.91-.57,1.89-.52c.66,0,1,.07,1.31.1s.42,0,.84.07a4.25,4.25,0,0,0,.62,0c.33,0,.78,0,1.56,0,1,0,1.71.34,1.64.66S97.56,127,96.57,127Z" style="fill: #ffd46f"/>
            </g>
          </g>
          <g>
            <g>
              <path d="M83.46,79.11l7.56,3c3.91,1.55,9.38,3.7,19,7.37l16.37,6.2,10.38,3.92c6,2.29,11.5,4.31,15.5,5.75L157,107a9.51,9.51,0,0,0,1.82.54,58,58,0,0,0-6.13-2.69c-3.86-1.6-9.21-3.77-15.16-6.13l-16.19-6.36-10.3-4.06-7.56-3L84.75,77.66c-12-4.8-21.94-8.28-22.36-7.8S71.35,74.47,83.46,79.11Z" style="fill: #ffd46f"/>
              <path d="M103.6,120.19l4.8.39c2.49.22,6,.52,12,1l10.33.75,6.55.48c3.79.28,7.24.5,9.75.63a24.13,24.13,0,0,0,4.09.06c.05-.19-6.06-.89-13.63-1.55l-10.28-.87-6.56-.56-4.82-.44-12-1.12c-7.65-.67-13.86-.89-14-.5S95.94,119.62,103.6,120.19Z" style="fill: #ffd46f"/>
              <path d="M43.19,115.54c1.68.12,2.24.18,3.49.3,1.8.18,4.32.43,8.75.74l7.52.49,4.76.32c5.52.4,10.08.38,10.16,0s-4.31-1.15-9.81-1.62l-7.49-.58-4.77-.37c-1.7-.14-2.26-.2-3.5-.34-1.8-.2-4.32-.47-8.71-.84-5.56-.47-10.13-.38-10.25.18S37.62,115.15,43.19,115.54Z" style="fill: #ffd46f"/>
              <path d="M70.66,127c-.88,0-1.17,0-1.83,0-1,0-2.27-.1-4.6-.09-2,0-3.05,0-3.94.06l-2.5,0c-2.9,0-5.27.43-5.28.93s2.31.88,5.21.83c2,0,3.07-.07,3.94-.1l2.5-.06c.9,0,1.19,0,1.84,0,1,0,2.28.07,4.59,0,2.93,0,5.29-.43,5.31-.85S73.59,127,70.66,127Z" style="fill: #ffd46f"/>
              <path d="M144.92,94.59l-1.73-.86c-.89-.46-2.12-1.1-4.33-2.18l-3.79-1.78-2.4-1.14c-2.77-1.33-5.25-2.19-5.54-1.92s1.75,1.55,4.55,2.85l3.83,1.74,2.43,1.11,1.76.85c.9.45,2.15,1.08,4.38,2.12,2.83,1.31,5.27,2.21,5.48,2S147.71,95.94,144.92,94.59Z" style="fill: #ffd46f"/>
              <path d="M119.12,81.74a2.89,2.89,0,0,1-.5-.25,10.33,10.33,0,0,0-1.25-.63c-.57-.24-.89-.35-1.16-.44l-.74-.29c-.83-.35-1.75-.37-2.06,0s.13.87,1,1.22c.58.23.91.34,1.17.43s.39.13.74.28a4.53,4.53,0,0,1,.52.24,8.49,8.49,0,0,0,1.26.62c.85.34,1.76.38,2,.07S120,82.1,119.12,81.74Z" style="fill: #ffd46f"/>
              <path d="M86.06,108.07l4.12.69c2.13.37,5.1.9,10.34,1.73l8.89,1.37,5.64.88c6.53,1,11.91,1.65,12,1.4s-5.09-1.4-11.59-2.52l-8.84-1.48L101,109.2l-4.13-.74c-2.13-.39-5.09-.95-10.27-1.84-6.56-1.13-12-1.68-12.13-1.23S79.47,107,86.06,108.07Z" style="fill: #ffd46f"/>
              <path d="M141.4,116.92c.39,0,.52.08.82.13s1,.19,2.05.34l1.78.23,1.13.14c1.3.19,2.4.17,2.45,0s-1-.53-2.26-.73l-1.77-.25-1.12-.16c-.41-.06-.53-.09-.82-.15s-1-.2-2-.36c-1.31-.2-2.41-.16-2.47.08S140.08,116.74,141.4,116.92Z" style="fill: #ffd46f"/>
              <path d="M60,103.83a1.7,1.7,0,0,1,.45.07,6.13,6.13,0,0,0,1.13.19,8.58,8.58,0,0,0,1,0c.18,0,.32,0,.63,0,.73.06,1.41-.28,1.52-.75s-.37-.92-1.08-1c-.5,0-.78,0-1,0a5,5,0,0,1-.63,0,1.66,1.66,0,0,1-.45-.08,5.06,5.06,0,0,0-1.12-.2,1.44,1.44,0,0,0-1.54.78C58.76,103.34,59.25,103.77,60,103.83Z" style="fill: #ffd46f"/>
              <path d="M120.59,103.75c.5.13.66.17,1,.28.52.15,1.25.38,2.55.69l2.23.51,1.4.33c1.63.4,3,.51,3.16.25s-1.1-.83-2.71-1.26c-1.11-.29-1.71-.42-2.2-.53l-1.4-.35c-.51-.13-.67-.17-1-.29-.52-.16-1.25-.39-2.54-.72-1.62-.42-3-.5-3.19-.19S119,103.36,120.59,103.75Z" style="fill: #ffd46f"/>
              <path d="M79.54,92.81a7.39,7.39,0,0,1,.81.22,19.47,19.47,0,0,0,2.06.57c.89.2,1.4.28,1.81.35s.58.11,1.15.24c1.31.29,2.54.2,2.73-.19s-.72-1-2-1.31c-.9-.22-1.4-.31-1.8-.38s-.59-.12-1.15-.25a5.92,5.92,0,0,1-.81-.23,18.35,18.35,0,0,0-2-.58c-1.32-.32-2.56-.21-2.77.23S78.21,92.51,79.54,92.81Z" style="fill: #ffd46f"/>
              <path d="M98.53,97.57a5.27,5.27,0,0,1,.78.21,20.38,20.38,0,0,0,2,.54c.86.2,1.33.29,1.73.36s.55.1,1.09.23c1.26.29,2.4.25,2.56-.09s-.74-.89-2-1.2c-.86-.21-1.33-.3-1.71-.38s-.56-.11-1.09-.24a5.55,5.55,0,0,1-.79-.23c-.39-.13-.94-.31-1.94-.55-1.26-.31-2.42-.25-2.59.13S97.26,97.28,98.53,97.57Z" style="fill: #ffd46f"/>
              <path d="M141.68,109.21a2.87,2.87,0,0,1,.43.12,10.23,10.23,0,0,0,1.07.29l.94.18.6.12c.68.15,1.28.09,1.34-.14s-.46-.55-1.14-.71c-.47-.11-.72-.16-.93-.19l-.59-.13-.43-.12a9.27,9.27,0,0,0-1.06-.31c-.69-.15-1.3-.08-1.36.16S141,109.06,141.68,109.21Z" style="fill: #ffd46f"/>
            </g>
            <g>
              <path d="M151.32,36.33c1.72,2.6,2.29,3.47,3.58,5.4,1.84,2.82,4.4,6.75,9,13.57l7.92,11.54,5,7.33c2.9,4.25,5.6,8.07,7.59,10.83l2.4,3.25a5.48,5.48,0,0,0,1,1.15c.07,0-.16-.48-.62-1.28s-1.18-1.94-2-3.37c-1.75-2.83-4.22-6.74-7-11l-7.62-11.61c-1.43-2.2-2.46-3.77-4.84-7.41l-3.51-5.48L153.58,35.6C148,26.93,143,20.15,142.21,20.38S145.51,27.73,151.32,36.33Z" style="fill: #ffd46f"/>
              <path d="M132.18,77.62l3.54,2.24c1.82,1.17,4.37,2.81,8.9,5.62l7.69,4.74,4.88,3c5.64,3.51,10.38,6.23,10.56,6.09s-4.16-3.16-9.7-6.74l-7.56-4.82-4.82-3.07-3.51-2.29-8.73-5.71c-5.59-3.61-10.41-6.27-10.8-6S126.49,74.08,132.18,77.62Z" style="fill: #ffd46f"/>
              <path d="M87.38,49.65c1.25.78,1.66,1.05,2.56,1.64,1.31.87,3.13,2.08,6.43,4.11L102,58.81,105.6,61c4.11,2.54,7.79,4.34,8.2,4s-2.52-2.68-6.56-5.26l-5.54-3.48-3.54-2.2c-1.25-.8-1.65-1.07-2.54-1.68-1.28-.88-3.08-2.11-6.31-4.17-4.09-2.61-7.84-4.35-8.41-3.93S83.22,47.1,87.38,49.65Z" style="fill: #ffd46f"/>
              <path d="M99.64,69.9c-.71-.35-.94-.47-1.45-.76-.74-.41-1.76-1-3.64-1.92-1.6-.78-2.5-1.19-3.24-1.52l-2-1c-2.35-1.15-4.61-1.75-5-1.34s1.13,1.65,3.51,2.78c1.64.76,2.55,1.16,3.27,1.48l2.08,1a15.3,15.3,0,0,1,1.48.75c.75.4,1.79,1,3.68,1.86,2.4,1.13,4.63,1.77,5,1.43S102,71.07,99.64,69.9Z" style="fill: #ffd46f"/>
              <path d="M187.67,73.32c-.32-.67-.42-.89-.65-1.39-.33-.73-.77-1.74-1.64-3.49-.76-1.49-1.17-2.29-1.52-3l-1-1.88c-1.09-2.18-2.35-3.85-2.81-3.73s.1,2,1.25,4.15L182.93,67c.3.56.51,1,1,1.87.33.68.44.91.69,1.4.34.72.81,1.73,1.72,3.46,1.15,2.2,2.34,3.89,2.67,3.79S188.76,75.53,187.67,73.32Z" style="fill: #ffd46f"/>
              <path d="M177.88,52.61a1.75,1.75,0,0,1-.19-.4,4.83,4.83,0,0,0-.47-1c-.25-.42-.42-.63-.55-.82l-.35-.51a1.57,1.57,0,0,0-1.61-.83c-.52.16-.63.78-.24,1.39a8.31,8.31,0,0,0,.57.82,4.56,4.56,0,0,1,.35.52,1.56,1.56,0,0,1,.21.4,4.49,4.49,0,0,0,.49,1,1.62,1.62,0,0,0,1.57.84C178.15,53.85,178.25,53.23,177.88,52.61Z" style="fill: #ffd46f"/>
              <path d="M128.4,60.74l2.74,2.2c1.4,1.16,3.36,2.78,6.87,5.54l6,4.67,3.8,3C152.2,79.56,156,82.2,156.3,82s-3-3.19-7.24-6.69l-5.87-4.73c-1.1-.9-1.9-1.54-3.73-3l-2.71-2.26c-1.38-1.17-3.3-2.81-6.72-5.6-4.33-3.54-8.22-6.13-8.71-5.83S124,57.26,128.4,60.74Z" style="fill: #ffd46f"/>
              <path d="M165.51,90a4.78,4.78,0,0,1,.54.44c.28.23.66.56,1.38,1.09l1.24.89.78.57c.89.67,1.78,1.08,2,.93s-.33-.85-1.2-1.53l-1.22-.9-.77-.58c-.27-.21-.35-.28-.54-.45s-.64-.56-1.34-1.1c-.89-.69-1.8-1.08-2-.9S164.6,89.35,165.51,90Z" style="fill: #ffd46f"/>
              <path d="M111,46.87a1.05,1.05,0,0,1,.29.24,3.34,3.34,0,0,0,.75.6,5.07,5.07,0,0,0,.79.41c.14.08.26.13.49.27a1.83,1.83,0,0,0,1.85,0,.7.7,0,0,0-.07-1.24,5.21,5.21,0,0,0-.77-.43,3.73,3.73,0,0,1-.48-.27,1.15,1.15,0,0,1-.3-.24,2.85,2.85,0,0,0-.73-.61,1.83,1.83,0,0,0-1.89,0A.7.7,0,0,0,111,46.87Z" style="fill: #ffd46f"/>
              <path d="M160.1,71.05c.3.3.39.41.59.63a20.82,20.82,0,0,0,1.46,1.59l1.36,1.3.86.83c1,1,2,1.64,2.37,1.49s-.14-1.09-1.08-2.07c-.65-.68-1-1-1.32-1.32l-.84-.84c-.3-.31-.39-.41-.58-.64s-.67-.81-1.43-1.6c-1-1-2.05-1.64-2.45-1.46S159.11,70.08,160.1,71.05Z" style="fill: #ffd46f"/>
              <path d="M136.3,45.81a5,5,0,0,1,.47.5,11.66,11.66,0,0,0,1.17,1.28c.56.52.89.79,1.17,1s.38.32.73.65c.8.77,1.88,1.2,2.39,1s.31-1.06-.48-1.84c-.54-.53-.87-.81-1.13-1s-.38-.33-.72-.66a3.81,3.81,0,0,1-.46-.51,8.86,8.86,0,0,0-1.13-1.28,2.77,2.77,0,0,0-2.48-1C135.27,44.2,135.47,45,136.3,45.81Z" style="fill: #ffd46f"/>
              <path d="M147.58,57.25a4.5,4.5,0,0,1,.45.49A11.39,11.39,0,0,0,149.16,59c.52.5.83.76,1.09,1l.69.63c.77.74,1.74,1.17,2.18,1s.19-1-.55-1.72c-.52-.52-.82-.79-1.06-1s-.36-.32-.68-.64a4.26,4.26,0,0,1-.44-.49,9.8,9.8,0,0,0-1.09-1.23c-.76-.75-1.76-1.18-2.24-1S146.81,56.5,147.58,57.25Z" style="fill: #ffd46f"/>
              <path d="M172.48,83.9a1.79,1.79,0,0,1,.24.27,5.91,5.91,0,0,0,.62.66,7,7,0,0,0,.61.53l.38.34c.42.4,1,.6,1.23.45s.14-.6-.27-1-.45-.42-.59-.53l-.38-.34a1.79,1.79,0,0,1-.24-.27,6,6,0,0,0-.6-.67c-.43-.41-1-.6-1.27-.45S172,83.5,172.48,83.9Z" style="fill: #ffd46f"/>
            </g>
            <g>
              <path d="M243.19,28.74c-.85,2.8-1.13,3.73-1.77,5.81-.94,3-2.26,7.22-4.39,14.6-1.79,6.26-2.76,9.68-3.57,12.5-.64,2.25-1.13,4-2.26,7.94-1.33,4.6-2.44,8.77-3.22,11.79-.36,1.51-.65,2.74-.86,3.59s-.25,1.31-.18,1.32.84-1.84,1.87-4.82,2.39-7.12,3.84-11.7l3.86-12.45c.73-2.34,1.25-4,2.47-7.92.92-2.82,1.22-3.76,1.89-5.83,1-3,2.37-7.2,4.76-14.48,3-9.24,4.76-16.77,4-16.9S245.91,19.47,243.19,28.74Z" style="fill: #ffd46f"/>
              <path d="M192,54.45c.45,1.55.59,2.07.92,3.23.46,1.67,1.1,4,2.33,8.09l2.13,6.92,1.34,4.39c.76,2.54,1.52,4.85,2.11,6.51A9.23,9.23,0,0,0,202,86.26c.28,0-.62-4.19-2-9.29L198,70c-.36-1.31-.63-2.25-1.24-4.41L196,62.37c-.44-1.69-1-4-2.13-8.11-1.4-5.15-3-9.25-3.56-9.19S190.44,49.31,192,54.45Z" style="fill: #ffd46f"/>
              <path d="M180,13.91c.35,1.12.44,1.5.65,2.35.31,1.22.74,2.92,1.65,5.89.81,2.51,1.26,3.88,1.63,5,.28.9.5,1.59,1,3.18,1.14,3.7,2.56,6.64,3.17,6.58s.28-3.14-.75-6.85l-1.48-5c-.28-.94-.49-1.62-1-3.2-.32-1.14-.42-1.52-.61-2.37-.26-1.23-.66-2.94-1.49-5.9-1.05-3.74-2.57-6.67-3.4-6.58S178.79,10.18,180,13.91Z" style="fill: #ffd46f"/>
              <path d="M172.32,35.21a12,12,0,0,1-.51-1.19c-.24-.62-.57-1.51-1.29-3-.62-1.27-1-2-1.31-2.53l-.82-1.6c-.91-1.88-2.24-3.29-2.93-3.11s-.5,1.83.46,3.69c.66,1.27,1.05,2,1.37,2.5l.85,1.6a10.32,10.32,0,0,1,.55,1.2,31.44,31.44,0,0,0,1.37,3c1,1.88,2.21,3.26,2.79,3.11S173.23,37.11,172.32,35.21Z" style="fill: #ffd46f"/>
              <path d="M240.65,73.26c.33-.67.43-.89.67-1.39.37-.72.89-1.71,1.69-3.48.67-1.5,1-2.33,1.33-3l.84-1.91c1-2.2,1.44-4.08,1-4.2s-1.65,1.66-2.59,3.87c-.62,1.52-1,2.35-1.24,3s-.41,1-.8,1.92c-.31.68-.42.9-.65,1.4-.35.72-.83,1.73-1.6,3.49-1,2.24-1.43,4-1.11,4.14S239.63,75.48,240.65,73.26Z" style="fill: #ffd46f"/>
              <path d="M250.61,52.59a1.49,1.49,0,0,1,.2-.4,5.57,5.57,0,0,0,.49-1,7.16,7.16,0,0,0,.26-.89l.17-.56c.24-.65,0-1.27-.56-1.37a1.44,1.44,0,0,0-1.41,1,6.2,6.2,0,0,0-.24.89,3.2,3.2,0,0,1-.16.56,1.24,1.24,0,0,1-.18.4,5.37,5.37,0,0,0-.47,1c-.22.65,0,1.21.54,1.32A1.38,1.38,0,0,0,250.61,52.59Z" style="fill: #ffd46f"/>
              <path d="M203.57,39.39c.14,1.38.19,1.84.3,2.87.12,1.5.31,3.58.76,7.23.4,3.1.63,4.78.81,6.18.15,1.11.26,2,.51,3.91.56,4.55,1.34,8.23,1.74,8.22s.39-3.72,0-8.27c-.33-3.12-.51-4.81-.65-6.17-.13-1.17-.22-2-.42-3.94-.12-1.4-.16-1.87-.24-2.9-.09-1.5-.23-3.59-.58-7.21-.44-4.6-1.34-8.27-2-8.24S203,34.8,203.57,39.39Z" style="fill: #ffd46f"/>
              <path d="M208.2,77.93a4.62,4.62,0,0,1,.06.57c0,.3.05.72.16,1.44s.18.94.23,1.22l.14.78c.15.89.51,1.6.81,1.58s.46-.78.34-1.69c-.1-.61-.15-1-.19-1.22s-.07-.39-.12-.77a5,5,0,0,1-.06-.58,10,10,0,0,0-.12-1.43c-.13-.91-.52-1.62-.87-1.59S208.05,77,208.2,77.93Z" style="fill: #ffd46f"/>
              <path d="M201.49,21.2a.76.76,0,0,1,0,.32,1.7,1.7,0,0,0,.08.78,3.2,3.2,0,0,0,.28.66,3.22,3.22,0,0,1,.17.41,1.42,1.42,0,0,0,1.52.76c.7-.06,1.16-.51,1-1a3.06,3.06,0,0,0-.25-.66,2.07,2.07,0,0,1-.16-.42.5.5,0,0,1,0-.31,1.65,1.65,0,0,0-.06-.79,1.49,1.49,0,0,0-1.57-.77C201.8,20.27,201.33,20.71,201.49,21.2Z" style="fill: #ffd46f"/>
              <path d="M220.28,60.44a6.64,6.64,0,0,1-.07.75,15.22,15.22,0,0,0-.18,1.87c0,.8,0,1.23,0,1.59s0,.51,0,1c0,1.17.23,2.12.64,2.12s.83-1,.92-2.13c.05-.8.06-1.24.07-1.59s0-.52,0-1a5.75,5.75,0,0,1,.09-.74,15.22,15.22,0,0,0,.22-1.86c.08-1.19-.25-2.14-.72-2.14S220.33,59.26,220.28,60.44Z" style="fill: #ffd46f"/>
              <path d="M222.85,30.5a2.52,2.52,0,0,1-.06.6,6.92,6.92,0,0,0-.15,1.5,9.22,9.22,0,0,0,.06,1.28c0,.23,0,.41,0,.82,0,.94.49,1.71,1.11,1.71s1.16-.75,1.19-1.7a9.35,9.35,0,0,0,0-1.28,6.7,6.7,0,0,1,0-.81,2.56,2.56,0,0,1,.07-.61,6.74,6.74,0,0,0,.19-1.49c0-.95-.51-1.72-1.18-1.73S222.85,29.55,222.85,30.5Z" style="fill: #ffd46f"/>
              <path d="M222.09,44.26a2.26,2.26,0,0,1-.06.57,8,8,0,0,0-.15,1.44,11.79,11.79,0,0,0,0,1.23c0,.22,0,.4,0,.78,0,.91.4,1.64.93,1.64s1-.74,1-1.64a9.64,9.64,0,0,0,0-1.23c0-.23,0-.39,0-.78a2.17,2.17,0,0,1,.08-.57,7.54,7.54,0,0,0,.17-1.44c0-.91-.4-1.64-1-1.64S222.1,43.35,222.09,44.26Z" style="fill: #ffd46f"/>
              <path d="M219.19,75.78a1.35,1.35,0,0,1,0,.31,4,4,0,0,0-.07.79,5.14,5.14,0,0,0,0,.67c0,.11,0,.2,0,.42,0,.49.28.86.62.83s.63-.45.65-.94,0-.52,0-.67,0-.21,0-.42a1.51,1.51,0,0,1,0-.32,3.35,3.35,0,0,0,.1-.78c0-.5-.29-.87-.65-.84A.88.88,0,0,0,219.19,75.78Z" style="fill: #ffd46f"/>
            </g>
            <g>
              <path d="M324,59.46l-6.45,4c-3.37,2-8.07,4.93-16.17,10l-13.7,8.68L279,87.67c-5.05,3.19-9.56,6.12-12.81,8.26l-3.81,2.56a6,6,0,0,0-1.31,1,53.65,53.65,0,0,0,5.68-3.15c3.42-2,8.11-4.8,13.23-7.93l13.89-8.51,8.85-5.42,6.58-4,16.38-9.81c10.4-6.28,18.33-11.65,17.79-12.06S334.22,53.05,324,59.46Z" style="fill: #ffd46f"/>
              <path d="M260.4,59.79l-2,3c-1.08,1.54-2.58,3.69-5.11,7.49L249,76.7l-2.7,4.09c-1.58,2.36-2.95,4.52-3.9,6.1s-1.49,2.58-1.36,2.62,3.13-3.65,6.41-8.34l4.41-6.38c.84-1.2,1.43-2.07,2.81-4.07l2.12-3,5.29-7.4c3.32-4.74,5.55-8.68,5-8.86S263.58,55,260.4,59.79Z" style="fill: #ffd46f"/>
              <path d="M285.66,22.16c-.69,1.06-.94,1.4-1.5,2.17-.81,1.11-1.94,2.66-3.76,5.43l-3,4.7-1.93,3c-2.27,3.45-3.66,6.39-3.11,6.58s3-2.44,5.33-5.86c1.58-2.35,2.45-3.63,3.13-4.66.59-.87,1-1.51,2-3,.73-1.06,1-1.4,1.57-2.16.83-1.1,2-2.64,3.87-5.37,2.39-3.45,3.68-6.42,2.92-6.67S288,18.68,285.66,22.16Z" style="fill: #ffd46f"/>
              <path d="M261.11,36.35c.27-.57.37-.75.61-1.17.35-.6.84-1.44,1.55-3,.61-1.28.89-2,1.13-2.57l.72-1.62c.88-1.88,1-3.54.32-3.7s-2,1.23-2.79,3.12c-.57,1.3-.84,2-1.06,2.58s-.35.83-.69,1.64a13.21,13.21,0,0,1-.59,1.19,30.65,30.65,0,0,0-1.46,3c-.85,1.91-1.05,3.55-.46,3.69S260.21,38.25,261.11,36.35Z" style="fill: #ffd46f"/>
              <path d="M283.49,94.45l1.74-.85c.91-.44,2.19-1,4.38-2.14l3.65-1.9,2.33-1.21c2.71-1.38,4.67-2.72,4.37-3s-2.72.66-5.4,2.08L291,89.39l-2.31,1.23-1.73.88c-.91.44-2.16,1.06-4.31,2.18-2.7,1.43-4.7,2.73-4.48,2.92S280.74,95.84,283.49,94.45Z" style="fill: #ffd46f"/>
              <path d="M309.39,81.7a3.92,3.92,0,0,1,.51-.25,8,8,0,0,0,1.26-.62,9.41,9.41,0,0,0,1-.61l.63-.39c.74-.43,1.05-1,.68-1.3a2.09,2.09,0,0,0-2,.26,10.69,10.69,0,0,0-1,.63c-.18.12-.3.2-.62.39a2.9,2.9,0,0,1-.5.25,11.94,11.94,0,0,0-1.25.63c-.74.45-1.06,1-.71,1.29A2.19,2.19,0,0,0,309.39,81.7Z" style="fill: #ffd46f"/>
              <path d="M282.8,52.18l-2.24,2.45c-1.19,1.26-2.85,3-5.63,6.15l-4.68,5.33c-.84,1-1.49,1.68-3,3.37-3.48,3.9-6,7.18-5.67,7.32s3.54-2.88,7.12-6.73c2.43-2.65,3.75-4.09,4.8-5.25l3.07-3.35c1.12-1.19,1.49-1.57,2.31-2.45,1.23-1.24,2.92-3,5.77-6.06,3.62-3.9,6.05-7.22,5.49-7.45S286.3,48.24,282.8,52.18Z" style="fill: #ffd46f"/>
              <path d="M253.25,85.21a4.61,4.61,0,0,1-.44.49,16.17,16.17,0,0,0-1.11,1.23c-.44.54-.68.83-.87,1.08l-.56.68c-.66.78-1,1.49-.7,1.58s1.06-.47,1.75-1.25l.89-1.06.57-.67a5.75,5.75,0,0,1,.46-.49c.25-.24.6-.59,1.14-1.21.68-.78,1-1.5.65-1.61S253.91,84.42,253.25,85.21Z" style="fill: #ffd46f"/>
              <path d="M296.84,36.64a1.33,1.33,0,0,1-.25.27,2.43,2.43,0,0,0-.61.67,4.25,4.25,0,0,0-.34.63,1.87,1.87,0,0,1-.22.4c-.3.46,0,1,.6,1.21a1.56,1.56,0,0,0,1.71-.41,3.29,3.29,0,0,0,.36-.63,1.87,1.87,0,0,1,.22-.4,1.1,1.1,0,0,1,.25-.27,2.5,2.5,0,0,0,.63-.66c.3-.45,0-1-.63-1.22A1.51,1.51,0,0,0,296.84,36.64Z" style="fill: #ffd46f"/>
              <path d="M278.21,75.8c-.33.28-.44.37-.7.57s-.92.69-1.77,1.44l-1.39,1.28c-.26.22-.45.4-.9.8-1.06.93-1.67,1.83-1.36,2s1.46-.41,2.54-1.33c.75-.63,1.13-1,1.45-1.26l.91-.81c.34-.28.45-.37.72-.57s.93-.68,1.79-1.41c1.1-.92,1.67-1.85,1.31-2S279.28,74.85,278.21,75.8Z" style="fill: #ffd46f"/>
              <path d="M306.2,52.62a5,5,0,0,1-.56.46,13,13,0,0,0-1.43,1.15c-.55.52-.83.82-1.06,1.07s-.32.34-.67.66c-.83.76-1.11,1.6-.63,1.87s1.56-.12,2.4-.87c.58-.52.87-.81,1.1-1.05s.34-.35.7-.67a4,4,0,0,1,.58-.45,12.41,12.41,0,0,0,1.44-1.14c.85-.76,1.11-1.61.59-1.9S307,51.85,306.2,52.62Z" style="fill: #ffd46f"/>
              <path d="M293.67,63.45a5.6,5.6,0,0,1-.54.43,14.76,14.76,0,0,0-1.36,1.1c-.55.5-.82.78-1,1l-.67.64c-.8.72-1.12,1.5-.71,1.72s1.42-.16,2.23-.88c.57-.49.85-.77,1.07-1s.34-.33.68-.63a4.61,4.61,0,0,1,.56-.44,13.25,13.25,0,0,0,1.38-1.08c.83-.73,1.12-1.52.67-1.76S294.48,62.71,293.67,63.45Z" style="fill: #ffd46f"/>
              <path d="M264.05,87.75a2.6,2.6,0,0,1-.29.24,7.37,7.37,0,0,0-.74.61c-.29.27-.44.43-.56.56s-.17.17-.35.35c-.42.4-.55.83-.27.95s.87-.08,1.31-.47l.57-.55c.1-.11.18-.18.36-.35a2.61,2.61,0,0,1,.3-.24,5.91,5.91,0,0,0,.75-.6c.45-.4.55-.83.25-1A1.48,1.48,0,0,0,264.05,87.75Z" style="fill: #ffd46f"/>
            </g>
            <g>
              <path d="M363,116.58l-8.67.64c-4.51.31-10.8.75-21.77,1.63l-18.59,1.54-11.79,1c-6.84.56-13,1.11-17.49,1.55l-5.28.53a12.09,12.09,0,0,0-1.92.29,10.3,10.3,0,0,0,2,0l5.35-.27c4.51-.25,10.73-.63,17.58-1.11L321,121l11.85-.83,8.75-.56,21.73-1.37c13.85-.9,24.89-2.06,24.78-2.62S376.78,115.49,363,116.58Z" style="fill: #ffd46f"/>
              <path d="M311.19,91.4,307,93c-2.21.82-5.28,2-10.6,4l-9,3.52-5.71,2.23c-6.63,2.57-11.89,4.79-11.74,5s5.73-1.73,12.43-4.21l9.08-3.41,5.78-2.17,4.28-1.57,10.67-3.89c6.77-2.51,12-4.81,11.67-5.14S317.89,88.8,311.19,91.4Z" style="fill: #ffd46f"/>
              <path d="M364.1,71c-1.47.57-2,.75-3.08,1.15-1.62.58-3.88,1.39-7.73,2.9l-6.5,2.6-4.13,1.65c-4.81,1.88-8.45,3.7-8.13,4.06s4.53-.81,9.4-2.63l6.55-2.52,4.18-1.61c1.5-.56,2-.74,3.13-1.13,1.63-.56,3.9-1.34,7.78-2.8,4.9-1.84,8.49-3.73,8.07-4.22S369,69.11,364.1,71Z" style="fill: #ffd46f"/>
              <path d="M332,72.71c.71-.36,1-.46,1.51-.71.8-.35,1.92-.83,3.8-1.77,1.59-.79,2.43-1.25,3.13-1.62l2-1c2.33-1.17,3.85-2.44,3.41-2.84s-2.69.23-5,1.43c-1.58.82-2.41,1.28-3.08,1.66l-2,1c-.72.37-1,.48-1.51.73-.79.35-1.9.86-3.74,1.81-2.33,1.2-3.89,2.44-3.5,2.78S329.64,73.88,332,72.71Z" style="fill: #ffd46f"/>
              <path d="M300,128.65h2.15c1.11,0,2.67,0,5.39,0l4.6-.08,2.92,0c3.38,0,6.1-.33,6.07-.66s-2.81-.56-6.2-.48l-4.59.12-2.93.07-2.16,0c-1.12,0-2.68,0-5.37,0-3.42.07-6.15.32-6.11.57S296.59,128.67,300,128.65Z" style="fill: #ffd46f"/>
              <path d="M332,128.71a4.39,4.39,0,0,1,.63,0,12.14,12.14,0,0,0,1.55,0c.67,0,1-.07,1.32-.11l.83-.06c1-.05,1.71-.4,1.64-.78s-.92-.66-1.89-.59c-.67,0-1,.08-1.31.12l-.83.07h-.63a13.55,13.55,0,0,0-1.56,0c-1,.06-1.71.4-1.64.76S331,128.75,332,128.71Z" style="fill: #ffd46f"/>
              <path d="M336,94.16c-1.89.52-2.51.7-3.93,1.08-2,.55-4.9,1.32-9.86,2.74l-8.38,2.44L308.49,102c-6.17,1.77-11.08,3.42-10.95,3.67s5.3-.9,11.52-2.59l8.44-2.33,5.36-1.49,4-1.06c2.06-.52,4.94-1.26,9.89-2.61,6.29-1.71,11.15-3.43,10.92-3.85S342.22,92.37,336,94.16Z" style="fill: #ffd46f"/>
              <path d="M283.56,109.12c-.37.11-.5.14-.79.21s-1,.25-2,.55l-1.63.53-1,.33c-1.21.37-2.11.83-2,1s1.22.06,2.44-.3l1.65-.5,1.05-.32c.38-.11.5-.15.79-.21s1-.24,2-.53c1.23-.37,2.1-.84,2-1.06S284.78,108.74,283.56,109.12Z" style="fill: #ffd46f"/>
              <path d="M360.75,87.17a1.77,1.77,0,0,1-.43.12,5.77,5.77,0,0,0-1.08.3,8,8,0,0,0-.82.38,3.53,3.53,0,0,1-.53.24c-.64.25-.91.81-.61,1.23a1.51,1.51,0,0,0,1.7.36,5.38,5.38,0,0,0,.84-.37,3.93,3.93,0,0,1,.54-.23,1.3,1.3,0,0,1,.43-.11,5.36,5.36,0,0,0,1.08-.29c.64-.25.91-.81.6-1.26A1.49,1.49,0,0,0,360.75,87.17Z" style="fill: #ffd46f"/>
              <path d="M311.63,111.48c-.5.1-.67.13-1.06.19-.56.08-1.34.19-2.67.46l-2.24.47-1.42.3c-1.66.32-2.92.81-2.79,1.06s1.57.25,3.24-.06c1.15-.21,1.76-.34,2.26-.44l1.43-.29c.52-.09.69-.12,1.07-.17.57-.07,1.35-.18,2.68-.42,1.68-.32,2.92-.82,2.77-1.13S313.3,111.15,311.63,111.48Z" style="fill: #ffd46f"/>
              <path d="M354.3,103.93a7.34,7.34,0,0,1-.85.15c-.45.06-1.09.13-2.15.36-.9.2-1.38.33-1.77.44s-.57.15-1.14.27c-1.32.28-2.25.85-2.07,1.25s1.41.52,2.74.25c.92-.18,1.4-.31,1.79-.41s.57-.14,1.14-.25a5.82,5.82,0,0,1,.86-.14,18.94,18.94,0,0,0,2.15-.35c1.34-.27,2.26-.85,2.06-1.29S355.64,103.64,354.3,103.93Z" style="fill: #ffd46f"/>
              <path d="M334.82,107.68a6.47,6.47,0,0,1-.82.13c-.44.06-1,.14-2.06.35s-1.33.31-1.71.4l-1.09.26c-1.27.26-2.17.76-2,1.1s1.33.42,2.6.17c.88-.17,1.35-.28,1.73-.37s.55-.13,1.09-.24a6.47,6.47,0,0,1,.82-.13c.44,0,1.05-.12,2.06-.32,1.3-.26,2.18-.78,2-1.15S336.1,107.41,334.82,107.68Z" style="fill: #ffd46f"/>
              <path d="M289.85,115.5l-.45.08a7.26,7.26,0,0,0-1.12.19c-.47.1-.72.17-.93.23l-.58.14c-.69.15-1.13.44-1,.65s.83.27,1.51.13c.48-.1.73-.16.93-.22l.59-.13a3.08,3.08,0,0,1,.45-.08,8.35,8.35,0,0,0,1.13-.18c.69-.14,1.13-.45,1-.67S290.54,115.35,289.85,115.5Z" style="fill: #ffd46f"/>
            </g>
          </g>
        </g>
        <ellipse cx="209.71" cy="121" rx="75.16" ry="75" style="fill: #fff;fill-opacity: 0.5"/>
      </g>
      <path d="M424,209.13c-2.33-.63-4.73-1.19-7.21-1.64C406.65,182,367.91,163,321.63,163c-44.64,0-82.26,17.67-94,41.81-1.26,0-2.52-.07-3.8-.07-26.19,0-48.67,9.38-58.32,22.76-.78,0-1.56,0-2.35,0-23.85,0-43.19,11.41-43.19,25.5a15.28,15.28,0,0,0,.15,2H424Z" style="fill: #e0f5f5"/>
      <g>
        <path d="M173.94,204a6.65,6.65,0,0,0,.06-.77c0-5.36-8.23-9.7-18.39-9.7h-1c-4.11-5.09-13.68-8.66-24.83-8.66-.55,0-1.08,0-1.62,0-5-9.19-21-15.91-40-15.91-19.71,0-36.2,7.22-40.52,16.92-10,1.65-17.37,6.36-18.26,12a45.06,45.06,0,0,0-6.69-.5c-9,0-16.88,2.64-20.92,6.54Z" style="fill: #ebf7f6"/>
        <path d="M79.44,175.31c0,.51-2.24.85-8.35,2.82-8.44,2.73-11.24,4.36-11.72,3.88-.64-.64,3.29-4.71,8.79-6.54S79.5,174.47,79.44,175.31Z" style="fill: #fff"/>
      </g>
      <g>
        <g>
          <g>
            <path d="M325.84,213.44c23.26-18.67,31.66-42.73,32-42,2.08,0,1.89,5.9,1.89,5.9.41-.82.95-1.64,2.14-1.06,1.76,1.3,1.16,6.1.94,7.85s1.42-1.83,2.57-1.84c2,.61,1.3,5.89,0,9.43C380.87,180.65,347.73,246.25,325.84,213.44Z" style="fill: #3d6d82;fill-rule: evenodd"/>
            <path d="M353.93,211.35c8.54-10.73,12.46-23.41,4.91-18,1.34-3.54,2.06-8.82,0-9.42-1.14,0-2.78,3.59-2.56,1.84s.81-6.55-.95-7.85a1.54,1.54,0,0,0-.71-.2c2.08-4,3.06-6.48,3.16-6.24,2.08,0,1.89,5.9,1.89,5.9.41-.82.95-1.64,2.14-1.06,1.76,1.3,1.16,6.1.94,7.85s1.42-1.83,2.57-1.84c2,.61,1.3,5.89,0,9.43,7.8-5.55,3.34,8.21-5.81,19.15-5.23,6.26-12,11.59-18.89,11.85l0,0C345.55,220.4,350.19,216.07,353.93,211.35Z" style="fill: #134767;fill-rule: evenodd"/>
          </g>
          <path d="M332.78,248.73c-6.64,4.24-14.76,2.94-15.34,2.82a25.68,25.68,0,0,1-14.55-9.27,38.92,38.92,0,0,1-2.59-11.45A26,26,0,0,1,301,223c2-7.8,6.72-9.11,8.59-15.7a19.38,19.38,0,0,0-.49-11.32c2.45,1.68,5.32,4.29,5.7,7.8.77,7.08-9.42,10.49-9.11,18.22.2,4.94,4.61,9.48,9.11,10.93,6.8,2.2,13.11-2.84,16.41-5.46a29.43,29.43,0,0,0,9.11-12.76C345.36,229,341.67,243,332.78,248.73Z" style="fill: #e4e4e4;fill-rule: evenodd"/>
          <path d="M333.78,248.73c-9.19,6.05-21.74,3.63-29.89-6.45a38.92,38.92,0,0,1-2.59-11.45A26,26,0,0,1,302,223c2-7.8,6.72-9.11,8.59-15.7a19.38,19.38,0,0,0-.49-11.32l22.64,3.78a3.16,3.16,0,0,0,0,.94,3.72,3.72,0,0,0,.94,1.88c1.19,1.34,9.43,14,11.27,20.42C347.48,231.6,342.34,243.09,333.78,248.73Z" style="fill: #fff;fill-rule: evenodd"/>
          <path d="M333.78,248.73c-6.64,4.24-14.76,2.94-15.34,2.82a25.68,25.68,0,0,1-14.55-9.27,38.92,38.92,0,0,1-2.59-11.45A26,26,0,0,1,302,223c2-7.8,6.72-9.11,8.59-15.7a19.38,19.38,0,0,0-.49-11.32c2.45,1.68,5.32,4.29,5.7,7.8.77,7.08-9.42,10.49-9.11,18.22.2,4.94,4.61,9.48,9.11,10.93,6.8,2.2,13.11-2.84,16.41-5.46a29.43,29.43,0,0,0,9.11-12.76C346.36,229,342.67,243,333.78,248.73Z" style="fill: #f0f0f0;fill-rule: evenodd"/>
          <path d="M334.66,189.33c.38,1.65,1.45,7.67-2.83,12.26a12.59,12.59,0,0,1-11.32,3.77c-7.78-1.38-10.22-9.8-10.38-10.37-1.6-5.89.48-13.28,5.66-16a10.54,10.54,0,0,1,5.68-1.1C327.41,178.2,333.19,183,334.66,189.33Z" style="fill: #f0f0f0"/>
          <path d="M333.73,188.94a15.12,15.12,0,0,1-2.64,11.84c-4.38,5.9-13,8.06-15.48,5.58-1.28-1.29-.11-3-1.75-7-1.17-2.85-2.14-2.89-3-4.92-2.07-4.83,0-12.6,5.28-15.48a9.43,9.43,0,0,1,5.3-1.07C327,178.19,332.37,182.84,333.73,188.94Z" style="fill: #fff"/>
          <g>
            <g>
              <path d="M320.12,187.53a1.72,1.72,0,0,0-1.68,2,2.18,2.18,0,0,0,2.31,1.69,1.72,1.72,0,0,0,1.68-2A2.18,2.18,0,0,0,320.12,187.53Z" style="fill: #134767;fill-rule: evenodd"/>
              <path d="M320.12,187.58a1.53,1.53,0,0,0-1.19.71,1.27,1.27,0,0,0,0,1.21,1.45,1.45,0,0,0,.83.66,2,2,0,0,0,.93.15,1.55,1.55,0,0,0,.79-.26,1,1,0,0,0,.46-.81,1.6,1.6,0,0,0-.48-1.18A1.85,1.85,0,0,0,320.12,187.58Zm0-.1a2.26,2.26,0,0,1,2.36,1.64,1.74,1.74,0,0,1-.34,1.49,2,2,0,0,1-1.38.69,2.29,2.29,0,0,1-2.37-1.68,1.69,1.69,0,0,1,.36-1.48A2,2,0,0,1,320.12,187.48Z" style="fill: #103a4f"/>
            </g>
            <path d="M320.76,188.14a.43.43,0,0,0-.39.51.51.51,0,0,0,.54.43.43.43,0,0,0,.39-.51A.51.51,0,0,0,320.76,188.14Z" style="fill: #fff;fill-rule: evenodd"/>
          </g>
          <g>
            <g>
              <path d="M337,194.11c-3.78-3.68-10.43-8-12.59-6.88s1,7.54,3.45,9.3a6.17,6.17,0,0,0,.81.49c1.09.43,2.44.17,5.42.53,4.46.54,6,1.65,6.23,1a.79.79,0,0,0,0-.48A25.17,25.17,0,0,0,337,194.11Z" style="fill: #fdc760"/>
              <path d="M335.15,196.46a22.31,22.31,0,0,1,5.18,1.63,9.77,9.77,0,0,0-1.38-2.18,14.65,14.65,0,0,0-3.08-2.66c-1.83-1.25-3.81-2.61-6.44-2.88a5.31,5.31,0,0,0-2.71.3,2.58,2.58,0,0,0-1.15.86c-.47.85.38,2.16,2.21,3.11a11.68,11.68,0,0,0,1.66.81C331.53,196.27,332.85,196.06,335.15,196.46Z" style="fill: #534741"/>
            </g>
            <g>
              <path d="M335.31,186.1a16.81,16.81,0,0,0-2.07-.52c-2.29-.44-4.53-.86-6.62,0a5.32,5.32,0,0,0-2.75,2.5,2,2,0,0,0,.21,2.28c.05.07.08.15.14.22a3.25,3.25,0,0,0,.39.35c.26.26.57.55.89.83.47.41.9.75,1.21,1a16.61,16.61,0,0,0,2.39.14c2.81,0,3.88-.82,6.49-1.37a17,17,0,0,1,2.66-.4c2.23-.16,3.69.13,3.89-.07l0,0C342.58,190.05,339.07,187.34,335.31,186.1Z" style="fill: #fdd377"/>
              <ellipse cx="329.9" cy="189.41" rx="1.26" ry="4.04" transform="translate(137.66 517.67) rotate(-89.51)" style="fill: #fde390"/>
            </g>
          </g>
        </g>
        <use width="138.57" height="140.75" transform="translate(350.46 156.03) scale(0.11 0.11)" xlink:href="#starCoin_3"/>
      </g>
      <path d="M404.9,244h-2.54c-3.16-5-18.33-8.84-36.62-8.84-1.89,0-3.74,0-5.56.13-8.68-4.36-25.17-7.31-44.1-7.31-27.95,0-50.61,6.43-50.61,14.36a4.63,4.63,0,0,0,.65,2.29h0c-.73.12-1.43.24-2.1.38l-.22.05c-.58.12-1.13.25-1.66.39l-.27.07a20,20,0,0,0-3,1.05l-.28.13q-.51.26-.93.51a1.51,1.51,0,0,1-.17.1,6.06,6.06,0,0,0-.8.64,1.79,1.79,0,0,1-.13.14,3,3,0,0,0-.39.54,1.14,1.14,0,0,0-.1.19,1.76,1.76,0,0,0-.17.7c0,3.05,8.55,5.52,19.1,5.52H404.9c10.55,0,19.1-2.47,19.1-5.52S415.45,244,404.9,244Z" style="fill: #fff;fill-opacity: 0.66"/>
      <path d="M159.61,247.43H161c1.77-3.9,10.26-6.86,20.5-6.86,1.06,0,2.09,0,3.11.1,4.86-3.38,14.09-5.67,24.68-5.67,15.65,0,28.33,5,28.33,11.14a4.6,4.6,0,0,1-.36,1.78h0c.41.09.8.19,1.18.29l.12,0c.32.1.63.2.93.31l.15.05a9,9,0,0,1,1.67.82l.15.1a5.86,5.86,0,0,1,.52.39l.1.08a4.15,4.15,0,0,1,.45.5l.07.11a2.32,2.32,0,0,1,.22.41.88.88,0,0,1,.05.15,1.71,1.71,0,0,1,.1.54c0,2.37-4.79,4.29-10.69,4.29h-72.7c-5.9,0-10.69-1.92-10.69-4.29S153.71,247.43,159.61,247.43Z" style="fill: #fff;fill-opacity: 0.66"/>
      <path d="M378,254.88H236.58c-7.77,1.15-14.1-6.28-14.56-14s6.13-13.67,8.41-15.73c15.44-14,38-1.59,43.58,1.71,10-5.29,33.59-15.36,58.24-2.8a64,64,0,0,1,12.47,8.41,16.85,16.85,0,0,1,12.48,5.6,28,28,0,0,1,6.24,11.22c.71-.76,3-3,6.24-2.81C373.25,246.74,376.47,250,378,254.88Z" style="fill: #fff;opacity: 0.75"/>
      <path d="M285.18,176.15c-.26,1-9.34,2.5-22.57,9.39-13.65,7.1-20.29,14-21.33,13.65-1.23-.48,6.17-11.05,18.74-17.64S285.49,174.88,285.18,176.15Z" style="fill: #fff;fill-opacity: 0.5"/>
      <path d="M222.66,216.9c-.28,1.4-9.88-.22-23.92,4.3-14.49,4.66-21.58,12-22.67,11-1.3-1.19,6.63-13.42,20-17.78S223,215.19,222.66,216.9Z" style="fill: #fff;fill-opacity: 0.5"/>
    </g>
    <g id="birds">
      <path d="M45.63,31.91l-1,0a16.79,16.79,0,0,0-2.08.24c-.33.06-.68.17-1,.23l-1,.31-1,.36c-.32.16-.67.3-1,.46s-.64.32-1,.52-.66.4-1,.61-.59.43-.89.68-.6.47-.87.74a10.72,10.72,0,0,0-.85.79,9.74,9.74,0,0,0-.77.81l-.68.79-.68-.79a9.74,9.74,0,0,0-.77-.81,10.72,10.72,0,0,0-.85-.79c-.27-.27-.56-.48-.87-.74s-.59-.43-.89-.68-.63-.41-1-.61-.65-.36-1-.52-.67-.3-1-.46l-1-.36-1-.31c-.34-.06-.68-.17-1-.23a16.79,16.79,0,0,0-2.08-.24l-1,0a8.13,8.13,0,0,0-1,.05c.34.1.65.22,1,.32l1,.32,1,.34,1,.37c.31.12.63.28.94.39l.91.45.89.5c.28.17.56.34.86.56s.58.38.82.56.55.4.8.63a8.64,8.64,0,0,1,.78.68,8.15,8.15,0,0,1,.74.69c.23.24.48.46.72.75s.49.5.73.78l.69.81.67.85.65.81v0l0,0,0,0,0,0,0,0v0l.65-.81.67-.85.69-.81c.24-.28.5-.5.73-.78s.49-.51.72-.75a8.15,8.15,0,0,1,.74-.69,8.64,8.64,0,0,1,.78-.68c.25-.23.54-.4.8-.63s.53-.35.82-.56.58-.39.86-.56l.89-.5.91-.45c.31-.11.63-.27.94-.39l1-.37,1-.34,1-.32c.35-.1.66-.22,1-.32A8.13,8.13,0,0,0,45.63,31.91Z" style="fill: #c3e1df"/>
      <path d="M53.12,44.91h-.39A6.83,6.83,0,0,0,52,45l-.37.09-.38.12-.38.14-.36.17a3.24,3.24,0,0,0-.36.2c-.12.08-.24.15-.35.24s-.22.16-.33.26a2.79,2.79,0,0,0-.32.28,2.94,2.94,0,0,0-.31.3c-.1.1-.2.2-.29.31l-.25.3-.25-.3a2.7,2.7,0,0,0-.28-.31,3.06,3.06,0,0,0-.32-.3,2.14,2.14,0,0,0-.32-.28,4.19,4.19,0,0,0-.33-.26c-.11-.09-.23-.16-.35-.24a3.24,3.24,0,0,0-.36-.2l-.36-.17-.37-.14L45,45.1c-.13,0-.25-.06-.38-.09a6.56,6.56,0,0,0-.76-.09h-.38l-.38,0,.37.12.37.13.35.12.36.15.34.15.34.17.33.19.31.21.31.22c.09.08.2.15.29.24a1.8,1.8,0,0,1,.29.26,3.31,3.31,0,0,1,.27.26l.27.28c.08.11.18.2.26.31l.26.3.25.33.23.31v0h0v0l.24-.31.24-.33.26-.3c.08-.11.18-.2.27-.31s.18-.19.26-.28a3.31,3.31,0,0,1,.27-.26,2.35,2.35,0,0,1,.29-.26c.09-.09.2-.16.29-.24l.31-.22A2.92,2.92,0,0,1,51,46l.32-.19.34-.17.34-.15.36-.15.36-.12.36-.13.37-.12Z" style="fill: #c3e1df"/>
      <path d="M65.19,40.66l-.38,0a7,7,0,0,0-.77.09l-.37.08-.38.12-.37.14-.37.18-.36.2-.35.23c-.11.1-.22.16-.33.26s-.22.18-.32.28l-.31.3-.29.31-.25.3-.25-.3c-.08-.1-.18-.2-.28-.31l-.31-.3c-.1-.1-.21-.18-.32-.28s-.22-.16-.33-.26a3.17,3.17,0,0,0-.36-.23c-.12-.08-.24-.14-.35-.2l-.37-.18L57.4,41,57,40.85l-.37-.08a7,7,0,0,0-.77-.09l-.38,0-.37,0,.36.13.37.12.35.13.36.14a3.68,3.68,0,0,0,.35.15l.33.17.33.19.32.21c.1.09.21.15.3.22l.3.24c.09.09.2.17.28.26a3.38,3.38,0,0,1,.27.26,3.84,3.84,0,0,1,.27.29c.09.11.18.19.27.3l.25.31.25.32.24.31v0h0v0l.24-.31.25-.32.25-.31.27-.3.26-.29.28-.26c.08-.09.19-.17.28-.26s.2-.15.3-.24l.3-.22.32-.21.33-.19.33-.17c.12,0,.23-.1.35-.15l.35-.14.36-.13.37-.12.36-.13Z" style="fill: #c3e1df"/>
    </g>
  </g>
</svg>
