<svg id="mgib" xmlns="http://www.w3.org/2000/svg" xmlns:xlink="http://www.w3.org/1999/xlink" viewBox="0 0 424 255">
  <defs>
    <symbol id="coinBig" data-name="coinBig" viewBox="0 0 151 152.93">
      <path d="M146.7,52.83a74.55,74.55,0,0,0-6.33-13.42A75.27,75.27,0,0,0,132.63,27,74.75,74.75,0,1,0,146.7,52.83Z" style="fill: #f7d67d"/>
      <g>
        <circle cx="76.22" cy="76.22" r="55.48" style="fill: #fff"/>
        <circle cx="75.26" cy="74.29" r="55.48" style="fill: #bb9450"/>
        <circle cx="75.98" cy="75.5" r="55" style="fill: #f5c96a"/>
      </g>
      <path d="M146.7,52.83A75,75,0,0,1,15.48,120.65a74.51,74.51,0,0,1-6.78-9.54,75,75,0,0,0,138-58.28Z" style="fill: #bb9450"/>
      <path d="M21,35.82A63.23,63.23,0,0,1,69.07,9.6" style="fill: none;stroke: #fff;stroke-linecap: round;stroke-miterlimit: 10;stroke-width: 3px;opacity: 0.5"/>
    </symbol>
  </defs>
  <title>mgib</title>
  <g>
    <g>
      <path d="M216.54,162.93c-1.62-.58-3.23-1.11-4.84-1.72l-4.81-2.06c-3.19-1.36-6.38-2.69-9.57-4a.57.57,0,0,0-.49,1A88.08,88.08,0,0,0,213.47,165a1.45,1.45,0,0,0,.08,1.25,110.9,110.9,0,0,0,7.89,12.09q2.17,2.9,4.55,5.64a58.36,58.36,0,0,0,5,5.18c6.88,6.32,14.91,12.09,23.91,15.27.67.26,1.27-.93.65-1.26q-3.06-1.6-6-3.33a55.89,55.89,0,0,1-5.68-3.72,118.91,118.91,0,0,1-10.46-8.62q-2.44-2.28-4.74-4.71t-4.41-5.3a103,103,0,0,1-7.78-11.46c5.63,1.81,11.46,3.65,17.24,4.43a1,1,0,0,0,.23.55,79.37,79.37,0,0,0,32.81,23.64c6.36,2.19,13.2,4.12,20.21,4.35a101.42,101.42,0,0,0,10.76.06,96.45,96.45,0,0,0,11-1.79c.83-.18.81-1.43,0-1.32-3.51.47-7,.82-10.38,1s-6.83-.15-10.14-.42a71.31,71.31,0,0,1-9.75-1.39q-4.8-1.17-9.35-2.73-2.26-.78-4.47-1.67l-2.18-.91-2.17-1.11a93.36,93.36,0,0,1-8.27-4.92,81.43,81.43,0,0,1-7.63-5.75,92.21,92.21,0,0,1-7-7l.49.09c2.29.35,4.61.72,6.92.95s4.64.22,7,.28,4.68.08,7,.08a64.27,64.27,0,0,0,7.06-.51.86.86,0,0,0,.4.44c2.91,1.27,5.89,2.48,8.94,3.6l2.3.82,2.31.64c1.55.42,3.11.81,4.69,1.18q4.72,1.11,9.65,1.94c3.26.43,6.54.6,9.89.75,13.42.71,27.3-2,41.19-7.26.82-.3.67-1.57-.09-1.32-26.16,7.68-51.54,7.58-74.07-1.39a96.94,96.94,0,0,0,14.95-3c2.35-.62,4.71-1.2,7.05-2l7-2.63a.93.93,0,0,0,.82.78,90.83,90.83,0,0,0,55.7-11.28c1-.53.84-2.22-.18-1.74-17.6,8.07-35.21,11.86-52.07,10.57a87.68,87.68,0,0,0,9.56-4.56c3.15-1.69,6.31-3.32,9.4-5.21.09.42.36.72.8.66,14.4-1.77,29.63-8.68,42.42-21.55.7-.68.23-1.72-.5-1.14-6.43,5-12.66,9.84-19.24,13a80.5,80.5,0,0,1-9.83,4.32A80.28,80.28,0,0,1,326.83,150c3.85-2.64,7.73-5.15,11.45-8.13s7.35-6.15,10.94-9.34c1.5,1.57,5.08-1.14,6.72-2a54.61,54.61,0,0,0,12.51-9.77c.83-.85.2-2.22-.64-1.39a53.41,53.41,0,0,1-4,3.7c-1.4,1.09-2.82,2.12-4.27,3.06q-1.9,1.23-3.83,2.28-1.29.72-2.58,1.35c-1,.86-1.58,1.14-1.82.88a194.62,194.62,0,0,0,17.57-19.5c1.08-1.36-.32-2.74-1.38-1.42a197.31,197.31,0,0,1-15.82,17.4c.76-2.71,2.81-6.28,3.75-8.21,1.6-3.37,3.46-6.43,5-9.82.58-1.28-.64-2.25-1.37-1a97.61,97.61,0,0,0-7.42,14.65c-.69,1.56-2.38,4.85-2.85,7.22-6.26,5.5-12.59,11.09-19.31,15.49,1.82-2.8,3.65-5.53,5.48-8.22l5.36-8.45,5.32-8.3c1.74-2.82,3.41-5.8,5.08-8.7.73-1.3-.62-2.34-1.43-1.19-8.45,11.86-16.27,25.06-24.09,37.81a96.14,96.14,0,0,1-9.84,5.82l-5,2.64a50.52,50.52,0,0,1-5.05,2.41c1.31-1.84,2.6-3.8,3.89-5.74s2.59-3.8,3.89-5.69l3.91-5.54,2-2.71,1.93-2.85c2.58-3.79,5.17-7.5,7.76-11.18l1.95-2.74,1.9-2.9,3.8-5.78c.9-1.37-.22-3-1.25-1.64-1.46,1.89-2.9,3.82-4.32,5.81s-2.89,3.81-4.31,5.8c-2.86,3.89-5.65,8-8.42,12.17-2.81,4-5.59,8.05-8.32,12.23-1.38,2.06-2.72,4.25-4.09,6.26s-2.74,4-4.1,6q-4.41,1.75-8.84,3.37c-3,.95-6,1.68-9,2.45l-6.37,1.48c-2.12.46-4.27.64-6.4.94,2.11-2.12,4.26-4,6.35-6.17s4.21-4.24,6.32-6.29l6.36-6q3.15-3.2,6.32-6.25t6.37-6l6.25-6.29,6.23-6.15c1.37-1.39,2.7-2.9,4.05-4.34a3.34,3.34,0,0,0,1.89-1.72.92.92,0,0,0,1.26-.19l.49-.5a1.84,1.84,0,0,0,.38-1.68l-.19-.78a1,1,0,0,0-1.24-.65c-3.36.7-7.35,7.13-10.12,9.7l-7.75,7.76c-1.28,1.36-2.6,2.59-3.92,3.81L296,141c-2.42,2.33-4.81,4.76-7.21,7.19q-3.63,3.39-7.24,7c-2.42,2.35-4.8,4.91-7.23,7.24s-4.86,4.66-7.29,7.06l-6.64.62c-2.23,0-4.44,0-6.65,0s-4.4-.12-6.59-.22c-1.09-.07-2.17-.09-3.26-.21l-3.27-.46-1.46-.25c4.94-2.89,9.8-6.43,14.64-9.56s9.61-6.62,14.37-9.88c5.41-3.53,10.74-7.6,16.06-11.23,2.67-1.76,5.25-3.92,7.82-6s5.09-4.19,7.55-6.36c1-.85.24-2.67-.82-2q-3.88,2.4-7.73,5.15c-2.57,1.84-5.13,3.83-7.75,5.56-5.22,3.57-10.4,7.85-15.71,11.47C265,148,262.33,150,259.68,152s-5.34,3.69-8,5.6l-8,5.65-8,5.1c-2.69-.52-5.34-1-8-1.71s-5.21-1.66-7.78-2.53C236.67,155.16,253,146.2,268.93,136c1.51-.9.33-3.35-1.16-2.48q-3.13,1.84-6.27,3.8c-2.09,1.27-4.17,2.72-6.29,3.83-4.23,2.38-8.46,4.92-12.71,7.52q-6.42,3.44-12.89,7.23c-2.16,1.34-4.33,2.32-6.51,3.5Z" style="fill: #79b689;stroke: #afd6b1;stroke-miterlimit: 10"/>
      <path d="M207.46,162.93c1.62-.58,3.23-1.11,4.84-1.72l4.81-2.06c3.19-1.36,6.38-2.69,9.57-4a.57.57,0,0,1,.49,1A88.08,88.08,0,0,1,210.53,165a1.45,1.45,0,0,1-.08,1.25,110.9,110.9,0,0,1-7.89,12.09q-2.17,2.9-4.55,5.64a58.36,58.36,0,0,1-5,5.18c-6.88,6.32-14.91,12.09-23.91,15.27-.67.26-1.27-.93-.65-1.26q3.06-1.6,6-3.33a55.89,55.89,0,0,0,5.68-3.72,118.91,118.91,0,0,0,10.46-8.62q2.44-2.28,4.74-4.71t4.41-5.3a103,103,0,0,0,7.78-11.46c-5.63,1.81-11.46,3.65-17.24,4.43a1,1,0,0,1-.23.55,79.37,79.37,0,0,1-32.81,23.64C150.88,196.87,144,198.8,137,199a101.42,101.42,0,0,1-10.76.06,96.45,96.45,0,0,1-11-1.79c-.83-.18-.81-1.43,0-1.32,3.51.47,7,.82,10.38,1s6.83-.15,10.14-.42a71.31,71.31,0,0,0,9.75-1.39q4.8-1.17,9.35-2.73,2.27-.78,4.47-1.67l2.18-.91,2.17-1.11a93.36,93.36,0,0,0,8.27-4.92,81.43,81.43,0,0,0,7.63-5.75,92.21,92.21,0,0,0,7-7l-.49.09c-2.29.35-4.61.72-6.92.95s-4.64.22-7,.28-4.68.08-7,.08a64.27,64.27,0,0,1-7.06-.51.86.86,0,0,1-.4.44c-2.91,1.27-5.89,2.48-8.94,3.6l-2.3.82-2.31.64c-1.55.42-3.11.81-4.69,1.18q-4.72,1.11-9.65,1.94c-3.26.43-6.54.6-9.89.75-13.42.71-27.3-2-41.19-7.26-.82-.3-.67-1.57.09-1.32,26.16,7.68,51.54,7.58,74.07-1.39a96.94,96.94,0,0,1-14.95-3c-2.35-.62-4.71-1.2-7.05-2l-7-2.63a.93.93,0,0,1-.82.78,90.83,90.83,0,0,1-55.7-11.28c-1-.53-.84-2.22.18-1.74,17.6,8.07,35.21,11.86,52.07,10.57a87.68,87.68,0,0,1-9.56-4.56c-3.15-1.69-6.31-3.32-9.4-5.21-.09.42-.36.72-.8.66-14.4-1.77-29.63-8.68-42.42-21.55-.7-.68-.23-1.72.5-1.14,6.43,5,12.66,9.84,19.24,13A80.5,80.5,0,0,0,87,147.59,80.28,80.28,0,0,0,97.17,150c-3.85-2.64-7.73-5.15-11.45-8.13s-7.35-6.15-10.94-9.34c-1.5,1.57-5.08-1.14-6.72-2a54.61,54.61,0,0,1-12.51-9.77c-.83-.85-.2-2.22.64-1.39a53.41,53.41,0,0,0,4,3.7c1.4,1.09,2.82,2.12,4.27,3.06q1.91,1.23,3.83,2.28,1.29.72,2.58,1.35c1,.86,1.58,1.14,1.82.88a194.62,194.62,0,0,1-17.57-19.5c-1.08-1.36.32-2.74,1.38-1.42a197.31,197.31,0,0,0,15.82,17.4c-.76-2.71-2.81-6.28-3.75-8.21-1.6-3.37-3.46-6.43-5-9.82-.58-1.28.64-2.25,1.37-1a97.61,97.61,0,0,1,7.42,14.65c.69,1.56,2.38,4.85,2.85,7.22,6.26,5.5,12.59,11.09,19.31,15.49-1.82-2.8-3.65-5.53-5.48-8.22l-5.36-8.45-5.32-8.3c-1.74-2.82-3.41-5.8-5.08-8.7-.73-1.3.62-2.34,1.43-1.19,8.45,11.86,16.27,25.06,24.09,37.81a96.14,96.14,0,0,0,9.84,5.82l5,2.64a50.52,50.52,0,0,0,5,2.41c-1.31-1.84-2.6-3.8-3.89-5.74s-2.59-3.8-3.89-5.69L107,142.27l-2-2.71-1.93-2.85c-2.58-3.79-5.17-7.5-7.76-11.18l-2-2.74-1.9-2.9-3.8-5.78c-.9-1.37.22-3,1.25-1.64,1.46,1.89,2.9,3.82,4.32,5.81s2.89,3.81,4.31,5.8c2.86,3.89,5.65,8,8.42,12.17,2.81,4,5.59,8.05,8.32,12.23,1.38,2.06,2.72,4.25,4.09,6.26s2.74,4,4.1,6q4.41,1.75,8.84,3.37c3,.95,6,1.68,9,2.45l6.37,1.48c2.12.46,4.27.64,6.4.94-2.11-2.12-4.26-4-6.35-6.17s-4.21-4.24-6.32-6.29l-6.36-6q-3.15-3.2-6.32-6.25t-6.37-6L115.11,132l-6.23-6.15c-1.37-1.39-2.7-2.9-4-4.34a3.34,3.34,0,0,1-1.89-1.72.92.92,0,0,1-1.26-.19l-.49-.5a1.84,1.84,0,0,1-.38-1.68l.19-.78a1,1,0,0,1,1.24-.65c3.36.7,7.35,7.13,10.12,9.7l7.75,7.76c1.28,1.36,2.6,2.59,3.92,3.81L128,141c2.42,2.33,4.81,4.76,7.21,7.19q3.63,3.39,7.24,7c2.42,2.35,4.8,4.91,7.23,7.24s4.86,4.66,7.29,7.06l6.64.62c2.23,0,4.44,0,6.65,0s4.4-.12,6.59-.22c1.09-.07,2.17-.09,3.26-.21l3.27-.46,1.46-.25c-4.94-2.89-9.8-6.43-14.64-9.56s-9.61-6.62-14.37-9.88c-5.41-3.53-10.74-7.6-16.06-11.23-2.67-1.76-5.25-3.92-7.82-6s-5.09-4.19-7.55-6.36c-1-.85-.24-2.67.82-2q3.88,2.4,7.73,5.15c2.57,1.84,5.13,3.83,7.75,5.56,5.22,3.57,10.4,7.85,15.71,11.47,2.65,1.9,5.29,3.87,7.94,5.88s5.34,3.69,8,5.6l8,5.65,8,5.1c2.69-.52,5.34-1,8-1.71s5.21-1.66,7.78-2.53C187.33,155.16,171,146.2,155.07,136c-1.51-.9-.33-3.35,1.16-2.48q3.14,1.84,6.27,3.8c2.09,1.27,4.17,2.72,6.29,3.83,4.23,2.38,8.46,4.92,12.71,7.52q6.42,3.44,12.89,7.23c2.16,1.34,4.33,2.32,6.51,3.5Z" style="fill: #79b689;stroke: #afd6b1;stroke-miterlimit: 10"/>
    </g>
    <use width="151" height="152.93" transform="translate(136.07 50.5)" xlink:href="#coinBig"/>
  </g>
</svg>
