<svg id="mgiq" xmlns="http://www.w3.org/2000/svg" viewBox="0 0 424 255">
  <title>mgiq</title>
  <g>
    <g>
      <path d="M283.2,103.85a75,75,0,0,0-6.33-13.43A75.69,75.69,0,0,0,269.13,78a74.8,74.8,0,1,0,14.07,25.87Z" style="fill: #f7d67d"/>
      <g>
        <ellipse cx="212.72" cy="127.26" rx="55.48" ry="55.5" style="fill: #fff"/>
        <ellipse cx="211.76" cy="125.33" rx="55.48" ry="55.5" style="fill: #bb9450"/>
        <ellipse cx="212.48" cy="126.53" rx="55" ry="55.02" style="fill: #f5c96a"/>
      </g>
      <path d="M283.2,103.85A75,75,0,0,1,152,171.71a73.92,73.92,0,0,1-6.78-9.55,75,75,0,0,0,138-58.31Z" style="fill: #bb9450"/>
      <path d="M157.51,86.84a63.19,63.19,0,0,1,48.06-26.23" style="fill: none;stroke: #fff;stroke-linecap: round;stroke-miterlimit: 10;stroke-width: 3px;opacity: 0.5"/>
    </g>
    <g>
      <path d="M68.91,157c1.83,5.55,4,11,6.25,16.09-3.93,1.21-8.68-4.67-11-7.78-1-1.31-2.43.34-1.85,1.94C64.7,174,71.69,180.39,77.38,178c1.36,2.93,2.74,5.75,4.07,8.41,1.61,3.21,3.31,6.34,5.06,9.41a9,9,0,0,1-2.51-.37A34.8,34.8,0,0,1,78,193c-1.84-1-4.78-3.8-6.62-3.28.72-.21.77-1.91,0-2.06a1.68,1.68,0,0,0-1.8.4,2.12,2.12,0,0,0-.6,2c1.09,3.93,5,6,7.55,7.66,3.56,2.23,7.84,4.61,11.84,4.26a8.2,8.2,0,0,0,1.61-.31c3,4.82,6.08,9.41,9.35,13.83a6,6,0,0,1-1.9.69c-5.19.89-8.67-3.43-13.06-6-1-.62-2,.62-1.51,2,2.66,8.57,14,12.08,19.64,7.9l.24-.21c3,3.87,6.19,7.61,9.49,11.11-3.61.66-7.35-1.2-10.68-2.84-1.48-.73-2.53,2.58-1.08,3.51,4.85,3.1,10.63,5.85,15.79,3.44a155.42,155.42,0,0,0,13.34,11.71h0c-4.53,2.64-8.5-1.24-12.94-1.7-1-.1-1.58,1.85-.84,2.76,4.52,5.52,13.09,7.42,18.12,2.2v0q3.56,2.56,7.22,4.87h9.49a129.16,129.16,0,0,1-14.31-8.73,23.17,23.17,0,0,0-1.55-18.85c-1.42-2.31-3.78.24-3.42,2.71.65,4.4,2.57,9.58,1.16,13.37a146,146,0,0,1-12.8-10.9c3.93-4.39,5.42-14.21.57-18.36-1.79-1.53-3.67,1.44-2.77,3.77s1.81,4.58,1,7.33a8,8,0,0,1-2.35,3.78c-3.64-3.72-7.26-7.83-10.81-12.23,2.84-4.67,3.59-11.82.14-16.33-1.76-2.3-5.07.79-3.52,3.7a8.89,8.89,0,0,1,.09,8.44c-3.12-4.1-6.16-8.41-9.08-12.93,4.46-4.55,4.51-15.08,3.16-22.12-.64-3.3-4.85-2.74-4.51.84.56,5.95,1.09,13.26-1.86,16.11a199.28,199.28,0,0,1-9.9-18.4c3.59-4,4.4-12.3,3.3-18-.67-3.43-4.13-2.45-4.33.79-.23,3.64.66,9-1.25,12.16-2.21-5.1-4.21-10.32-5.93-15.63,3.71-3.54,5.72-13.42,1-16.9-1.69-1.25-3.59,1.27-2.64,3.59.66,1.61,1.37,2.76,1.18,4.73a8.13,8.13,0,0,1-1.16,3.41,148,148,0,0,1-4.72-22.54c-.17-1.37-1.75-1-1.75.32a89,89,0,0,0,3.87,24.25c-3,.68-5.67-3.38-7.1-6.59-.72-1.62-2.29-.47-2.11,1.21C58.94,153.42,64.28,158.15,68.91,157Z" style="fill: #79b689"/>
      <path d="M63.05,209c-2.25,1.36-5.44-1-7.44-3-1-1-2,.29-1.36,1.51,2.25,4.65,7.78,6.71,11.18,4.57a137.21,137.21,0,0,0,9.29,10.39c-2.83,2-8.19-1.08-10.91-2.77-1.14-.7-1.85.94-1,2,3.73,4.41,11,7.25,14.93,3.84,1.87,1.82,3.72,3.57,5.5,5.2,2.14,2,4.33,3.85,6.54,5.69a8.46,8.46,0,0,1-2.11.42,30.35,30.35,0,0,1-5.46-.16c-1.72-.2-4.83-1.53-6.16-.61.52-.36.11-1.66-.55-1.56a1.49,1.49,0,0,0-1.33.81,1.65,1.65,0,0,0,.05,1.7c1.92,2.66,5.57,3.16,8.08,3.66,3.44.68,7.49,1.27,10.6-.12a6.37,6.37,0,0,0,1.2-.69c3.64,2.81,7.37,5.4,11.16,7.82a5.28,5.28,0,0,1-1.33,1c-3.92,2.13-7.85-.14-12-.85-1-.16-1.39,1-.66,2,4.41,5.72,14.37,5.2,17.81.44l.14-.22c2.93,1.74,5.9,3.38,8.89,4.89h8.37l-.31-.12c2-4.42.56-12.26-4.43-14-1.83-.65-2.55,2.12-1.21,3.63s2.66,3,2.75,5.26a6.37,6.37,0,0,1-.88,3.51c-3.9-1.79-7.89-3.87-11.89-6.2,1-4.32-.27-9.93-4.23-12.37-2-1.24-3.85,2-1.84,3.79a6.74,6.74,0,0,1,2.32,6.34c-3.58-2.21-7.17-4.61-10.7-7.2,2.36-4.7-.4-12.66-3.35-17.6-1.38-2.31-4.61-.7-3.39,1.9,2,4.34,4.4,9.71,2.8,12.69A154.79,154.79,0,0,1,79.3,223.49c1.82-4,.25-10.53-2.15-14.52-1.44-2.41-3.94-.69-3.25,1.82.79,2.81,2.93,6.64,2.23,9.53-3.12-3.23-6.1-6.61-8.9-10.14,2-3.72,1-11.74-3.67-13.05-1.68-.46-2.53,2-1.15,3.46,1,1,1.82,1.7,2.19,3.24a6.18,6.18,0,0,1,0,2.9A113.42,113.42,0,0,1,54.82,191c-.5-1-1.67-.27-1.31.74A67.26,67.26,0,0,0,63.05,209Z" style="fill: #afd6b1"/>
    </g>
    <g>
      <path d="M296.49,253.29c-.34.57-.69,1.14-1,1.71h4.09c.12-.21.25-.42.37-.64,4.76.51,8.76-3.07,11.93-6.68,1-1.08-.7-3.34-1.72-2.4-2.29,2.11-4.87,4.49-7.94,4.91,1.81-3.52,3.45-7.18,5-10.91l.24.09c5.62,1.73,13.89-3.84,14-11.06,0-1.2-1-1.92-1.71-1.18-2.93,3.08-4.7,7.27-9.11,7.92a5.38,5.38,0,0,1-1.7,0c1.57-4.21,3-8.52,4.21-12.95a6.79,6.79,0,0,0,1.38-.18c3.31-.76,6.2-3.67,8.53-6.28,1.71-1.91,4.32-4.51,4.26-7.78a1.66,1.66,0,0,0-1-1.39,1.46,1.46,0,0,0-1.55.15c-.59.32-.14,1.6.49,1.57-1.61.08-3.3,3-4.55,4.2a29.84,29.84,0,0,1-4.27,3.41,7.54,7.54,0,0,1-1.94.93c.67-2.79,1.29-5.61,1.81-8.47.44-2.38.86-4.89,1.26-7.47,5.18.37,9.29-6.27,9.62-12.05.08-1.37-1.48-2.25-2-1-1.16,3-3.58,8.68-7,8.77a139.07,139.07,0,0,0,1.16-13.89c4-.33,7.19-5.31,6.19-10.38-.27-1.33-1.81-1.81-2-.38-.38,2.81-1.54,6.59-4.15,6.85a67.38,67.38,0,0,0-2.74-19.5c-.33-1-1.69-.89-1.49.2a113.1,113.1,0,0,1,1.64,18.41,6.09,6.09,0,0,1-1.76-2.31c-.63-1.44-.34-2.51-.2-3.91.21-2-1.93-3.45-3-2.06-3,3.86,1.06,10.89,4.92,12.63-.11,4.5-.46,9-1,13.45-2.3-1.88-2.89-6.24-4-9-.95-2.42-4-2.29-3.69.5.48,4.64,3.16,10.79,7,12.9a160.39,160.39,0,0,1-3.54,16.58c-3.08-1.43-4.42-7.14-5.41-11.83-.59-2.81-4.14-2.15-3.85.53.61,5.71,3.21,13.74,7.91,16.07-1.26,4.19-2.68,8.27-4.21,12.19a6.73,6.73,0,0,1-2-6.46c.54-2.62-2.89-4.13-3.75-1.92-1.7,4.33.64,9.59,4.07,12.42-1.81,4.27-3.74,8.33-5.78,12.11a6.41,6.41,0,0,1-2.82-2.28c-1.31-1.89-1.13-3.79-1-5.85s-2.08-3.8-3.15-2.17C288.67,243.83,292.25,250.94,296.49,253.29Z" style="fill: #afd6b1"/>
      <path d="M297.38,255c3.57-2.11,7.08-4.4,10.49-6.87v0c5,5.22,13.6,3.32,18.12-2.2.74-.91.18-2.86-.84-2.76-4.43.46-8.4,4.34-12.94,1.7h0a152.45,152.45,0,0,0,13.34-11.71c5.17,2.41,10.94-.34,15.8-3.44,1.44-.93.4-4.24-1.09-3.51-3.33,1.64-7.07,3.5-10.67,2.84,3.29-3.5,6.44-7.24,9.49-11.11l.24.21c5.69,4.18,17,.67,19.63-7.9.44-1.43-.45-2.67-1.5-2-4.39,2.56-7.88,6.88-13.07,6a6,6,0,0,1-1.89-.69c3.26-4.42,6.4-9,9.35-13.83a8.06,8.06,0,0,0,1.61.31c4,.35,8.28-2,11.84-4.26,2.59-1.62,6.45-3.73,7.55-7.66a2.13,2.13,0,0,0-.61-2,1.66,1.66,0,0,0-1.79-.4c-.77.15-.73,1.85,0,2.06-1.84-.52-4.79,2.33-6.62,3.28a34.89,34.89,0,0,1-6,2.45,9,9,0,0,1-2.5.37c1.74-3.07,3.44-6.2,5-9.41,1.34-2.66,2.71-5.48,4.08-8.41,5.69,2.4,12.68-4,15.11-10.71.57-1.6-.86-3.25-1.85-1.94-2.36,3.11-7.12,9-11.05,7.78,2.26-5.13,4.43-10.54,6.26-16.09,4.62,1.12,10-3.61,10.65-10,.18-1.68-1.38-2.83-2.11-1.21-1.42,3.21-4.07,7.27-7.1,6.59a88.28,88.28,0,0,0,3.87-24.25c0-1.34-1.57-1.69-1.75-.32a148,148,0,0,1-4.71,22.54,8,8,0,0,1-1.16-3.41c-.19-2,.51-3.12,1.17-4.73,1-2.32-.94-4.84-2.63-3.59-4.71,3.48-2.7,13.36,1,16.9-1.73,5.31-3.73,10.53-5.94,15.63-1.9-3.12-1-8.52-1.24-12.16-.21-3.24-3.67-4.22-4.33-.79-1.11,5.7-.29,14,3.29,18A196.84,196.84,0,0,1,352,192.6c-3-2.85-2.42-10.16-1.86-16.11.34-3.58-3.88-4.14-4.51-.84-1.35,7-1.3,17.57,3.16,22.12-2.92,4.52-6,8.83-9.08,12.93a8.89,8.89,0,0,1,.09-8.44c1.54-2.91-1.76-6-3.53-3.7-3.45,4.51-2.7,11.66.14,16.33-3.55,4.4-7.17,8.51-10.81,12.23a8.11,8.11,0,0,1-2.35-3.78c-.8-2.75.08-4.94,1-7.33s-1-5.3-2.76-3.77c-4.85,4.15-3.37,14,.56,18.36a145.85,145.85,0,0,1-12.79,10.9c-1.42-3.79.51-9,1.15-13.37.37-2.47-2-5-3.41-2.71a23.13,23.13,0,0,0-1.56,18.85A131.26,131.26,0,0,1,291.13,253a8.64,8.64,0,0,1,2.1-8.34c2.07-2.25-.58-6.32-2.7-4.77-4.2,3.06-5.28,9.68-3.59,15.09Z" style="fill: #79b689"/>
    </g>
  </g>
</svg>
