<svg xmlns="http://www.w3.org/2000/svg" xmlns:xlink="http://www.w3.org/1999/xlink" viewBox="0 0 424 255">
  <defs>
    <symbol id="goldCoin_3" data-name="goldCoin 3" viewBox="0 0 32.32 7.61">
      <path d="M1,1.27H31.32a1,1,0,0,1,1,1V5.61a2,2,0,0,1-2,2H2a2,2,0,0,1-2-2V2.27a1,1,0,0,1,1-1Z" style="fill: #fdc655"/>
      <ellipse cx="16.16" cy="1.27" rx="15.51" ry="1.27" style="fill: #fde288"/>
    </symbol>
  </defs>
  <title>perfectBlock</title>
  <g style="isolation: isolate">
    <g id="Layer_8" data-name="Layer 8">
      <g>
        <g>
          <g>
            <path d="M83.79,170.22l7.55-2.56c3.89-1.35,9.35-3.22,19-6.42l16.33-5.4L137,152.43c6-2,11.47-3.75,15.45-5l4.75-1.46a11.16,11.16,0,0,1,1.82-.47,63.32,63.32,0,0,1-6.11,2.35c-3.85,1.38-9.19,3.28-15.12,5.33l-16.15,5.54-10.28,3.53-7.54,2.65-18.71,6.59c-11.94,4.19-21.88,7.22-22.3,6.8S71.72,174.26,83.79,170.22Z" style="fill: #ffd46f"/>
            <path d="M103.89,134.46l4.79-.34c2.48-.19,5.94-.45,12-.85l10.3-.65,6.53-.42c3.79-.25,7.23-.44,9.73-.55a27.58,27.58,0,0,1,4.08-.05c0,.16-6,.77-13.59,1.35l-10.26.76-6.54.48-4.81.39-11.95,1c-7.63.58-13.83.78-13.92.44S96.25,135,103.89,134.46Z" style="fill: #ffd46f"/>
            <path d="M43.63,138.51c1.68-.11,2.24-.16,3.48-.26,1.8-.16,4.31-.37,8.73-.65l7.5-.42,4.75-.28c5.51-.35,10-.34,10.14,0s-4.3,1-9.79,1.41l-7.47.5-4.76.33c-1.7.12-2.25.17-3.49.29-1.8.17-4.31.41-8.69.73-5.55.41-10.1.33-10.22-.16S38.08,138.85,43.63,138.51Z" style="fill: #ffd46f"/>
            <path d="M71,128.54c-.88,0-1.17,0-1.83,0-.94,0-2.26.08-4.58.08-2,0-3.05,0-3.94-.06l-2.48,0c-2.89,0-5.26-.37-5.27-.81s2.31-.77,5.19-.72c2,0,3.06,0,3.93.09l2.5,0c.89,0,1.19,0,1.84,0,1,0,2.27-.06,4.57,0,2.92,0,5.28.36,5.3.73S74,128.54,71,128.54Z" style="fill: #ffd46f"/>
            <path d="M145.1,156.75l-1.73.75c-.88.4-2.11,1-4.32,1.89L135.27,161l-2.39,1c-2.76,1.16-5.24,1.9-5.53,1.67s1.74-1.35,4.54-2.48l3.82-1.52,2.42-1,1.76-.74c.89-.4,2.15-.95,4.37-1.85,2.82-1.14,5.26-1.92,5.46-1.75S147.88,155.57,145.1,156.75Z" style="fill: #ffd46f"/>
            <path d="M119.36,167.93a4,4,0,0,0-.49.22,12.74,12.74,0,0,1-1.25.55c-.57.21-.89.31-1.16.39l-.74.24a2.45,2.45,0,0,1-2,0c-.3-.29.13-.76,1-1.06.58-.2.9-.3,1.17-.38a7.47,7.47,0,0,0,.74-.24,4,4,0,0,0,.51-.21,8.66,8.66,0,0,1,1.26-.54,2.48,2.48,0,0,1,2-.06C120.64,167.15,120.2,167.62,119.36,167.93Z" style="fill: #ffd46f"/>
            <path d="M86.39,145l4.11-.61c2.12-.32,5.09-.78,10.31-1.5l8.87-1.2,5.62-.76c6.51-.9,11.88-1.44,12-1.22s-5.08,1.22-11.56,2.19l-8.81,1.29-5.62.82-4.12.64c-2.12.35-5.08.83-10.24,1.6-6.55,1-11.94,1.46-12.1,1.08S79.81,145.92,86.39,145Z" style="fill: #ffd46f"/>
            <path d="M141.58,137.31l.82-.12c.42-.07,1-.16,2-.29l1.77-.2,1.13-.13a5.15,5.15,0,0,1,2.44,0c.05.18-1,.47-2.25.64l-1.76.22-1.12.14-.82.12c-.42.08-1,.18-2,.32-1.31.17-2.41.14-2.47-.07S140.27,137.47,141.58,137.31Z" style="fill: #ffd46f"/>
            <path d="M60.38,148.71a1.7,1.7,0,0,0,.45-.07,8.18,8.18,0,0,1,1.12-.16,8.58,8.58,0,0,1,1,0c.18,0,.32,0,.63,0,.73,0,1.4.25,1.52.66s-.37.8-1.08.85c-.5,0-.78,0-1,0s-.32,0-.63,0a1.62,1.62,0,0,0-.44.07,5.76,5.76,0,0,1-1.12.17c-.73.05-1.42-.26-1.54-.68S59.65,148.75,60.38,148.71Z" style="fill: #ffd46f"/>
            <path d="M120.83,148.77c.5-.11.65-.14,1-.24.52-.13,1.24-.33,2.54-.6l2.22-.45,1.41-.28c1.61-.35,3-.45,3.14-.22s-1.1.73-2.7,1.09c-1.1.26-1.71.38-2.2.47l-1.39.31a10.19,10.19,0,0,0-1,.25c-.52.14-1.24.33-2.53.62-1.62.37-3,.44-3.18.17S119.19,149.12,120.83,148.77Z" style="fill: #ffd46f"/>
            <path d="M79.89,158.3c.4-.08.52-.12.81-.2s1-.28,2-.49c.89-.17,1.39-.25,1.8-.31s.58-.09,1.15-.2c1.31-.26,2.53-.18,2.72.16s-.71.87-2,1.14c-.9.19-1.39.27-1.8.34s-.58.09-1.14.21c-.4.08-.52.12-.81.2a17.67,17.67,0,0,1-2,.51c-1.31.27-2.54.18-2.76-.2S78.56,158.56,79.89,158.3Z" style="fill: #ffd46f"/>
            <path d="M98.83,154.16c.38-.08.51-.11.78-.19s1-.27,2-.47,1.33-.25,1.72-.31.55-.09,1.09-.2c1.26-.26,2.4-.22,2.55.08s-.73.77-2,1c-.85.18-1.33.26-1.71.33l-1.08.21a6,6,0,0,0-.79.2c-.39.11-.94.27-1.94.48-1.25.27-2.41.22-2.58-.11S97.56,154.41,98.83,154.16Z" style="fill: #ffd46f"/>
            <path d="M141.86,144l.43-.1c.22-.06.53-.15,1.07-.25s.73-.13.94-.16l.6-.11c.68-.13,1.27-.07,1.33.12s-.45.48-1.14.62c-.46.1-.72.14-.92.17l-.59.11a2.65,2.65,0,0,0-.43.11c-.21.06-.52.15-1.06.26-.69.14-1.29.08-1.36-.14S141.17,144.15,141.86,144Z" style="fill: #ffd46f"/>
          </g>
          <g>
            <path d="M151.48,207.47l3.57-4.71c1.83-2.45,4.39-5.87,9-11.8L172,180.9l5-6.37c2.89-3.7,5.58-7,7.57-9.43,1-1.2,1.82-2.16,2.39-2.83s.93-1,1-1-.17.41-.63,1.11-1.17,1.69-2,2.94c-1.75,2.46-4.21,5.86-7,9.59L170.69,185l-4.83,6.44c-1.69,2.32-2.25,3.07-3.5,4.77-1.78,2.47-4.29,5.9-8.63,11.87-5.55,7.55-10.59,13.46-11.33,13.25S145.68,215,151.48,207.47Z" style="fill: #ffd46f"/>
            <path d="M132.39,171.53l3.53-2c1.82-1,4.36-2.44,8.87-4.89l7.68-4.12c1.37-.75,2.44-1.32,4.86-2.62,5.63-3.05,10.35-5.42,10.54-5.3s-4.15,2.75-9.68,5.86c-3.81,2.13-5.87,3.28-7.54,4.2l-4.8,2.68-3.51,2-8.7,5c-5.58,3.14-10.39,5.46-10.78,5.2S126.71,174.6,132.39,171.53Z" style="fill: #ffd46f"/>
            <path d="M87.71,195.87c1.25-.67,1.65-.91,2.55-1.43,1.3-.75,3.12-1.81,6.42-3.58l5.63-3,3.56-1.88c4.11-2.21,7.78-3.78,8.19-3.51s-2.51,2.33-6.54,4.58l-5.53,3L98.46,192c-1.25.69-1.65.92-2.54,1.45-1.27.77-3.07,1.85-6.29,3.63-4.08,2.27-7.82,3.79-8.38,3.43S83.56,198.09,87.71,195.87Z" style="fill: #ffd46f"/>
            <path d="M99.94,178.24c-.71.31-.94.42-1.45.67-.73.35-1.76.85-3.63,1.66-1.59.68-2.49,1-3.23,1.33l-2,.84c-2.34,1-4.59,1.52-5,1.17s1.14-1.44,3.51-2.42c1.63-.67,2.54-1,3.26-1.29l2.07-.83c.74-.3,1-.41,1.48-.66.74-.35,1.78-.83,3.67-1.62,2.39-1,4.61-1.54,5-1.24S102.3,177.22,99.94,178.24Z" style="fill: #ffd46f"/>
            <path d="M187.74,175.26c-.32.59-.42.78-.65,1.22-.33.63-.77,1.51-1.64,3l-1.51,2.57c-.28.46-.49.82-1,1.63-1.09,1.9-2.35,3.36-2.8,3.25s.09-1.72,1.24-3.61c.8-1.29,1.24-2,1.58-2.55l1-1.63.69-1.22c.34-.63.81-1.5,1.72-3,1.15-1.91,2.34-3.38,2.66-3.3S188.82,173.34,187.74,175.26Z" style="fill: #ffd46f"/>
            <path d="M178,193.3a1.52,1.52,0,0,0-.19.34,3.51,3.51,0,0,1-.47.89,7.31,7.31,0,0,1-.55.71c-.1.13-.17.23-.35.45a1.63,1.63,0,0,1-1.6.72c-.52-.14-.63-.68-.24-1.21a5.12,5.12,0,0,1,.57-.71c.11-.13.19-.23.35-.45a1.48,1.48,0,0,0,.2-.35,4.45,4.45,0,0,1,.5-.88,1.66,1.66,0,0,1,1.56-.73C178.24,192.21,178.34,192.75,178,193.3Z" style="fill: #ffd46f"/>
            <path d="M128.62,186.22l2.73-1.92c1.4-1,3.35-2.42,6.86-4.82l6-4.07,3.79-2.58c4.37-3,8.16-5.3,8.45-5.14s-2.93,2.78-7.21,5.83l-5.86,4.12-3.72,2.62-2.7,2c-1.37,1-3.29,2.45-6.7,4.87-4.32,3.08-8.2,5.34-8.69,5.08S124.21,189.25,128.62,186.22Z" style="fill: #ffd46f"/>
            <path d="M165.63,160.72l.55-.38c.27-.21.65-.49,1.37-1l1.23-.77.78-.5c.89-.58,1.78-.94,2-.8s-.34.73-1.2,1.33l-1.21.78-.77.5-.54.39c-.27.21-.64.5-1.34,1-.89.59-1.79.94-2,.78S164.73,161.31,165.63,160.72Z" style="fill: #ffd46f"/>
            <path d="M111.25,198.29a1,1,0,0,0,.3-.21,3.11,3.11,0,0,1,.74-.52,5.56,5.56,0,0,1,.79-.36c.14-.06.26-.11.49-.23a2,2,0,0,1,1.84,0c.49.31.46.8-.06,1.09a7.78,7.78,0,0,1-.77.37,3.9,3.9,0,0,0-.48.23,1.17,1.17,0,0,0-.3.21,2.88,2.88,0,0,1-.73.54,2.07,2.07,0,0,1-1.88,0C110.67,199.07,110.7,198.58,111.25,198.29Z" style="fill: #ffd46f"/>
            <path d="M160.24,177.24c.3-.26.38-.35.58-.55s.68-.7,1.46-1.38l1.36-1.13.86-.73c1-.84,2-1.43,2.36-1.29s-.14.94-1.08,1.8c-.65.59-1,.9-1.32,1.15s-.43.37-.84.73-.38.36-.57.56-.67.7-1.43,1.39c-1,.86-2,1.43-2.44,1.27S159.25,178.09,160.24,177.24Z" style="fill: #ffd46f"/>
            <path d="M136.5,199.22a4,4,0,0,0,.46-.45,12.24,12.24,0,0,1,1.18-1.1c.55-.46.88-.69,1.16-.89s.38-.28.72-.56a3.06,3.06,0,0,1,2.4-.85c.52.21.3.93-.49,1.61-.54.46-.86.7-1.12.89s-.38.29-.72.58a4,4,0,0,0-.46.45A9,9,0,0,1,138.5,200a3,3,0,0,1-2.47.83C135.47,200.61,135.68,199.89,136.5,199.22Z" style="fill: #ffd46f"/>
            <path d="M147.75,189.25a3.17,3.17,0,0,0,.45-.42,9.54,9.54,0,0,1,1.12-1.06c.52-.44.84-.67,1.09-.86l.69-.55c.77-.64,1.74-1,2.17-.84s.2.85-.55,1.5c-.51.45-.81.68-1.06.87l-.67.55a3.43,3.43,0,0,0-.43.43,10.05,10.05,0,0,1-1.09,1.07,2.79,2.79,0,0,1-2.24.84C146.74,190.58,147,189.9,147.75,189.25Z" style="fill: #ffd46f"/>
            <path d="M172.58,166.05a1.44,1.44,0,0,0,.25-.23,5.22,5.22,0,0,1,.61-.58c.29-.23.47-.36.61-.45l.38-.3a1.4,1.4,0,0,1,1.23-.39c.26.13.13.52-.28.87s-.45.37-.59.47l-.37.29a1.79,1.79,0,0,0-.24.24,7.1,7.1,0,0,1-.6.58,1.42,1.42,0,0,1-1.26.39C172,166.79,172.15,166.4,172.58,166.05Z" style="fill: #ffd46f"/>
          </g>
          <g>
            <path d="M243.11,214.07l-1.76-5c-.95-2.63-2.26-6.29-4.39-12.71-1.78-5.45-2.75-8.43-3.56-10.89-.63-1.95-1.13-3.46-2.25-6.91-1.32-4-2.43-7.63-3.21-10.26-.36-1.32-.65-2.38-.86-3.12s-.25-1.15-.18-1.15a21.67,21.67,0,0,1,1.86,4.19c1,2.6,2.39,6.2,3.83,10.19,1.95,5.47,3,8.44,3.85,10.83.74,2,1.26,3.51,2.47,6.9.91,2.46,1.21,3.27,1.89,5.07,1,2.62,2.36,6.27,4.75,12.61,3,8,4.74,14.6,3.95,14.71S245.82,222.15,243.11,214.07Z" style="fill: #ffd46f"/>
            <path d="M192.05,191.69l.91-2.81c.46-1.45,1.1-3.49,2.33-7l2.12-6c.37-1.08.66-1.91,1.33-3.82.77-2.21,1.52-4.22,2.11-5.66A7.6,7.6,0,0,1,202,164c.28,0-.62,3.64-2,8.09l-1.94,6L196.84,182c-.41,1.38-.55,1.83-.85,2.84l-2.12,7.06c-1.39,4.48-3,8-3.56,8S190.5,196.16,192.05,191.69Z" style="fill: #ffd46f"/>
            <path d="M180,227c.34-1,.43-1.31.65-2.05.3-1.06.73-2.54,1.64-5.13l1.62-4.37c.29-.78.51-1.39,1-2.77,1.14-3.22,2.55-5.78,3.16-5.72s.28,2.73-.74,6c-.75,2.21-1.16,3.41-1.48,4.37s-.49,1.42-1,2.79c-.32,1-.41,1.33-.6,2.07-.27,1.06-.66,2.55-1.49,5.13-1.05,3.25-2.57,5.81-3.4,5.73S178.88,230.23,180,227Z" style="fill: #ffd46f"/>
            <path d="M172.43,208.44c-.27.5-.35.66-.52,1a26.23,26.23,0,0,1-1.28,2.62c-.62,1.11-1,1.71-1.31,2.2l-.82,1.4c-.9,1.63-2.23,2.86-2.92,2.7s-.49-1.59.46-3.21c.66-1.11,1.05-1.7,1.36-2.18s.44-.71.86-1.39a9.16,9.16,0,0,0,.55-1.05,28.76,28.76,0,0,1,1.36-2.59c1-1.63,2.2-2.84,2.79-2.71S173.33,206.79,172.43,208.44Z" style="fill: #ffd46f"/>
            <path d="M240.58,175.32l.67,1.21c.36.62.88,1.49,1.68,3l1.33,2.62c.23.47.41.84.84,1.66,1,1.92,1.43,3.56,1,3.66s-1.64-1.45-2.58-3.37c-.62-1.33-1-2-1.24-2.62s-.41-.85-.8-1.67l-.64-1.22c-.35-.63-.84-1.51-1.6-3-1-1.95-1.43-3.52-1.1-3.6S239.55,173.38,240.58,175.32Z" style="fill: #ffd46f"/>
            <path d="M250.51,193.31a1.41,1.41,0,0,0,.19.35,4.13,4.13,0,0,1,.49.88,5.21,5.21,0,0,1,.27.77c0,.14.08.25.17.5a.8.8,0,0,1-.56,1.18,1.42,1.42,0,0,1-1.41-.9,4.82,4.82,0,0,1-.23-.77,4.43,4.43,0,0,0-.16-.49,1.35,1.35,0,0,0-.19-.36,3.7,3.7,0,0,1-.46-.88.79.79,0,0,1,.53-1.15A1.39,1.39,0,0,1,250.51,193.31Z" style="fill: #ffd46f"/>
            <path d="M203.59,204.81c.15-1.21.19-1.61.3-2.51.13-1.3.31-3.12.76-6.29.4-2.69.63-4.16.81-5.38.15-1,.25-1.71.51-3.41.56-3.95,1.33-7.16,1.73-7.15s.39,3.24,0,7.2c-.33,2.71-.51,4.19-.65,5.37-.12,1-.22,1.75-.42,3.43-.12,1.22-.15,1.63-.23,2.53-.1,1.3-.24,3.12-.58,6.28-.44,4-1.34,7.19-2,7.17S203,208.8,203.59,204.81Z" style="fill: #ffd46f"/>
            <path d="M208.21,171.26a4,4,0,0,0,.06-.51,11.89,11.89,0,0,1,.16-1.25c.12-.53.18-.82.23-1.06l.14-.68c.15-.78.51-1.39.81-1.37s.46.68.34,1.46c-.1.54-.15.83-.19,1.07s-.07.34-.13.67a3.64,3.64,0,0,0,0,.5,9.08,9.08,0,0,1-.12,1.25c-.13.8-.52,1.41-.87,1.38S208.06,172,208.21,171.26Z" style="fill: #ffd46f"/>
            <path d="M201.52,220.64a.47.47,0,0,0,0-.28,1.34,1.34,0,0,1,.09-.68,3.1,3.1,0,0,1,.27-.57,2,2,0,0,0,.18-.36c.14-.43.82-.72,1.51-.67s1.16.45,1,.87a2.87,2.87,0,0,1-.25.58,1.57,1.57,0,0,0-.16.36.53.53,0,0,0,0,.27,1.26,1.26,0,0,1-.06.69c-.14.42-.85.72-1.56.67S201.36,221.07,201.52,220.64Z" style="fill: #ffd46f"/>
            <path d="M220.26,186.48a3.72,3.72,0,0,0-.08-.66,13.77,13.77,0,0,1-.17-1.62c0-.7,0-1.08,0-1.39s0-.44,0-.88c-.05-1,.23-1.85.64-1.85s.82.83.91,1.85c.06.7.07,1.08.07,1.39s0,.45,0,.88a4.6,4.6,0,0,0,.08.65,10.26,10.26,0,0,1,.22,1.62c.09,1-.24,1.86-.72,1.86S220.3,187.51,220.26,186.48Z" style="fill: #ffd46f"/>
            <path d="M222.82,212.54a2,2,0,0,0-.06-.52,5.33,5.33,0,0,1-.15-1.31,8.57,8.57,0,0,1,.06-1.11,4.53,4.53,0,0,0,0-.71c0-.82.49-1.5,1.11-1.5a1.41,1.41,0,0,1,1.19,1.49,8.57,8.57,0,0,1,0,1.11,5.15,5.15,0,0,0,0,.71,2,2,0,0,0,.07.53,4.8,4.8,0,0,1,.18,1.3,1.33,1.33,0,0,1-1.17,1.5A1.36,1.36,0,0,1,222.82,212.54Z" style="fill: #ffd46f"/>
            <path d="M222.06,200.56a2.34,2.34,0,0,0-.05-.5,5.39,5.39,0,0,1-.15-1.25,9.52,9.52,0,0,1,0-1.07,6.16,6.16,0,0,0,0-.68c0-.78.39-1.42.92-1.42s1,.64,1,1.43a7.16,7.16,0,0,1,0,1.06c0,.2,0,.35,0,.68a1.69,1.69,0,0,0,.08.5,5.77,5.77,0,0,1,.17,1.25c0,.79-.4,1.43-1,1.43S222.08,201.35,222.06,200.56Z" style="fill: #ffd46f"/>
            <path d="M219.17,173.12a1.06,1.06,0,0,0,0-.27,3,3,0,0,1-.07-.68c0-.29,0-.45,0-.58s0-.19,0-.37a.66.66,0,0,1,.62-.73.82.82,0,0,1,.64.83,4.72,4.72,0,0,1,0,.58,3.44,3.44,0,0,0,0,.36,1.14,1.14,0,0,0,0,.28,2.57,2.57,0,0,1,.1.68.66.66,0,0,1-.65.73A.79.79,0,0,1,219.17,173.12Z" style="fill: #ffd46f"/>
          </g>
          <g>
            <path d="M323.71,187.33l-6.44-3.47c-3.36-1.79-8-4.29-16.13-8.73l-13.66-7.56-8.66-4.8c-5-2.77-9.55-5.32-12.78-7.19l-3.8-2.22a5.86,5.86,0,0,1-1.3-.88,56.44,56.44,0,0,1,5.65,2.73c3.41,1.75,8.09,4.18,13.2,6.91l13.85,7.41,8.83,4.72L309,177.7l16.34,8.54c10.38,5.46,18.29,10.14,17.74,10.5S333.9,192.91,323.71,187.33Z" style="fill: #ffd46f"/>
            <path d="M260.27,187c-1-1.24-1.3-1.66-2-2.59-1.08-1.34-2.58-3.22-5.1-6.52-2.12-2.81-3.29-4.34-4.24-5.61-.77-1-1.35-1.78-2.7-3.55-1.57-2.06-2.94-4-3.89-5.32s-1.48-2.24-1.35-2.28,3.11,3.18,6.39,7.26l4.4,5.56c.83,1,1.43,1.79,2.8,3.54,1,1.25,1.36,1.67,2.11,2.59l5.27,6.45c3.32,4.12,5.55,7.55,5,7.7S263.45,191.2,260.27,187Z" style="fill: #ffd46f"/>
            <path d="M285.47,219.8c-.69-.92-.94-1.21-1.5-1.88-.8-1-1.93-2.32-3.75-4.73l-3-4.1-1.92-2.59c-2.26-3-3.65-5.57-3.09-5.73s2.94,2.13,5.3,5.1c1.59,2,2.45,3.17,3.13,4.06l2,2.58c.73.93,1,1.22,1.56,1.89.83,1,2,2.3,3.86,4.67,2.38,3,3.67,5.59,2.92,5.8S287.75,222.83,285.47,219.8Z" style="fill: #ffd46f"/>
            <path d="M261,207.45c.27.49.37.65.61,1a29.68,29.68,0,0,1,1.55,2.56c.6,1.12.89,1.73,1.12,2.24s.36.71.72,1.42c.88,1.63,1,3.08.32,3.22s-1.95-1.08-2.78-2.72c-.57-1.13-.84-1.75-1.06-2.25s-.35-.72-.69-1.42a9.17,9.17,0,0,0-.59-1,28.28,28.28,0,0,1-1.46-2.57c-.84-1.66-1-3.09-.45-3.21S260.08,205.8,261,207.45Z" style="fill: #ffd46f"/>
            <path d="M283.3,156.87l1.73.74c.92.38,2.2.9,4.37,1.87l3.65,1.65,2.32,1.05c2.71,1.2,4.66,2.37,4.36,2.6s-2.72-.58-5.38-1.81l-3.6-1.69-2.31-1.08-1.73-.76c-.9-.38-2.15-.93-4.29-1.9-2.7-1.24-4.69-2.37-4.47-2.54S280.56,155.66,283.3,156.87Z" style="fill: #ffd46f"/>
            <path d="M309.14,168a3.34,3.34,0,0,0,.5.22,10.91,10.91,0,0,1,1.26.53,11.1,11.1,0,0,1,1,.54l.62.34c.74.37,1.05.88.68,1.13a2.35,2.35,0,0,1-2-.23c-.5-.26-.76-.41-1-.54a6.48,6.48,0,0,0-.61-.34,5.12,5.12,0,0,0-.5-.23,9.79,9.79,0,0,1-1.25-.54c-.74-.39-1.06-.89-.71-1.13A2.51,2.51,0,0,1,309.14,168Z" style="fill: #ffd46f"/>
            <path d="M282.62,193.67l-2.24-2.14c-1.19-1.09-2.84-2.63-5.62-5.35l-4.66-4.64-3-2.93c-3.46-3.4-6-6.25-5.65-6.37s3.53,2.5,7.1,5.85l4.79,4.58,3.06,2.91,2.31,2.13c1.22,1.09,2.91,2.61,5.75,5.28,3.61,3.39,6,6.29,5.47,6.49S286.1,197.1,282.62,193.67Z" style="fill: #ffd46f"/>
            <path d="M253.14,164.91a5.72,5.72,0,0,0-.44-.43,14.28,14.28,0,0,1-1.11-1.06l-.86-.94-.56-.6c-.65-.68-1-1.3-.7-1.37s1.06.41,1.74,1.08l.9.93.56.59c.21.21.29.27.46.42s.6.51,1.14,1.05,1,1.31.64,1.41S253.8,165.6,253.14,164.91Z" style="fill: #ffd46f"/>
            <path d="M296.61,207.2a1.09,1.09,0,0,0-.24-.24,2.21,2.21,0,0,1-.61-.58,3.17,3.17,0,0,1-.34-.55,1.81,1.81,0,0,0-.22-.35c-.3-.39,0-.87.6-1a1.72,1.72,0,0,1,1.71.36,2.64,2.64,0,0,1,.35.54,1.71,1.71,0,0,0,.22.35,1.16,1.16,0,0,0,.26.24,2.3,2.3,0,0,1,.62.57c.31.4,0,.87-.62,1.07A1.68,1.68,0,0,1,296.61,207.2Z" style="fill: #ffd46f"/>
            <path d="M278,173.11c-.33-.24-.44-.32-.71-.5s-.91-.6-1.75-1.25l-1.4-1.11-.89-.71c-1.05-.81-1.67-1.59-1.36-1.74s1.46.36,2.54,1.15c.75.55,1.13.86,1.44,1.1l.91.7c.34.25.45.33.72.5s.93.59,1.79,1.23c1.09.8,1.66,1.61,1.3,1.78S279.1,173.93,278,173.11Z" style="fill: #ffd46f"/>
            <path d="M306,193.28a3.37,3.37,0,0,0-.56-.39,13.53,13.53,0,0,1-1.42-1c-.55-.45-.83-.71-1.05-.92s-.32-.3-.68-.59c-.82-.66-1.1-1.38-.63-1.62a2.87,2.87,0,0,1,2.4.76c.58.45.86.7,1.09.91s.34.3.7.58a3.38,3.38,0,0,0,.58.4,11.17,11.17,0,0,1,1.44,1c.84.66,1.1,1.4.59,1.65A2.79,2.79,0,0,1,306,193.28Z" style="fill: #ffd46f"/>
            <path d="M293.46,183.86a4.56,4.56,0,0,0-.54-.38,13.53,13.53,0,0,1-1.36-1c-.55-.43-.81-.68-1-.88l-.66-.56c-.8-.63-1.12-1.3-.71-1.5s1.41.14,2.22.77a12,12,0,0,1,1.07.87c.19.16.34.28.68.54a3.08,3.08,0,0,0,.56.38,14.56,14.56,0,0,1,1.37,1c.83.62,1.12,1.32.67,1.53A2.73,2.73,0,0,1,293.46,183.86Z" style="fill: #ffd46f"/>
            <path d="M263.91,162.7a1.32,1.32,0,0,0-.29-.21,6.37,6.37,0,0,1-.74-.53c-.29-.24-.43-.37-.55-.48s-.17-.15-.35-.31c-.42-.35-.55-.72-.27-.83a1.68,1.68,0,0,1,1.31.42c.29.23.44.37.56.47l.36.31a1.94,1.94,0,0,0,.3.2,9,9,0,0,1,.76.52c.43.35.54.73.24.85A1.59,1.59,0,0,1,263.91,162.7Z" style="fill: #ffd46f"/>
          </g>
          <g>
            <path d="M362.57,137.6l-8.65-.55c-4.49-.28-10.77-.66-21.71-1.42l-18.54-1.34-11.76-.84c-6.82-.48-13-1-17.44-1.34l-5.27-.47a13,13,0,0,1-1.91-.25,11.34,11.34,0,0,1,2,0l5.34.23c4.5.22,10.7.55,17.54,1l18.54,1.15,11.82.72,8.73.49,21.67,1.19c13.82.79,24.83,1.8,24.72,2.28S376.35,138.55,362.57,137.6Z" style="fill: #ffd46f"/>
            <path d="M310.93,159.52l-4.21-1.39c-2.2-.71-5.27-1.71-10.58-3.5l-9-3.07-5.69-1.94c-6.62-2.24-11.86-4.17-11.71-4.31s5.71,1.5,12.4,3.67l9.05,3,5.76,1.89,4.28,1.37,10.64,3.39c6.75,2.18,11.94,4.18,11.63,4.47S317.61,161.79,310.93,159.52Z" style="fill: #ffd46f"/>
            <path d="M363.7,177.27c-1.47-.5-2-.66-3.07-1-1.61-.5-3.87-1.21-7.71-2.53l-6.49-2.26L342.31,170c-4.79-1.64-8.42-3.22-8.1-3.54s4.52.72,9.37,2.3l6.54,2.19,4.17,1.4c1.49.49,2,.65,3.12,1,1.62.49,3.89,1.17,7.75,2.44,4.89,1.61,8.48,3.25,8,3.68S368.53,178.93,363.7,177.27Z" style="fill: #ffd46f"/>
            <path d="M331.68,175.8c.71.31,1,.4,1.51.61.8.31,1.92.73,3.79,1.54,1.58.69,2.42,1.09,3.12,1.42l2,.89c2.33,1,3.85,2.13,3.41,2.48s-2.68-.21-5-1.25c-1.57-.72-2.4-1.12-3.07-1.45s-1-.46-2-.91c-.71-.32-.95-.42-1.5-.63-.79-.31-1.9-.75-3.73-1.58-2.32-1-3.88-2.13-3.49-2.42S329.33,174.78,331.68,175.8Z" style="fill: #ffd46f"/>
            <path d="M299.78,127.1h2.14c1.12,0,2.67,0,5.38,0l4.59.07,2.91,0c3.38,0,6.09.29,6.05.58s-2.8.49-6.18.42l-4.58-.11-2.92-.06L305,128c-1.11,0-2.66,0-5.35,0-3.42-.06-6.13-.28-6.09-.49S296.37,127.08,299.78,127.1Z" style="fill: #ffd46f"/>
            <path d="M331.68,127.05a6,6,0,0,0,.62,0,15.27,15.27,0,0,1,1.55,0c.67,0,1,.06,1.32.09l.83.05c1,0,1.7.35,1.63.69s-.91.56-1.88.51c-.67,0-1-.07-1.31-.1l-.83-.07c-.31,0-.4,0-.63,0s-.78,0-1.55,0c-1,0-1.71-.34-1.64-.66S330.7,127,331.68,127.05Z" style="fill: #ffd46f"/>
            <path d="M335.66,157.12l-3.92-.94c-2-.48-4.9-1.15-9.84-2.38l-8.35-2.13-5.32-1.34c-6.15-1.55-11-3-10.91-3.2s5.28.78,11.49,2.25l8.41,2,5.35,1.29,4,.92c2.05.46,4.92,1.1,9.87,2.27,6.27,1.49,11.11,3,10.88,3.36S341.87,158.68,335.66,157.12Z" style="fill: #ffd46f"/>
            <path d="M283.37,144.1l-.78-.19c-.41-.09-1-.21-2-.47-.81-.24-1.25-.36-1.63-.46l-1-.29c-1.2-.33-2.09-.72-2-.88a5,5,0,0,1,2.44.26l1.64.44,1.05.28.79.18c.41.09,1,.21,2,.46,1.23.32,2.1.73,2,.92A4.51,4.51,0,0,1,283.37,144.1Z" style="fill: #ffd46f"/>
            <path d="M360.36,163.2a3.21,3.21,0,0,0-.43-.1,6.21,6.21,0,0,1-1.07-.26c-.43-.15-.65-.25-.83-.33a3.18,3.18,0,0,0-.53-.21c-.63-.22-.9-.7-.6-1.07a1.64,1.64,0,0,1,1.7-.31,7.82,7.82,0,0,1,.84.32,3.83,3.83,0,0,0,.53.2,1.55,1.55,0,0,0,.43.1,5.23,5.23,0,0,1,1.08.25c.64.21.9.71.59,1.1A1.62,1.62,0,0,1,360.36,163.2Z" style="fill: #ffd46f"/>
            <path d="M311.37,142l-1.06-.16c-.56-.07-1.33-.17-2.66-.4l-2.24-.41-1.42-.26c-1.65-.28-2.9-.7-2.78-.93s1.58-.21,3.24.06c1.14.18,1.75.29,2.25.38l1.43.25,1.07.15c.56.06,1.34.16,2.67.37,1.67.27,2.9.71,2.76,1S313,142.33,311.37,142Z" style="fill: #ffd46f"/>
            <path d="M353.93,148.62a6.84,6.84,0,0,0-.85-.13c-.45-.05-1.08-.12-2.15-.32-.89-.17-1.37-.29-1.76-.38s-.57-.13-1.14-.24c-1.32-.24-2.24-.73-2.06-1.08s1.41-.45,2.73-.22c.91.16,1.39.27,1.78.35s.58.13,1.14.23c.41.07.55.09.86.12a20.12,20.12,0,0,1,2.14.3c1.34.23,2.26.74,2.06,1.13S355.26,148.87,353.93,148.62Z" style="fill: #ffd46f"/>
            <path d="M334.49,145.36a6.12,6.12,0,0,0-.81-.12c-.44-.06-1-.12-2.06-.3-.86-.17-1.32-.27-1.7-.36l-1.09-.22c-1.26-.23-2.16-.66-2-1s1.32-.37,2.6-.15c.87.15,1.34.25,1.71.33s.55.11,1.09.2c.39.07.53.09.82.12s1,.1,2.06.28c1.29.22,2.17.67,2,1S335.77,145.59,334.49,145.36Z" style="fill: #ffd46f"/>
            <path d="M289.64,138.55l-.44-.07c-.24,0-.57-.06-1.12-.17s-.72-.15-.93-.2l-.58-.12c-.68-.13-1.13-.39-1-.57s.82-.23,1.51-.11l.92.19.59.12c.21,0,.28,0,.45.06a11.13,11.13,0,0,1,1.12.16c.69.12,1.14.39,1,.59S290.34,138.68,289.64,138.55Z" style="fill: #ffd46f"/>
          </g>
          <path d="M357.52,125.51c.88,0,1.18,0,1.83,0,.95,0,2.27-.08,4.59-.08,2,0,3,0,3.93.06l2.49,0c2.89,0,5.25.38,5.27.81s-2.31.77-5.2.73c-2,0-3.05-.06-3.92-.1l-2.5,0c-.89,0-1.19,0-1.84,0-.95,0-2.27,0-4.58,0-2.91,0-5.27-.37-5.29-.74S354.61,125.5,357.52,125.51Z" style="fill: #ffd46f"/>
          <g>
            <path d="M128.78,126.94h-2.14c-1.12,0-2.67,0-5.38,0l-4.59-.06-2.91,0c-3.38,0-6.09-.29-6.06-.58s2.81-.48,6.19-.42l4.58.11,2.92.06,2.16,0c1.11,0,2.66,0,5.35,0,3.41.05,6.13.27,6.09.48S132.19,127,128.78,126.94Z" style="fill: #ffd46f"/>
            <path d="M96.88,127a4.24,4.24,0,0,0-.62,0,15.47,15.47,0,0,1-1.56,0c-.66,0-1-.06-1.31-.09l-.83,0c-1,0-1.7-.35-1.63-.68s.91-.57,1.88-.52c.67,0,1,.07,1.31.1s.42,0,.83.07a4.38,4.38,0,0,0,.63,0c.32,0,.78,0,1.55,0,1,0,1.71.34,1.64.66S97.86,127,96.88,127Z" style="fill: #ffd46f"/>
          </g>
        </g>
        <g>
          <g>
            <path d="M83.79,79.11l7.55,3c3.89,1.55,9.35,3.7,19,7.37l16.33,6.2L137,99.55c6,2.29,11.47,4.31,15.45,5.75l4.75,1.68a9.51,9.51,0,0,0,1.82.54,58.55,58.55,0,0,0-6.11-2.69c-3.85-1.6-9.19-3.77-15.12-6.13l-16.15-6.36-10.28-4.06-7.54-3L85.08,77.66c-11.94-4.8-21.88-8.28-22.3-7.8S71.72,74.47,83.79,79.11Z" style="fill: #ffd46f"/>
            <path d="M103.89,120.19c2.3.19,3.07.26,4.79.39,2.48.22,5.94.52,12,1l10.3.75,6.53.48c3.79.28,7.23.5,9.73.63a24,24,0,0,0,4.08.06c0-.19-6-.89-13.59-1.55l-10.26-.87-6.54-.56-4.81-.44-11.95-1.12c-7.63-.67-13.83-.89-13.92-.5S96.25,119.62,103.89,120.19Z" style="fill: #ffd46f"/>
            <path d="M43.63,115.54c1.68.12,2.23.18,3.48.3,1.8.18,4.31.43,8.73.74l7.5.49,4.75.32c5.51.4,10,.38,10.14,0s-4.3-1.15-9.79-1.62L61,115.16l-4.76-.37c-1.7-.14-2.25-.2-3.49-.34-1.8-.2-4.31-.47-8.69-.84-5.55-.47-10.1-.38-10.22.18S38.08,115.15,43.63,115.54Z" style="fill: #ffd46f"/>
            <path d="M71,127c-.88,0-1.17,0-1.83,0-.94,0-2.26-.1-4.58-.09-2,0-3.05,0-3.94.06l-2.48,0c-2.89,0-5.26.43-5.27.93s2.31.88,5.19.83c2,0,3.06-.07,3.93-.1l2.5-.06c.89,0,1.19,0,1.84,0,1,0,2.27.07,4.57,0,2.92,0,5.28-.43,5.3-.85S74,127,71,127Z" style="fill: #ffd46f"/>
            <path d="M145.1,94.59l-1.73-.86c-.88-.46-2.11-1.1-4.32-2.18l-3.78-1.78-2.39-1.14c-2.76-1.33-5.24-2.19-5.53-1.92s1.74,1.55,4.54,2.85l3.82,1.74,2.42,1.11,1.76.85c.89.45,2.15,1.08,4.37,2.12,2.82,1.31,5.25,2.21,5.46,2S147.88,95.94,145.1,94.59Z" style="fill: #ffd46f"/>
            <path d="M119.36,81.74a2.76,2.76,0,0,1-.49-.25,12.23,12.23,0,0,0-1.25-.63c-.57-.24-.89-.35-1.16-.44l-.74-.29c-.82-.35-1.75-.37-2,0s.13.87,1,1.22c.57.23.9.34,1.17.43s.38.13.73.28a4.53,4.53,0,0,1,.52.24,8.49,8.49,0,0,0,1.26.62c.85.34,1.75.38,2,.07S120.2,82.1,119.36,81.74Z" style="fill: #ffd46f"/>
            <path d="M86.39,108.07l4.11.69c2.12.37,5.09.9,10.31,1.73l8.87,1.37,5.62.88c6.51,1,11.88,1.65,12,1.4s-5.08-1.4-11.56-2.52l-8.81-1.48-5.62-.94-4.12-.74c-2.12-.39-5.08-.95-10.24-1.84-6.55-1.13-11.94-1.68-12.1-1.23S79.81,107,86.39,108.07Z" style="fill: #ffd46f"/>
            <path d="M141.58,116.92c.4,0,.53.08.82.13s1,.19,2,.34l1.77.23,1.13.14c1.29.19,2.39.17,2.44,0s-1-.53-2.25-.73l-1.76-.25-1.12-.16c-.41-.06-.53-.09-.82-.15s-1-.2-2-.36c-1.31-.2-2.41-.16-2.47.08S140.27,116.74,141.58,116.92Z" style="fill: #ffd46f"/>
            <path d="M60.38,103.83a1.7,1.7,0,0,1,.45.07,6,6,0,0,0,1.12.19,8.58,8.58,0,0,0,1,0c.18,0,.32,0,.63,0a1.41,1.41,0,0,0,1.52-.75c.12-.48-.37-.92-1.08-1-.5,0-.78,0-1,0a5,5,0,0,1-.63,0,1.58,1.58,0,0,1-.44-.08,5.19,5.19,0,0,0-1.12-.2,1.44,1.44,0,0,0-1.54.78C59.16,103.34,59.65,103.77,60.38,103.83Z" style="fill: #ffd46f"/>
            <path d="M120.83,103.75l1,.28c.52.15,1.24.38,2.54.69l2.22.51,1.41.33c1.61.4,3,.51,3.14.25s-1.1-.83-2.7-1.26c-1.1-.29-1.71-.42-2.2-.53l-1.39-.35c-.51-.13-.66-.17-1-.29-.52-.16-1.24-.39-2.53-.72-1.62-.42-3-.5-3.18-.19S119.19,103.36,120.83,103.75Z" style="fill: #ffd46f"/>
            <path d="M79.89,92.81a8.08,8.08,0,0,1,.81.22,19.08,19.08,0,0,0,2,.57c.89.2,1.39.28,1.8.35s.58.11,1.15.24c1.31.29,2.53.2,2.72-.19s-.71-1-2-1.31c-.9-.22-1.39-.31-1.8-.38s-.58-.12-1.14-.25a5.92,5.92,0,0,1-.81-.23,17.69,17.69,0,0,0-2-.58c-1.31-.32-2.55-.21-2.76.23S78.56,92.51,79.89,92.81Z" style="fill: #ffd46f"/>
            <path d="M98.83,97.57a5.64,5.64,0,0,1,.78.21,19.93,19.93,0,0,0,2,.54c.86.2,1.33.29,1.72.36s.55.1,1.09.23c1.26.29,2.4.25,2.55-.09s-.73-.89-2-1.2c-.85-.21-1.33-.3-1.71-.38s-.55-.11-1.09-.24a5.78,5.78,0,0,1-.78-.23c-.39-.13-.94-.31-1.94-.55-1.25-.31-2.41-.25-2.58.13S97.56,97.28,98.83,97.57Z" style="fill: #ffd46f"/>
            <path d="M141.86,109.21a2.56,2.56,0,0,1,.43.12,11,11,0,0,0,1.07.29l.94.18.6.12c.68.15,1.27.09,1.33-.14s-.45-.55-1.14-.71c-.46-.11-.72-.16-.92-.19l-.59-.13-.43-.12a8.66,8.66,0,0,0-1.06-.31c-.69-.15-1.29-.08-1.36.16S141.17,109.06,141.86,109.21Z" style="fill: #ffd46f"/>
          </g>
          <g>
            <path d="M151.48,36.33c1.71,2.6,2.29,3.47,3.57,5.4,1.83,2.82,4.39,6.75,9,13.57L172,66.84l5,7.33c2.89,4.25,5.58,8.07,7.57,10.83,1,1.37,1.82,2.48,2.39,3.25s.93,1.17,1,1.15-.17-.48-.63-1.28-1.17-1.94-2-3.37c-1.75-2.83-4.21-6.74-7-11l-7.6-11.61c-1.43-2.2-2.45-3.77-4.83-7.41l-3.5-5.48L153.73,35.6c-5.55-8.67-10.6-15.45-11.33-15.22S145.68,27.73,151.48,36.33Z" style="fill: #ffd46f"/>
            <path d="M132.39,77.62c1.7,1.08,2.27,1.43,3.53,2.24,1.82,1.17,4.36,2.81,8.87,5.62l7.68,4.74,4.86,3c5.63,3.51,10.35,6.23,10.54,6.09s-4.15-3.16-9.68-6.74l-7.54-4.82-4.8-3.07-3.51-2.29-8.7-5.71c-5.58-3.61-10.39-6.27-10.78-6S126.71,74.08,132.39,77.62Z" style="fill: #ffd46f"/>
            <path d="M87.71,49.65c1.25.78,1.65,1.05,2.55,1.64,1.3.87,3.12,2.08,6.42,4.11l5.63,3.41L105.87,61c4.11,2.54,7.78,4.34,8.19,4s-2.51-2.68-6.54-5.26L102,56.26l-3.53-2.2c-1.25-.8-1.65-1.07-2.54-1.68-1.27-.88-3.07-2.11-6.29-4.17-4.08-2.61-7.82-4.35-8.38-3.93S83.56,47.1,87.71,49.65Z" style="fill: #ffd46f"/>
            <path d="M99.94,69.9c-.71-.35-.94-.47-1.45-.76-.73-.41-1.76-1-3.63-1.92-1.59-.78-2.49-1.19-3.23-1.52l-2-1c-2.34-1.15-4.59-1.75-5-1.34s1.14,1.65,3.51,2.78c1.63.76,2.54,1.16,3.26,1.48l2.07,1a15.3,15.3,0,0,1,1.48.75c.74.4,1.78,1,3.67,1.86,2.39,1.13,4.61,1.77,5,1.43S102.3,71.07,99.94,69.9Z" style="fill: #ffd46f"/>
            <path d="M187.74,73.32c-.32-.67-.42-.89-.65-1.39-.33-.73-.77-1.74-1.64-3.49l-1.51-3c-.28-.53-.49-.94-1-1.88-1.09-2.18-2.35-3.85-2.8-3.73s.09,2,1.24,4.15L183,67l1,1.87c.33.68.45.91.69,1.4.34.72.81,1.73,1.72,3.46,1.15,2.2,2.34,3.89,2.66,3.79S188.82,75.53,187.74,73.32Z" style="fill: #ffd46f"/>
            <path d="M178,52.61a1.75,1.75,0,0,1-.19-.4,4.35,4.35,0,0,0-.47-1,8.52,8.52,0,0,0-.55-.82c-.1-.14-.17-.26-.35-.51a1.55,1.55,0,0,0-1.6-.83c-.52.16-.63.78-.24,1.39a6.86,6.86,0,0,0,.57.82c.11.15.19.26.35.52a1.48,1.48,0,0,1,.2.4,5.21,5.21,0,0,0,.5,1,1.6,1.6,0,0,0,1.56.84C178.24,53.85,178.34,53.23,178,52.61Z" style="fill: #ffd46f"/>
            <path d="M128.62,60.74l2.73,2.2c1.4,1.16,3.35,2.78,6.86,5.54l6,4.67,3.79,3c4.37,3.45,8.16,6.09,8.45,5.91s-2.93-3.19-7.21-6.69l-5.86-4.73c-1.1-.9-1.89-1.54-3.72-3L137,65.33c-1.37-1.17-3.29-2.81-6.7-5.6-4.32-3.54-8.2-6.13-8.69-5.83S124.21,57.26,128.62,60.74Z" style="fill: #ffd46f"/>
            <path d="M165.63,90a4.78,4.78,0,0,1,.54.44c.28.23.66.56,1.37,1.09l1.24.89.78.57c.89.67,1.78,1.08,2,.93s-.34-.85-1.2-1.53c-.62-.45-1-.7-1.21-.9s-.4-.29-.77-.58a6.07,6.07,0,0,1-.54-.45c-.27-.23-.64-.56-1.34-1.1-.89-.69-1.79-1.08-2-.9S164.73,89.35,165.63,90Z" style="fill: #ffd46f"/>
            <path d="M111.25,46.87a1.31,1.31,0,0,1,.3.24,3,3,0,0,0,.74.6,5.07,5.07,0,0,0,.79.41c.14.08.26.13.49.27a1.81,1.81,0,0,0,1.84,0,.7.7,0,0,0-.06-1.24,5.78,5.78,0,0,0-.77-.43,3.73,3.73,0,0,1-.48-.27,1.15,1.15,0,0,1-.3-.24,2.85,2.85,0,0,0-.73-.61,1.81,1.81,0,0,0-1.88,0A.7.7,0,0,0,111.25,46.87Z" style="fill: #ffd46f"/>
            <path d="M160.24,71.05c.3.3.38.41.58.63s.68.81,1.46,1.59l1.36,1.3.86.83c1,1,2,1.64,2.36,1.49s-.14-1.09-1.08-2.07c-.65-.68-1-1-1.32-1.32l-.84-.84c-.29-.31-.38-.41-.57-.64s-.67-.81-1.43-1.6c-1-1-2-1.64-2.44-1.46S159.25,70.08,160.24,71.05Z" style="fill: #ffd46f"/>
            <path d="M136.5,45.81a4.7,4.7,0,0,1,.46.5,13.36,13.36,0,0,0,1.18,1.28c.55.52.88.79,1.16,1s.38.32.72.65c.81.77,1.89,1.2,2.4,1s.3-1.06-.49-1.84c-.54-.53-.86-.81-1.12-1s-.38-.33-.72-.66a4.67,4.67,0,0,1-.46-.51,8.86,8.86,0,0,0-1.13-1.28,2.75,2.75,0,0,0-2.47-1C135.47,44.2,135.68,45,136.5,45.81Z" style="fill: #ffd46f"/>
            <path d="M147.75,57.25a4.5,4.5,0,0,1,.45.49A11,11,0,0,0,149.32,59c.52.5.84.76,1.09,1l.69.63c.77.74,1.74,1.17,2.17,1s.2-1-.55-1.72a14.4,14.4,0,0,0-1.06-1c-.2-.19-.35-.32-.67-.64a3.32,3.32,0,0,1-.43-.49,11.86,11.86,0,0,0-1.09-1.23c-.76-.75-1.76-1.18-2.24-1S147,56.5,147.75,57.25Z" style="fill: #ffd46f"/>
            <path d="M172.58,83.9a1.94,1.94,0,0,1,.25.27,4.77,4.77,0,0,0,.61.66,7,7,0,0,0,.61.53l.38.34c.42.4,1,.6,1.23.45s.13-.6-.28-1a7.91,7.91,0,0,0-.59-.53l-.37-.34a1.79,1.79,0,0,1-.24-.27,6,6,0,0,0-.6-.67c-.42-.41-1-.6-1.26-.45S172.15,83.5,172.58,83.9Z" style="fill: #ffd46f"/>
          </g>
          <g>
            <path d="M243.11,28.74l-1.76,5.81c-.95,3-2.26,7.22-4.39,14.6-1.78,6.26-2.75,9.68-3.56,12.5-.63,2.25-1.13,4-2.25,7.94-1.33,4.6-2.43,8.77-3.21,11.79-.36,1.51-.65,2.74-.86,3.59s-.25,1.31-.18,1.32.84-1.84,1.86-4.82,2.39-7.12,3.83-11.7c1.95-6.29,3-9.7,3.85-12.45.74-2.34,1.26-4,2.47-7.92.91-2.82,1.21-3.76,1.89-5.83,1-3,2.36-7.2,4.75-14.48,3-9.24,4.74-16.77,3.95-16.9S245.82,19.47,243.11,28.74Z" style="fill: #ffd46f"/>
            <path d="M192,54.45c.45,1.55.59,2.07.92,3.23.46,1.67,1.1,4,2.33,8.09,1.06,3.47,1.64,5.36,2.12,6.92.37,1.24.66,2.2,1.33,4.39.77,2.54,1.52,4.85,2.11,6.51A9.23,9.23,0,0,0,202,86.26c.28,0-.62-4.19-2-9.29L198.08,70l-1.24-4.41L196,62.37c-.44-1.69-1.05-4-2.12-8.11-1.39-5.15-3-9.25-3.56-9.19S190.5,49.31,192,54.45Z" style="fill: #ffd46f"/>
            <path d="M180,13.91c.34,1.12.43,1.5.65,2.35.3,1.22.73,2.92,1.64,5.89l1.62,5c.28.9.51,1.59,1,3.18,1.14,3.7,2.55,6.64,3.16,6.58s.28-3.14-.74-6.85l-1.49-5c-.27-.94-.48-1.62-.94-3.2-.32-1.14-.41-1.52-.6-2.37-.27-1.23-.66-2.94-1.49-5.9-1.05-3.74-2.57-6.67-3.4-6.58S178.88,10.18,180,13.91Z" style="fill: #ffd46f"/>
            <path d="M172.43,35.21c-.27-.57-.35-.76-.52-1.19a31.73,31.73,0,0,0-1.28-3c-.62-1.27-1-2-1.31-2.53l-.82-1.6c-.9-1.88-2.23-3.29-2.92-3.11s-.49,1.83.46,3.69c.66,1.27,1.05,2,1.36,2.5l.86,1.6a12.34,12.34,0,0,1,.55,1.2c.25.63.61,1.5,1.36,3,1,1.88,2.2,3.26,2.79,3.11S173.33,37.11,172.43,35.21Z" style="fill: #ffd46f"/>
            <path d="M240.58,73.26l.67-1.39c.36-.72.88-1.71,1.68-3.48.67-1.5,1-2.33,1.33-3s.41-1,.84-1.91c1-2.2,1.43-4.08,1-4.2s-1.64,1.66-2.58,3.87c-.62,1.52-1,2.35-1.24,3s-.41,1-.8,1.92l-.64,1.4c-.35.72-.84,1.73-1.6,3.49-1,2.24-1.43,4-1.1,4.14S239.55,75.48,240.58,73.26Z" style="fill: #ffd46f"/>
            <path d="M250.51,52.59a1.87,1.87,0,0,1,.19-.4,5,5,0,0,0,.49-1,6.1,6.1,0,0,0,.27-.89c0-.16.08-.29.16-.56.24-.65,0-1.27-.55-1.37a1.44,1.44,0,0,0-1.41,1,4.8,4.8,0,0,0-.23.89c0,.16-.07.28-.16.56a1.49,1.49,0,0,1-.19.4,4.9,4.9,0,0,0-.46,1c-.22.65,0,1.21.53,1.32A1.38,1.38,0,0,0,250.51,52.59Z" style="fill: #ffd46f"/>
            <path d="M203.59,39.39c.15,1.38.19,1.84.3,2.87.13,1.5.31,3.58.76,7.23.4,3.1.63,4.78.81,6.18.15,1.11.25,2,.51,3.91.56,4.55,1.33,8.23,1.73,8.22s.39-3.72,0-8.27c-.33-3.12-.51-4.81-.65-6.17-.12-1.17-.22-2-.42-3.94-.12-1.4-.15-1.87-.23-2.9-.1-1.5-.24-3.59-.58-7.21-.44-4.6-1.34-8.27-2-8.24S203,34.8,203.59,39.39Z" style="fill: #ffd46f"/>
            <path d="M208.21,77.93a4.62,4.62,0,0,1,.06.57c0,.3,0,.72.16,1.44s.18.94.23,1.22l.14.78c.15.89.51,1.6.81,1.58s.46-.78.34-1.69c-.1-.61-.15-1-.19-1.22s-.07-.39-.13-.77a3.32,3.32,0,0,1,0-.58,11.82,11.82,0,0,0-.12-1.43c-.13-.91-.52-1.62-.87-1.59S208.06,77,208.21,77.93Z" style="fill: #ffd46f"/>
            <path d="M201.52,21.2a.61.61,0,0,1,0,.32,1.75,1.75,0,0,0,.09.78,4.06,4.06,0,0,0,.27.66,2.1,2.1,0,0,1,.18.41,1.4,1.4,0,0,0,1.51.76c.7-.06,1.16-.51,1-1a3.06,3.06,0,0,0-.25-.66,2.07,2.07,0,0,1-.16-.42.7.7,0,0,1,0-.31,1.65,1.65,0,0,0-.06-.79,1.48,1.48,0,0,0-1.56-.77C201.82,20.27,201.36,20.71,201.52,21.2Z" style="fill: #ffd46f"/>
            <path d="M220.26,60.44a4.79,4.79,0,0,1-.08.75,15.84,15.84,0,0,0-.17,1.87c0,.8,0,1.23,0,1.59s0,.51,0,1c-.05,1.17.23,2.12.64,2.12s.82-1,.91-2.13c.06-.8.07-1.24.07-1.59s0-.52,0-1a6,6,0,0,1,.08-.74,13.41,13.41,0,0,0,.22-1.86c.09-1.19-.24-2.14-.72-2.14S220.3,59.26,220.26,60.44Z" style="fill: #ffd46f"/>
            <path d="M222.82,30.5a2.52,2.52,0,0,1-.06.6,6.92,6.92,0,0,0-.15,1.5,11.19,11.19,0,0,0,.06,1.28,6,6,0,0,1,0,.82c0,.94.49,1.71,1.11,1.71s1.16-.75,1.19-1.7a11.38,11.38,0,0,0,0-1.28,6.7,6.7,0,0,1,0-.81A2.56,2.56,0,0,1,225,32a6.32,6.32,0,0,0,.18-1.49c0-.95-.5-1.72-1.17-1.73S222.82,29.55,222.82,30.5Z" style="fill: #ffd46f"/>
            <path d="M222.06,44.26a2.94,2.94,0,0,1-.05.57,7.17,7.17,0,0,0-.15,1.44c0,.62,0,.95,0,1.23s0,.4,0,.78c0,.91.39,1.64.92,1.64s1-.74,1-1.64a9.64,9.64,0,0,0,0-1.23c0-.23,0-.39,0-.78a2.17,2.17,0,0,1,.08-.57,7.54,7.54,0,0,0,.17-1.44c0-.91-.4-1.64-1-1.64S222.08,43.35,222.06,44.26Z" style="fill: #ffd46f"/>
            <path d="M219.17,75.78a1.35,1.35,0,0,1,0,.31,4,4,0,0,0-.07.79c0,.33,0,.52,0,.67s0,.2,0,.42c0,.49.28.86.62.83s.63-.45.64-.94a6.26,6.26,0,0,0,0-.67c0-.12,0-.21,0-.42a2.53,2.53,0,0,1,0-.32,3.35,3.35,0,0,0,.1-.78c0-.5-.29-.87-.65-.84A.88.88,0,0,0,219.17,75.78Z" style="fill: #ffd46f"/>
          </g>
          <g>
            <path d="M323.71,59.46l-6.44,4c-3.36,2-8,4.93-16.13,10l-13.66,8.68-8.66,5.51c-5,3.19-9.55,6.12-12.78,8.26l-3.81,2.56c-.87.61-1.35,1-1.29,1a55.44,55.44,0,0,0,5.65-3.15c3.41-2,8.09-4.8,13.2-7.93l13.85-8.51,8.83-5.42,6.56-4,16.34-9.81c10.38-6.28,18.29-11.65,17.74-12.06S333.9,53.05,323.71,59.46Z" style="fill: #ffd46f"/>
            <path d="M260.27,59.79l-2,3c-1.08,1.54-2.58,3.69-5.1,7.49L248.9,76.7l-2.7,4.09c-1.57,2.36-2.94,4.52-3.89,6.1s-1.48,2.58-1.35,2.62,3.11-3.65,6.39-8.34l4.4-6.38,2.8-4.07c1-1.44,1.36-1.92,2.11-3l5.27-7.4c3.32-4.74,5.55-8.68,5-8.86S263.44,55,260.27,59.79Z" style="fill: #ffd46f"/>
            <path d="M285.47,22.16c-.69,1.06-.94,1.4-1.5,2.17-.81,1.11-1.93,2.66-3.75,5.43-1.5,2.35-2.32,3.64-3,4.7-.54.85-1,1.5-1.92,3-2.26,3.45-3.65,6.39-3.09,6.58s2.94-2.44,5.3-5.86c1.59-2.35,2.45-3.63,3.13-4.66l2-3c.73-1.06,1-1.4,1.56-2.16.83-1.1,2-2.64,3.86-5.37,2.38-3.45,3.67-6.42,2.92-6.67S287.75,18.68,285.47,22.16Z" style="fill: #ffd46f"/>
            <path d="M261,36.35c.27-.57.37-.75.61-1.17.35-.6.84-1.44,1.55-3,.6-1.28.89-2,1.12-2.57s.36-.81.72-1.62c.88-1.88,1-3.54.32-3.7s-1.95,1.23-2.78,3.12c-.57,1.3-.84,2-1.06,2.58s-.35.83-.69,1.64a11,11,0,0,1-.59,1.19c-.34.6-.79,1.45-1.46,3-.84,1.91-1,3.55-.45,3.69S260.08,38.25,261,36.35Z" style="fill: #ffd46f"/>
            <path d="M283.3,94.45,285,93.6c.92-.44,2.2-1,4.37-2.14l3.65-1.9,2.32-1.21c2.71-1.38,4.66-2.72,4.36-3s-2.72.66-5.38,2.08l-3.6,1.94-2.31,1.23-1.73.88c-.9.44-2.15,1.06-4.29,2.18-2.7,1.43-4.69,2.73-4.47,2.92S280.56,95.84,283.3,94.45Z" style="fill: #ffd46f"/>
            <path d="M309.14,81.7a3.86,3.86,0,0,1,.5-.25,8,8,0,0,0,1.26-.62,9.41,9.41,0,0,0,1-.61l.62-.39c.74-.43,1.05-1,.68-1.3a2.07,2.07,0,0,0-2,.26,10.69,10.69,0,0,0-1,.63c-.17.12-.3.2-.61.39a2.9,2.9,0,0,1-.5.25,11,11,0,0,0-1.25.63c-.74.45-1.06,1-.71,1.29A2.19,2.19,0,0,0,309.14,81.7Z" style="fill: #ffd46f"/>
            <path d="M282.62,52.18l-2.24,2.45c-1.19,1.26-2.84,3-5.62,6.15l-4.66,5.33c-.84,1-1.49,1.68-3,3.37-3.46,3.9-6,7.18-5.65,7.32s3.53-2.88,7.1-6.73l4.79-5.25,3.06-3.35c1.12-1.19,1.49-1.57,2.31-2.45,1.22-1.24,2.91-3,5.75-6.06,3.61-3.9,6-7.22,5.47-7.45S286.1,48.24,282.62,52.18Z" style="fill: #ffd46f"/>
            <path d="M253.14,85.21a4.61,4.61,0,0,1-.44.49c-.24.25-.59.6-1.11,1.23s-.67.83-.86,1.08l-.56.68c-.66.78-1,1.49-.7,1.58s1.06-.47,1.74-1.25c.46-.53.7-.82.9-1.06l.56-.67c.21-.24.29-.32.46-.49s.6-.59,1.14-1.21c.68-.78,1-1.5.64-1.61S253.8,84.42,253.14,85.21Z" style="fill: #ffd46f"/>
            <path d="M296.61,36.64a1.07,1.07,0,0,1-.24.27,2.29,2.29,0,0,0-.61.67,4.25,4.25,0,0,0-.34.63,1.87,1.87,0,0,1-.22.4c-.3.46,0,1,.6,1.21a1.57,1.57,0,0,0,1.71-.41,3.09,3.09,0,0,0,.35-.63,2.46,2.46,0,0,1,.22-.4,1,1,0,0,1,.26-.27,2.51,2.51,0,0,0,.62-.66c.31-.45,0-1-.62-1.22A1.53,1.53,0,0,0,296.61,36.64Z" style="fill: #ffd46f"/>
            <path d="M278,75.8c-.33.28-.44.37-.71.57s-.91.69-1.75,1.44-1.09,1-1.4,1.28l-.89.8c-1.05.93-1.67,1.83-1.36,2s1.46-.41,2.54-1.33c.75-.63,1.13-1,1.44-1.26l.91-.81c.34-.28.45-.37.72-.57s.93-.68,1.79-1.41c1.09-.92,1.66-1.85,1.3-2S279.1,74.85,278,75.8Z" style="fill: #ffd46f"/>
            <path d="M306,52.62a4.22,4.22,0,0,1-.56.46A13.12,13.12,0,0,0,304,54.23c-.55.52-.83.82-1.06,1.07a8.49,8.49,0,0,1-.67.66c-.82.76-1.1,1.6-.63,1.87s1.56-.12,2.4-.87c.58-.52.86-.81,1.09-1.05s.34-.35.7-.67a4,4,0,0,1,.58-.45,12.41,12.41,0,0,0,1.44-1.14c.84-.76,1.1-1.61.59-1.9S306.78,51.85,306,52.62Z" style="fill: #ffd46f"/>
            <path d="M293.46,63.45a5.6,5.6,0,0,1-.54.43,14.76,14.76,0,0,0-1.36,1.1c-.55.5-.81.78-1,1l-.66.64c-.8.72-1.12,1.5-.71,1.72s1.41-.16,2.22-.88c.57-.49.85-.77,1.07-1s.34-.33.68-.63a4.61,4.61,0,0,1,.56-.44,13.44,13.44,0,0,0,1.37-1.08c.83-.73,1.12-1.52.67-1.76S294.26,62.71,293.46,63.45Z" style="fill: #ffd46f"/>
            <path d="M263.91,87.75a1.53,1.53,0,0,1-.29.24,7.37,7.37,0,0,0-.74.61c-.29.27-.43.43-.55.56l-.35.35c-.42.4-.55.83-.27.95s.87-.08,1.31-.47l.56-.55.36-.35a2.61,2.61,0,0,1,.3-.24,6.6,6.6,0,0,0,.76-.6c.43-.4.54-.83.24-1A1.48,1.48,0,0,0,263.91,87.75Z" style="fill: #ffd46f"/>
          </g>
          <g>
            <path d="M362.57,116.58l-8.65.64c-4.49.31-10.77.75-21.71,1.63l-18.54,1.54-11.76,1c-6.82.56-13,1.11-17.44,1.55l-5.27.53a12.07,12.07,0,0,0-1.91.29,10.21,10.21,0,0,0,2,0l5.34-.27c4.5-.25,10.7-.63,17.54-1.11L320.69,121l11.82-.83,8.73-.56,21.67-1.37c13.82-.9,24.83-2.06,24.72-2.62S376.35,115.49,362.57,116.58Z" style="fill: #ffd46f"/>
            <path d="M310.93,91.4,306.72,93c-2.2.82-5.27,2-10.58,4l-9,3.52-5.69,2.23c-6.62,2.57-11.86,4.79-11.71,5s5.71-1.73,12.4-4.21l9.05-3.41L297,97.94l4.28-1.57,10.64-3.89c6.75-2.51,11.94-4.81,11.63-5.14S317.61,88.8,310.93,91.4Z" style="fill: #ffd46f"/>
            <path d="M363.7,71c-1.47.57-2,.75-3.07,1.15-1.61.58-3.87,1.39-7.71,2.9l-6.49,2.6-4.12,1.65c-4.79,1.88-8.42,3.7-8.1,4.06s4.52-.81,9.37-2.63l6.54-2.52,4.17-1.61c1.49-.56,2-.74,3.12-1.13,1.62-.56,3.89-1.34,7.75-2.8,4.89-1.84,8.48-3.73,8-4.22S368.53,69.11,363.7,71Z" style="fill: #ffd46f"/>
            <path d="M331.68,72.71c.71-.36,1-.46,1.51-.71.8-.35,1.92-.83,3.79-1.77,1.58-.79,2.42-1.25,3.12-1.62l2-1c2.33-1.17,3.85-2.44,3.41-2.84s-2.68.23-5,1.43c-1.57.82-2.4,1.28-3.07,1.66l-2,1c-.71.37-.95.48-1.5.73-.79.35-1.9.86-3.73,1.81-2.32,1.2-3.88,2.44-3.49,2.78S329.33,73.88,331.68,72.71Z" style="fill: #ffd46f"/>
            <path d="M299.78,128.65h2.14c1.12,0,2.67,0,5.38,0l4.59-.08,2.91,0c3.38,0,6.09-.33,6.05-.66s-2.8-.56-6.18-.48l-4.58.12-2.92.07-2.16,0c-1.11,0-2.66,0-5.35,0-3.42.07-6.13.32-6.09.57S296.37,128.67,299.78,128.65Z" style="fill: #ffd46f"/>
            <path d="M331.68,128.71a4.25,4.25,0,0,1,.62,0,12.14,12.14,0,0,0,1.55,0c.67,0,1-.07,1.32-.11l.83-.06c1-.05,1.7-.4,1.63-.78s-.91-.66-1.88-.59c-.67,0-1,.08-1.31.12l-.83.07H333a13.37,13.37,0,0,0-1.55,0c-1,.06-1.71.4-1.64.76S330.7,128.75,331.68,128.71Z" style="fill: #ffd46f"/>
            <path d="M335.66,94.16l-3.92,1.08c-2,.55-4.9,1.32-9.84,2.74l-8.35,2.44L308.23,102c-6.15,1.77-11,3.42-10.91,3.67s5.28-.9,11.49-2.59l8.41-2.33,5.35-1.49,4-1.06c2.06-.52,4.93-1.26,9.88-2.61,6.27-1.71,11.11-3.43,10.88-3.85S341.87,92.37,335.66,94.16Z" style="fill: #ffd46f"/>
            <path d="M283.37,109.12c-.37.11-.5.14-.78.21s-1,.25-2,.55l-1.63.53-1,.33c-1.2.37-2.09.83-2,1s1.22.06,2.44-.3l1.64-.5,1-.32c.38-.11.51-.15.8-.21s1-.24,2-.53c1.23-.37,2.1-.84,2-1.06S284.59,108.74,283.37,109.12Z" style="fill: #ffd46f"/>
            <path d="M360.36,87.17a1.77,1.77,0,0,1-.43.12,5.53,5.53,0,0,0-1.07.3A8.47,8.47,0,0,0,358,88a2.77,2.77,0,0,1-.53.24c-.63.25-.9.81-.6,1.23a1.5,1.5,0,0,0,1.7.36,5.87,5.87,0,0,0,.84-.37,3.25,3.25,0,0,1,.53-.23,1.3,1.3,0,0,1,.43-.11,5.36,5.36,0,0,0,1.08-.29c.64-.25.9-.81.59-1.26A1.48,1.48,0,0,0,360.36,87.17Z" style="fill: #ffd46f"/>
            <path d="M311.37,111.48c-.5.1-.67.13-1.06.19-.56.08-1.33.19-2.66.46l-2.24.47-1.42.3c-1.65.32-2.9.81-2.78,1.06s1.58.25,3.24-.06c1.14-.21,1.75-.34,2.25-.44l1.43-.29c.51-.09.69-.12,1.07-.17.56-.07,1.34-.18,2.66-.42,1.68-.32,2.91-.82,2.77-1.13S313,111.15,311.37,111.48Z" style="fill: #ffd46f"/>
            <path d="M353.93,103.93a7.34,7.34,0,0,1-.85.15c-.45.06-1.08.13-2.15.36-.89.2-1.37.33-1.77.44s-.56.15-1.13.27c-1.32.28-2.24.85-2.06,1.25s1.41.52,2.73.25c.91-.18,1.39-.31,1.78-.41s.58-.14,1.14-.25a5.82,5.82,0,0,1,.86-.14,18.87,18.87,0,0,0,2.14-.35c1.34-.27,2.26-.85,2.06-1.29S355.26,103.64,353.93,103.93Z" style="fill: #ffd46f"/>
            <path d="M334.49,107.68a6.35,6.35,0,0,1-.81.13c-.44.06-1,.14-2.06.35-.86.18-1.32.31-1.7.4l-1.09.26c-1.26.26-2.16.76-2,1.1s1.32.42,2.6.17c.87-.17,1.34-.28,1.71-.37l1.09-.24a6.76,6.76,0,0,1,.82-.13c.44,0,1-.12,2.06-.32,1.29-.26,2.17-.78,2-1.15S335.77,107.41,334.49,107.68Z" style="fill: #ffd46f"/>
            <path d="M289.64,115.5l-.44.08a7.26,7.26,0,0,0-1.12.19c-.47.1-.72.17-.93.23l-.58.14c-.68.15-1.13.44-1,.65s.82.27,1.51.13c.47-.1.72-.16.92-.22l.59-.13a3.08,3.08,0,0,1,.45-.08,8,8,0,0,0,1.12-.18c.69-.14,1.14-.45,1-.67S290.34,115.35,289.64,115.5Z" style="fill: #ffd46f"/>
          </g>
        </g>
      </g>
      <g>
        <g>
          <g>
            <use width="32.32" height="7.61" transform="matrix(-0.7, 0, 0, 0.71, 381.24, 242.67)" xlink:href="#goldCoin_3"/>
            <use width="32.32" height="7.61" transform="matrix(-0.7, 0, 0, 0.73, 380.91, 236.85)" xlink:href="#goldCoin_3"/>
            <use width="32.32" height="7.61" transform="matrix(-0.71, 0, 0, 0.75, 382.41, 231.07)" xlink:href="#goldCoin_3"/>
            <use width="32.32" height="7.61" transform="matrix(-0.72, 0, 0, 0.73, 382.34, 225.42)" xlink:href="#goldCoin_3"/>
            <use width="32.32" height="7.61" transform="matrix(-0.7, 0, 0, 0.71, 381.95, 219.79)" xlink:href="#goldCoin_3"/>
            <use width="32.32" height="7.61" transform="matrix(-0.72, 0, 0, 0.71, 381.22, 214.07)" xlink:href="#goldCoin_3"/>
            <use width="32.32" height="7.61" transform="matrix(-0.71, 0, 0, 0.66, 381.69, 208.55)" xlink:href="#goldCoin_3"/>
            <use width="32.32" height="7.61" transform="matrix(-0.7, 0, 0, 0.73, 380.91, 202.54)" xlink:href="#goldCoin_3"/>
            <use width="32.32" height="7.61" transform="matrix(-0.72, 0, 0, 0.64, 382.34, 197.17)" xlink:href="#goldCoin_3"/>
            <use width="32.32" height="7.61" transform="matrix(-0.73, 0, 0, 0.75, 381.69, 191.03)" xlink:href="#goldCoin_3"/>
          </g>
          <g>
            <use width="32.32" height="7.61" transform="matrix(-0.7, 0, 0, 0.71, 351.82, 245.65)" xlink:href="#goldCoin_3"/>
            <use width="32.32" height="7.61" transform="matrix(-0.7, 0, 0, 0.73, 351.49, 239.84)" xlink:href="#goldCoin_3"/>
            <use width="32.32" height="7.61" transform="matrix(-0.71, 0, 0, 0.75, 352.99, 234.05)" xlink:href="#goldCoin_3"/>
            <use width="32.32" height="7.61" transform="matrix(-0.72, 0, 0, 0.73, 352.92, 228.4)" xlink:href="#goldCoin_3"/>
            <use width="32.32" height="7.61" transform="matrix(-0.7, 0, 0, 0.71, 352.53, 222.77)" xlink:href="#goldCoin_3"/>
            <use width="32.32" height="7.61" transform="matrix(-0.72, 0, 0, 0.71, 351.8, 217.05)" xlink:href="#goldCoin_3"/>
            <use width="32.32" height="7.61" transform="matrix(-0.71, 0, 0, 0.66, 352.27, 211.53)" xlink:href="#goldCoin_3"/>
            <use width="32.32" height="7.61" transform="matrix(-0.7, 0, 0, 0.73, 351.49, 205.52)" xlink:href="#goldCoin_3"/>
          </g>
          <g>
            <use width="32.32" height="7.61" transform="matrix(-0.73, 0, 0, 0.75, 366.14, 246.79)" xlink:href="#goldCoin_3"/>
            <use width="32.32" height="7.61" transform="matrix(-0.7, 0, 0, 0.71, 332.14, 246.51)" xlink:href="#goldCoin_3"/>
            <use width="32.32" height="7.61" transform="matrix(-0.7, 0, 0, 0.73, 341.09, 243.56)" xlink:href="#goldCoin_3"/>
            <use width="32.32" height="7.61" transform="matrix(-0.71, 0, 0, 0.75, 366.14, 243.49)" xlink:href="#goldCoin_3"/>
            <use width="32.32" height="7.61" transform="matrix(-0.72, 0, 0, 0.73, 386.91, 247.56)" xlink:href="#goldCoin_3"/>
            <use width="32.32" height="7.61" transform="matrix(-0.66, 0.26, 0.24, 0.61, 329.42, 234.77)" xlink:href="#goldCoin_3"/>
          </g>
        </g>
        <g>
          <path d="M158.28,255c-17.85,0-25.16-12.14-31.17-31.73-5.23-17.17-11.71-25.46-22.39-28.62A24.4,24.4,0,0,1,99,192.36v48h10.17a4.66,4.66,0,0,1,4.66,4.66v3.1a4.66,4.66,0,0,1-4.66,4.66H41.75a4.66,4.66,0,0,1-4.66-4.66V245a4.65,4.65,0,0,1,4.66-4.66H55.53V141.05H41.75a4.65,4.65,0,0,1-4.66-4.65v-3.11a4.66,4.66,0,0,1,4.66-4.66h64.47c31.27,0,42.41,18.17,42.41,35.17,0,14-8,24-21.76,28,7.71,5.72,12.19,13.58,16.54,27.1,7,22.07,11,23.66,16.59,23.66,3.43,0,4.93-.88,5.42-1.26a2.31,2.31,0,0,1,.36-.25,13,13,0,0,0,1.58-1.24,6.21,6.21,0,0,1,4.19-1.91,5.68,5.68,0,0,1,6,5.7C177.59,248.88,169.15,255,158.28,255ZM75.19,243.44h4.13V138H75.19Zm26.72-62.92a33.18,33.18,0,0,1,4,.36,46.69,46.69,0,0,0,6,.5c13.1,0,19.47-5.86,19.47-17.92,0-14-9.47-22.41-25.33-22.41H99v40.2A6.15,6.15,0,0,1,101.91,180.52Z" style="fill: #edb453"/>
          <path d="M60.19,137.29H41.75v-3.11h64.47c27.92,0,37.75,15.17,37.75,30.51,0,16.9-13.62,25.35-32.06,25.35,14.82,5.86,20.86,11.89,27.06,31.2,6.55,20.51,11.21,26.89,21,26.89,4.14,0,6.73-1,8.28-2.24,1.89-1.21,2.75-2.42,3.27-2.42.69,0,1.38.18,1.38,1,0,1.55-5.17,6.72-14.65,6.72-14.31,0-20.69-8.79-26.72-28.44-4.83-15.86-11.55-27.58-25.51-31.72-3.45-1-5.52-1.9-5.52-2.93,0-1.38.35-2.07,1.38-2.07,2.07,0,5.86.86,10,.86,15.68,0,24.13-8.1,24.13-22.58,0-15.34-10.17-27.06-30-27.06H94.32v108.6h14.83V249H41.75v-3.1H60.19Zm10.35,108.6V137.29H63.3v108.6Zm20.68,0V137.29H84v108.6Z" style="fill: #fde390"/>
          <path d="M94.32,191.89h-3.1V246.1H84V191.89H70.54V246.1H63.3V191.89H60.19V246.1H41.75v3.1h67.4v-3.1H94.32Zm77.23,51.79c-.52,0-1.38,1.21-3.27,2.42-1.55,1.2-4.14,2.24-8.28,2.24-9.82,0-14.48-6.38-21-26.89-5.63-17.52-11.12-24.11-23.15-29.56h-8c12.74,4.59,19.1,16,23.71,31.11,6,19.65,12.41,28.44,26.72,28.44,9.48,0,14.65-5.17,14.65-6.72C172.93,243.86,172.24,243.68,171.55,243.68Z" style="fill: #fdd377"/>
          <path d="M139,222c-.23-.74-.47-1.44-.7-2.14h-7.9c.38,1.12.75,2.26,1.11,3.43h7.91Zm-38.44-33.1a.35.35,0,0,0,0,.11h24.81c1-.29,2-.63,3-1H100.6A4.66,4.66,0,0,0,100.53,188.86Zm-6.21,55.21h-3.1v2.54H84v-2.54H70.54v2.54H63.3v-2.54H60.19v2.54H41.75v3.1h67.4v-3.1H94.32ZM60.19,140.54H63.3V138h7.24v2.53H84V138h7.24v2.53h3.1V138h11.73a37.61,37.61,0,0,1,14.25,2.53h10.18c-5.82-3.49-13.76-5.64-24.26-5.64H41.75V138H60.19ZM171.55,244.19c-.52,0-1.38,1.21-3.27,2.42-1.55,1.2-4.14,2.24-8.28,2.24a13.39,13.39,0,0,1-10.93-4.78H141c4.28,5.34,9.65,7.88,17.3,7.88,9.48,0,14.65-5.17,14.65-6.72C172.93,244.37,172.24,244.19,171.55,244.19ZM141,227.91h-8c.51,1.48,1,2.89,1.55,4.22h8C142,230.82,141.49,229.41,141,227.91Zm-46.64,0h-3.1v4.22h3.1Zm0-8.09h-3.1v3.43h3.1Zm0-8h-3.1v2.62h3.1Zm40.6-55.09h7.9a28.07,28.07,0,0,0-1.54-4.22h-8A26.08,26.08,0,0,1,134.92,156.7Zm-40.6,4.67h-3.1v3.42h3.1Zm0-8.89h-3.1v4.22h3.1Zm0,26.65h-3.1v1.71h3.1Zm0,24.65h-3.1v1.71h3.1Zm0-8.14h-3.1v1h3.1Zm0-25.43h-3.1v2.62h3.1ZM84,188H70.54v1H84Zm0,39.94H70.54v4.22H84Zm0-16.12H70.54v2.62H84Zm0-8H70.54v1.71H84Zm7.24,37.15h3.1V236.1h-3.1ZM84,195.64H70.54v1H84ZM70.54,240.93H84V236.1H70.54ZM84,219.82H70.54v3.43H84Zm60.23,16.28h-8a44.33,44.33,0,0,0,2.56,4.83h8A43.53,43.53,0,0,1,144.21,236.1ZM84,179.13H70.54v1.71H84Zm0-35.45H70.54v4.83H84Zm10.34,0h-3.1v4.83h3.1Zm36.57,4.83H139a26.47,26.47,0,0,0-4.27-4.83H126A23.79,23.79,0,0,1,130.89,148.51ZM84,170.21H70.54v2.62H84Zm0-17.73H70.54v4.22H84Zm0,8.89H70.54v3.42H84ZM94.32,188h-3.1v1h3.1Zm36.32,15.81h-8c.4.56.8,1.12,1.18,1.71h8C131.43,204.89,131,204.33,130.64,203.78Zm5.4-39H144c0-1.15-.1-2.29-.23-3.42h-7.9A31.72,31.72,0,0,1,136,164.79Zm7.53,5.42h-7.92a26.37,26.37,0,0,1-.58,2.62H143A24.37,24.37,0,0,0,143.57,170.21Zm-8.41,41.58h-8c.39.85.78,1.72,1.15,2.62h7.93C135.91,213.5,135.54,212.62,135.16,211.79Zm-4.4-30.95h8a21.26,21.26,0,0,0,1.29-1.71h-7.86A19.09,19.09,0,0,1,130.76,180.84Zm-8.85,14.8H114.3c.49.32,1,.65,1.43,1h7.69C122.93,196.3,122.43,196,121.91,195.64ZM63.3,219.82H60.19v3.43H63.3Zm0,8.09H60.19v4.22H63.3Zm-3.11,13H63.3V236.1H60.19Zm3.11-37.15H60.19v1.71H63.3Zm0,8H60.19v2.62H63.3Zm0-59.31H60.19v4.22H63.3Zm0-8.8H60.19v4.83H63.3Zm0,17.69H60.19v3.42H63.3Zm0,8.84H60.19v2.62H63.3Zm0,17.76H60.19v1H63.3Zm0,7.67H60.19v1H63.3Zm0-16.51H60.19v1.71H63.3Z" style="fill: #d9a761;opacity: 0.2;mix-blend-mode: multiply"/>
        </g>
      </g>
    </g>
  </g>
</svg>
