<svg id="Layer_1" data-name="Layer 1" xmlns="http://www.w3.org/2000/svg" xmlns:xlink="http://www.w3.org/1999/xlink" viewBox="0 0 48 48">
  <defs>
    <symbol id="goldCoin02" data-name="goldCoin02" viewBox="0 0 495 500">
      <g id="coin">
        <g>
          <g>
            <path d="M481.07,177.8a240.11,240.11,0,0,1,10.81,71.42c0,133.36-108.72,241.46-242.82,241.46A242.87,242.87,0,0,1,56.35,396.11a242.56,242.56,0,0,1-22-30.71A242.94,242.94,0,0,0,252.18,500C386.29,500,495,391.89,495,258.54A239.75,239.75,0,0,0,481.07,177.8Z" style="fill: #c59343"/>
            <path d="M6.25,249.22C6.25,115.87,115,7.76,249.06,7.76A242.85,242.85,0,0,1,435.53,94.57,242.87,242.87,0,0,0,242.82,0C108.71,0,0,108.11,0,241.46A239.25,239.25,0,0,0,34.4,365.4,239.54,239.54,0,0,1,20.17,330,240,240,0,0,1,6.25,249.22Z" style="fill: #f9f1c3"/>
            <path d="M481.07,177.8a239.12,239.12,0,0,0-20.47-43.2,241.9,241.9,0,0,0-25.07-40A242.85,242.85,0,0,0,249.06,7.76C115,7.76,6.25,115.87,6.25,249.22a239.58,239.58,0,0,0,50.1,146.89,242.87,242.87,0,0,0,192.71,94.57c134.1,0,242.82-108.1,242.82-241.46A240.11,240.11,0,0,0,481.07,177.8Z" style="fill: #ffd46f"/>
          </g>
          <g>
            <ellipse cx="252.97" cy="253.11" rx="179.57" ry="178.57" style="fill: #f9f1c3"/>
            <ellipse cx="249.84" cy="246.89" rx="179.57" ry="178.57" style="fill: #e7b45d"/>
            <ellipse cx="252.18" cy="250.78" rx="178.01" ry="177.02" style="fill: #ffc855"/>
          </g>
          <path d="M490.42,209a240.19,240.19,0,0,0-12.16-39C444.9,302.41,319.1,392.43,182.67,375.26c-70.23-8.84-130.61-44.49-172.56-95.64q1.39,11.53,3.85,22.76a242.24,242.24,0,0,0,206.78,188c133.05,16.74,254.55-76.94,271.38-209.24A239.85,239.85,0,0,0,490.42,209Z" style="fill: #8b6235;opacity: 0.1"/>
        </g>
      </g>
      <g style="opacity: 0.1">
        <path d="M341.54,237.91c-1.42-3.82-6.25-6.93-14.17-8.34l-15.68-2.52a50.94,50.94,0,0,1-18.75-7.8c-7.38-4.87-13.43-11.3-16-17.62l-17.22-44c-2.3-6-5.2-9.31-8.05-9.62s-5.55,2.22-7.63,7.8l-14.86,40.69c-2.07,5.89-6.84,11.53-12.92,15.87a43.36,43.36,0,0,1-21.46,8.14l-18.32,1.82c-8.05.8-13.07,4.26-14.61,9-1.3,4.05-.12,9.05,3.94,14.22L179.58,262a41.56,41.56,0,0,1,7.62,15.36c2.48,9.07,2.5,19.17-.78,27.14L174.94,335c-2.64,7.4-2.09,11.74.92,12.75,2.59.87,7-.74,12.85-5.12l37.46-26.54c6.94-4.6,16.35-7.33,25.51-8.06,7.43-.6,14.7.12,20.34,2.25l33.64,12c6,1.91,10.84,1.81,13.75.11,3.16-1.84,4.11-5.55,1.92-10.69l-6.47-16c-2.22-5.36-2.07-12.36-.06-19.1a37,37,0,0,1,9.63-16.12l13.24-12C341.53,244.83,342.73,241.12,341.54,237.91Z" style="fill: #8b6235"/>
      </g>
    </symbol>
  </defs>
  <title>gold48</title>
  <use width="495" height="500" transform="translate(1.23 1) scale(0.09)" xlink:href="#goldCoin02"/>
</svg>
