<?xml version="1.0" encoding="utf-8"?>
<!-- Generator: Adobe Illustrator 24.0.0, SVG Export Plug-In . SVG Version: 6.00 Build 0)  -->
<svg version="1.1" id="Layer_1" xmlns="http://www.w3.org/2000/svg" xmlns:xlink="http://www.w3.org/1999/xlink" x="0px" y="0px"
	 viewBox="0 0 25 25" style="enable-background:new 0 0 25 25;" xml:space="preserve">
<style type="text/css">
	.st0{fill:#C59343;}
	.st1{fill:#F9F1C3;}
	.st2{fill:#FFD46F;}
	.st3{fill:#E7B45D;}
	.st4{fill:#FFC855;}
	.st5{opacity:0.1;fill:#8B6235;enable-background:new    ;}
	.st6{opacity:0.1;}
	.st7{fill:#8B6235;}
</style>
<symbol  id="goldCoin02" viewBox="-247.5 -250 495 500">
	<g id="coin_1_">
		<g>
			<g>
				<path class="st0" d="M233.6-72.2c7.2,23.1,10.8,47.2,10.8,71.4c0,133.4-108.7,241.5-242.8,241.5
					c-75.4,0.1-146.6-34.8-192.7-94.6c-8.1-9.6-15.5-19.9-22-30.7C-172,198-87.6,250.1,4.7,250c134.1,0,242.8-108.1,242.8-241.5
					C247.5-19,242.8-46.3,233.6-72.2z"/>
				<path class="st1" d="M-241.2-0.8c0-133.3,108.8-241.5,242.8-241.5c71.9-0.1,140.2,31.7,186.5,86.8C142-215.2,70.8-250.1-4.7-250
					c-134.1,0-242.8,108.1-242.8,241.5c-0.1,43.7,11.8,86.5,34.4,123.9c-5.7-11.4-10.4-23.2-14.2-35.4
					C-236.6,54.1-241.3,26.7-241.2-0.8z"/>
				<path class="st2" d="M233.6-72.2c-5.4-15-12.2-29.5-20.5-43.2c-7-14.1-15.4-27.5-25.1-40c-46.2-55.1-114.5-86.9-186.5-86.8
					c-134.1,0-242.8,108.1-242.8,241.5c-0.1,53.2,17.6,104.8,50.1,146.9c46.1,59.7,117.3,94.7,192.7,94.6
					c134.1,0,242.8-108.1,242.8-241.5C244.4-25,240.8-49.1,233.6-72.2z"/>
			</g>
			<g>
				<ellipse class="st1" cx="5.5" cy="3.1" rx="179.6" ry="178.6"/>
				<ellipse class="st3" cx="2.3" cy="-3.1" rx="179.6" ry="178.6"/>
				<ellipse class="st4" cx="4.7" cy="0.8" rx="178" ry="177"/>
			</g>
			<path class="st5" d="M242.9-41c-2.9-13.3-7-26.4-12.2-39C197.4,52.4,71.6,142.4-64.8,125.3c-70.2-8.8-130.6-44.5-172.6-95.6
				c0.9,7.7,2.2,15.3,3.9,22.8c22.2,100.1,105,175.4,206.8,188c133.1,16.7,254.6-76.9,271.4-209.2C247.7,7.1,247.1-17.2,242.9-41z"
				/>
		</g>
	</g>
	<g class="st6">
		<path class="st7" d="M94-12.1c-1.4-3.8-6.2-6.9-14.2-8.3L64.2-23c-6.7-1.3-13.1-4-18.8-7.8c-7.4-4.9-13.4-11.3-16-17.6l-17.2-44
			c-2.3-6-5.2-9.3-8.1-9.6s-5.6,2.2-7.6,7.8l-14.9,40.7c-2.1,5.9-6.8,11.5-12.9,15.9c-6.3,4.6-13.7,7.4-21.5,8.1L-71-27.7
			c-8.1,0.8-13.1,4.3-14.6,9c-1.3,4.1-0.1,9.1,3.9,14.2L-67.9,12c3.6,4.5,6.2,9.8,7.6,15.4c2.5,9.1,2.5,19.2-0.8,27.1L-72.6,85
			c-2.6,7.4-2.1,11.7,0.9,12.8c2.6,0.9,7-0.7,12.9-5.1l37.5-26.5C-14.4,61.5-5,58.8,4.2,58c7.4-0.6,14.7,0.1,20.3,2.2l33.6,12
			c6,1.9,10.8,1.8,13.8,0.1c3.2-1.8,4.1-5.5,1.9-10.7l-6.5-16c-2.2-5.4-2.1-12.4-0.1-19.1c1.8-6.1,5.1-11.7,9.6-16.1l13.2-12
			C94-5.2,95.2-8.9,94-12.1z"/>
	</g>
</symbol>
<title>goldx24</title>
<g>
	<defs>
		<rect id="SVGID_1_" x="0.6" y="0.5" width="23.8" height="24"/>
	</defs>
	<clipPath id="SVGID_2_">
		<use xlink:href="#SVGID_1_"  style="overflow:visible;"/>
	</clipPath>
	<g style="clip-path:url(#SVGID_2_);">
		
			<use xlink:href="#goldCoin02"  width="495" height="500" x="-247.5" y="-250" transform="matrix(4.800000e-02 0 0 4.800000e-02 12.497 12.4944)" style="overflow:visible;"/>
	</g>
</g>
</svg>
