<svg id="Layer_1" data-name="Layer 1" xmlns="http://www.w3.org/2000/svg" viewBox="0 0 189.06 29.5">
  <title>ribbon</title>
  <g>
    <path d="M180.1,13.73H174V27.46h15.06q-4.47-6.87-9-13.73Z" style="fill: #3d6d84"/>
    <path d="M180.1,13.73q4.49-6.87,9-13.73H175.19L174,1.52V13.73Z" style="fill: #42788e"/>
  </g>
  <g>
    <path d="M9,13.73h6.09V27.46H0L9,13.73Z" style="fill: #3d6d84"/>
    <path d="M9,13.73,0,0H13.87l1.19,1.52V13.73Z" style="fill: #42788e"/>
  </g>
  <path d="M11.06,15.5h167a0,0,0,0,1,0,0v10a4,4,0,0,1-4,4h-159a4,4,0,0,1-4-4v-10A0,0,0,0,1,11.06,15.5Z" style="fill: #467c91"/>
  <path d="M15.06,1.5h159a4,4,0,0,1,4,4v10a0,0,0,0,1,0,0h-167a0,0,0,0,1,0,0V5.5A4,4,0,0,1,15.06,1.5Z" style="fill: #49889b"/>
</svg>
