<svg id="Layer_1" data-name="Layer 1" xmlns="http://www.w3.org/2000/svg" xmlns:xlink="http://www.w3.org/1999/xlink" viewBox="0 0 23.76 24">
  <defs>
    <symbol id="silverCoin" data-name="silverCoin" viewBox="0 0 495 500">
      <g>
        <g>
          <path d="M481.07,177.8a240.11,240.11,0,0,1,10.81,71.42c0,133.36-108.72,241.46-242.82,241.46A242.87,242.87,0,0,1,56.35,396.11a242.56,242.56,0,0,1-22-30.71A242.94,242.94,0,0,0,252.18,500C386.29,500,495,391.89,495,258.54A239.75,239.75,0,0,0,481.07,177.8Z" style="fill: #80a5c0"/>
          <path d="M6.25,249.22C6.25,115.87,115,7.76,249.06,7.76A242.85,242.85,0,0,1,435.53,94.57,242.87,242.87,0,0,0,242.82,0C108.71,0,0,108.11,0,241.46A239.25,239.25,0,0,0,34.4,365.4,239.54,239.54,0,0,1,20.17,330,240,240,0,0,1,6.25,249.22Z" style="fill: #fff"/>
          <path d="M481.07,177.8a239.12,239.12,0,0,0-20.47-43.2,241.9,241.9,0,0,0-25.07-40A242.85,242.85,0,0,0,249.06,7.76C115,7.76,6.25,115.87,6.25,249.22a239.58,239.58,0,0,0,50.1,146.89,242.87,242.87,0,0,0,192.71,94.57c134.1,0,242.82-108.1,242.82-241.46A240.11,240.11,0,0,0,481.07,177.8Z" style="fill: #d7e1e6"/>
        </g>
        <g>
          <ellipse cx="252.97" cy="253.11" rx="179.57" ry="178.57" style="fill: #fff"/>
          <ellipse cx="249.84" cy="246.89" rx="179.57" ry="178.57" style="fill: #80a5c0"/>
          <ellipse cx="252.18" cy="250.78" rx="178.01" ry="177.02" style="fill: #e7eff2"/>
        </g>
        <path d="M490.42,209a240.19,240.19,0,0,0-12.16-39C444.9,302.41,319.1,392.43,182.67,375.26c-70.23-8.84-130.61-44.49-172.56-95.64q1.39,11.53,3.85,22.76a242.24,242.24,0,0,0,206.78,188c133.05,16.74,254.55-76.94,271.38-209.24A239.85,239.85,0,0,0,490.42,209Z" style="fill: #8b6235;opacity: 0.1"/>
      </g>
      <g>
        <path d="M228.83,270c4.35-2.73,9.95-6.41,16.36-10.71L125.61,177.91s-10.2,21.55,19,34.33c0,0-10.19,18.36,19,33.13,0,0-13.63,24.47,41.4,46.51C208.15,286.21,214.83,278.76,228.83,270Z" style="fill: #d7e1e6"/>
        <path d="M368.8,180.79S290.56,237,248.3,265.34c-6.41,4.31-12,8-16.37,10.72-14,8.78-20.68,16.22-23.74,21.89-4.19,7.74-1.64,12.17-1.64,12.17-2.26,5.33,0,20,0,20s3.4-8,13.6-16.36c23.11-28,45.77,13.43,56.2,20.35s17.22-2.66,17.22-2.66c17.67,13.31,26.74-1.33,26.74-1.33,20.39,10.91,29-4.52,29-4.52-18.12-10.65-64.8-23.95-64.8-23.95,63-31.94,46.68-51.1,46.68-51.1,32.17-19.69,21.3-33,21.3-33C382.4,199.42,368.8,180.79,368.8,180.79ZM210.89,305.63s-1-3.29.93-5.29a2.18,2.18,0,0,1,3.49,0C212.93,300.94,210.89,305.63,210.89,305.63Z" style="fill: #d7e1e6"/>
      </g>
    </symbol>
  </defs>
  <title>silverx24</title>
  <use width="495" height="500" transform="scale(0.05)" xlink:href="#silverCoin"/>
</svg>
